<svg width="1920" height="869" viewBox="0 0 1920 869" fill="none" xmlns="http://www.w3.org/2000/svg">
<path opacity="0.055" d="M1572.94 203.405C1644.51 178.503 1716.13 152.555 1788.46 131.5C1822.16 121.681 1854.34 105.86 1888.83 98.8725C1906.59 95.2711 1924.37 94.5941 1942.25 96.1023C1970.43 93.055 1989.65 109.215 1999.99 144.613C1995.67 161.143 1988.71 175.733 1979.15 188.415C1943.85 241.666 1886.4 277.311 1836.46 307.969C1775.36 345.429 1699.74 372.239 1632.36 388.215C1562.97 404.683 1490.17 414.317 1419.59 419.735C1385.24 422.382 1350.96 418.042 1316.66 420.935C1284.68 423.613 1247.18 435.587 1215.26 426.661C1215.29 426.23 1215.81 426.353 1215.84 425.922C1215.84 425.737 1215.97 425.552 1215.99 425.368C1219.14 425.152 1222.17 425.029 1225.79 424.198C1247.92 419.181 1269.47 411.301 1291.59 406.068C1344.1 393.694 1399.06 390.37 1452.12 380.643C1504.7 370.977 1554.85 359.958 1605.86 341.089C1659.31 321.328 1710.84 296.334 1763.95 275.618C1769.03 273.648 1766.85 264.721 1761.64 266.198C1663.73 294.148 1567.76 334.964 1467.93 352.14C1426.9 359.188 1386.1 369.192 1345.3 377.78C1323.18 382.428 1301.28 385.352 1279.47 391.632C1267.01 395.233 1254.33 397.726 1241.6 400.004C1268.86 381.997 1297.33 367.222 1327.03 355.064C1371.39 336.934 1415.8 319.45 1461.26 304.921C1506.11 290.577 1551.5 278.942 1596.33 263.089C1642.05 246.929 1688.22 237.788 1734.72 225.783C1736.5 225.321 1735.69 222.336 1733.96 222.643C1683.24 231.939 1631.42 234.771 1581.77 250.87C1558.62 258.38 1535.78 267.43 1512.53 274.509C1489.17 281.62 1466.15 284.821 1442.87 292.763C1395.58 308.892 1348.94 327.453 1301.86 343.459C1286.88 348.538 1269.89 355.341 1253.28 363.559C1265.72 352.078 1278.66 341.89 1288.01 335.056C1319.98 311.57 1351.59 292.086 1386.47 275.525C1446.7 246.96 1510.62 225.106 1572.94 203.405ZM1256.56 457.257C1274.18 460.827 1292.67 461.32 1311.29 460.304C1295.58 463.26 1277.9 467.538 1261.11 474.248C1261.27 472.124 1262 470.462 1261.82 468.123C1261.48 463.721 1258.99 460.427 1256.56 457.257ZM1236.86 450.731C1233.12 452.086 1229.85 453.994 1227.52 457.442C1227.25 457.596 1226.91 457.75 1226.6 457.904C1226.76 452.979 1226.23 448.054 1224.64 443.252C1228.69 445.93 1232.6 448.854 1236.86 450.731ZM1239.95 320.342C1249.62 316.064 1259.1 311.047 1268.55 305.814C1259.73 312.185 1250.38 319.235 1241.11 327.361C1241.05 324.868 1240.64 322.713 1239.95 320.342ZM1277.93 101.243C1324.2 47.7758 1376.15 -1.13544 1426.72 -49.2155C1484.72 -104.406 1542.44 -160.612 1602.4 -212.602C1630.34 -236.857 1654.93 -265.915 1684.52 -287.892C1699.74 -299.189 1715.97 -307.838 1732.99 -314.487C1758.06 -329.97 1781.07 -323.691 1802.1 -295.649C1803.52 -278.442 1801.87 -261.821 1797.13 -245.784C1781.86 -180.713 1740.41 -121.92 1704.24 -71.1624C1659.99 -9.04614 1598.84 49.6844 1541.78 94.7787C1483.04 141.197 1418.91 182.843 1355.49 219.596C1324.62 237.48 1291.52 248.93 1260.77 267.03C1232.2 283.836 1201.54 311.601 1169.25 317.818C1169.17 317.511 1169.33 317.295 1169.23 316.987C1169.17 316.803 1169.28 316.587 1169.2 316.403C1172.03 314.771 1174.8 313.324 1177.87 310.923C1196.67 296.333 1214 279.342 1232.78 264.598C1277.27 229.569 1326.95 201.774 1372.8 168.899C1418.26 136.333 1461 103.582 1501.95 63.2278C1544.92 20.9346 1584.39 -25.36 1626.7 -68.3613C1630.74 -72.4859 1625.84 -79.7505 1621.55 -76.026C1540.21 -6.18359 1464.82 74.7094 1378.14 135.502C1342.55 160.496 1308.14 188.076 1273.21 214.363C1254.28 228.615 1235.01 241.173 1216.88 256.779C1206.54 265.706 1195.62 273.709 1184.65 281.527C1203.97 252.624 1225.45 226.152 1248.96 201.558C1284.05 164.867 1319.33 128.73 1356.62 94.8708C1393.38 61.4426 1431.54 30.2922 1467.8 -4.55206C1504.78 -40.0427 1544.45 -69.2847 1583.5 -101.266C1584.99 -102.497 1583.29 -104.868 1581.79 -103.821C1537.96 -72.3938 1491.01 -46.4759 1450.39 -9.26154C1431.46 8.099 1413.26 26.6906 1394.09 43.7125C1374.84 60.796 1354.57 74.0938 1335.69 91.9161C1297.25 128.084 1260.22 166.191 1221.91 202.174C1209.76 213.594 1196.25 227.568 1183.58 242.589C1191.35 226.368 1199.99 211.162 1206.38 200.604C1228.22 164.436 1251.06 132.239 1277.93 101.243ZM1226.73 611.439C1227.02 611.47 1227.31 611.501 1227.57 611.532C1227.57 611.44 1227.59 611.378 1227.59 611.316C1232.18 610.916 1236.86 610.608 1240.56 609.254C1247.39 606.699 1251.24 601.959 1253.47 596.603C1267.92 606.823 1283.69 615.164 1300.16 622.151C1272.3 614.333 1236.81 607.684 1209.58 616.549C1210.1 616.057 1210.34 614.949 1210.97 614.641C1215.05 612.455 1220.84 611.932 1226.73 611.439ZM1209 362.543C1208.87 362.728 1208.71 362.913 1208.56 363.098C1208.56 363.098 1208.61 362.728 1208.58 362.79C1208.69 362.605 1208.9 362.697 1209 362.543ZM1180.8 462.243C1179.75 464.06 1178.89 465.999 1177.95 467.969C1177.53 464.583 1177.71 461.166 1177.11 457.842C1177.19 457.934 1177.21 458.026 1177.29 458.119C1177.92 458.796 1179.36 460.581 1180.8 462.243ZM1165.9 330.347C1165.98 330.47 1166.08 330.654 1166.29 330.993C1166.27 330.808 1166.11 330.5 1165.95 330.285C1166.82 329.515 1167.44 328.561 1168.07 327.484C1169.54 328.038 1170.95 327.484 1172.42 327.915C1171.56 329.115 1170.3 329.823 1169.51 331.116C1168.99 331.301 1168.13 331.732 1167.86 331.732C1167.86 331.732 1164.77 331.116 1166.29 331.177C1166.37 331.177 1166.32 331.085 1166.29 330.993C1166.21 330.839 1166.03 330.562 1165.9 330.347ZM1166.63 197.403C1170.74 192.447 1174.8 187.43 1178.78 182.32C1175.41 187.799 1172.11 193.525 1168.65 199.65C1168.07 198.727 1167.29 198.173 1166.63 197.403ZM1120.91 -10.9547C1146.26 -81.1664 1178.31 -149.747 1209.37 -216.911C1245.01 -293.987 1280.05 -371.863 1318.51 -446.877C1336.45 -481.844 1349.68 -519.766 1369.84 -553.379C1380.24 -570.648 1392.44 -585.946 1405.98 -599.767C1424.07 -625.346 1447.4 -629.901 1475.95 -613.434C1482.83 -598.166 1486.74 -582.068 1487.57 -565.138C1494.65 -498.158 1475.48 -425.176 1458.59 -362.044C1437.95 -284.753 1400.58 -202.967 1362.53 -135.649C1323.39 -66.3607 1277.69 0.988281 1231.05 63.4739C1208.35 93.8857 1181.48 119.342 1158.96 149.907C1138.06 178.257 1118.74 217.687 1090.93 237.941C1090.77 237.726 1090.85 237.48 1090.67 237.234C1090.56 237.08 1090.56 236.833 1090.46 236.71C1092.52 233.94 1094.65 231.323 1096.69 227.722C1109.28 205.806 1119.78 182.289 1132.3 160.219C1162 107.83 1198.84 59.8112 1230.5 8.83771C1261.9 -41.7049 1290.7 -91.1703 1315.42 -146.884C1341.32 -205.307 1362.72 -265.822 1387.83 -324.583C1390.24 -330.216 1383.35 -334.711 1380.55 -329.324C1328.15 -228.208 1284.81 -119.55 1224.56 -24.4059C1199.78 14.686 1176.95 55.6557 1153.25 95.6712C1140.42 117.341 1126.7 137.626 1115.05 160.189C1108.39 173.086 1100.93 185.398 1093.31 197.557C1101.77 162.158 1112.98 128.053 1126.7 94.7787C1147.15 45.098 1168.02 -4.15173 1191.41 -52.2318C1214.5 -99.6655 1239.61 -145.591 1261.77 -194.102C1284.37 -243.537 1311.52 -288.385 1337.19 -335.511C1338.18 -337.327 1335.8 -338.743 1334.78 -337.081C1304.5 -288.354 1269.52 -243.26 1244.14 -190.624C1232.31 -166.06 1221.57 -140.697 1209.4 -116.349C1197.19 -91.9089 1182.79 -70.4852 1171.11 -45.5526C1147.39 5.14398 1125.55 57.041 1101.9 107.491C1094.36 123.497 1086.42 142.489 1079.61 162.097C1081.53 143.628 1084.56 125.683 1087.05 113.032C1095.56 69.7841 1106.19 29.7687 1120.91 -10.9547ZM1160.58 399.296C1155.53 386.337 1149.59 373.809 1142.96 361.805C1147.31 365.775 1150.89 370.824 1156.89 372.301C1158.59 372.732 1159.96 372.055 1161.53 372.147C1161.74 373.994 1161.66 375.871 1161.79 377.78C1162.08 382.028 1160.92 389.416 1160.56 394.741C1160.45 396.28 1160.66 397.788 1160.58 399.296ZM1109.49 309.292C1114.7 309.2 1119.84 307.076 1124.55 304.275C1124.26 311.016 1123.82 317.818 1124.39 324.467C1124.94 330.746 1127.8 335.826 1129.71 341.489C1121.64 329.485 1112.92 318.496 1103.29 308.461C1105.36 308.553 1107.45 309.323 1109.49 309.292ZM1101.22 249.084C1100.62 248.838 1100.01 248.654 1099.41 248.407C1098.13 247.853 1096.95 247.176 1095.69 246.499C1099.12 246.006 1101.95 243.944 1105.2 242.99C1103.86 244.836 1102.53 246.96 1101.22 249.084ZM1127.56 531.409C1128.03 534.118 1129.4 536.395 1130.65 538.734C1127.72 537.38 1124.94 536.149 1121.78 535.995C1121.41 534.333 1120.99 532.671 1120.57 531.009C1119.68 528.454 1118.37 526.361 1116.64 524.637C1114.94 522.698 1112.64 522.144 1110.54 521.097C1111.38 520.512 1112.53 520.943 1113.29 520.174C1114.21 519.219 1114.23 517.496 1115.07 516.357C1119.84 514.941 1124.55 513.679 1127.27 507.83C1127.93 506.445 1127.88 504.475 1128.11 502.69C1128.56 502.813 1128.98 503.059 1129.42 503.182C1128.61 505.676 1127.17 507.923 1126.91 510.693C1126.75 513.556 1126.62 516.418 1126.49 519.281C1125.91 523.528 1126.28 527.53 1127.56 531.409ZM1125 433.802C1124.03 429.308 1123.74 424.598 1122.27 420.258C1123.29 419.119 1124.71 418.535 1125.6 417.18C1127.72 413.825 1128.56 409.885 1129.4 405.945C1132.43 412.686 1135.73 418.965 1138.53 426.26C1140.26 430.847 1140.6 435.741 1141.96 440.42C1141.47 440.143 1140.97 439.835 1140.47 439.558C1137.93 438.173 1135.39 436.849 1132.93 435.31C1130.34 433.956 1127.64 433.925 1125 433.802ZM1108.21 626.645C1110.49 624.829 1113.16 624.121 1115.28 622.182C1119.52 618.427 1122.8 613.994 1125.18 608.331C1126.17 605.96 1127.04 603.529 1127.85 601.067C1127.88 600.974 1127.88 600.851 1127.9 600.728C1129.16 600.389 1130.55 600.635 1131.78 600.051C1130.73 602.975 1130.1 606.115 1129 609.008C1122.27 626.492 1111.69 640.466 1101.69 654.656C1102.89 651.301 1104.05 647.885 1104.2 644.437C1104.31 641.975 1105.59 637.85 1106.38 634.402C1106.98 631.817 1107.61 629.262 1108.21 626.645ZM1117.87 686.884C1120.47 683.467 1123.27 680.266 1125.6 676.572C1131.52 667.215 1138.51 658.166 1143.12 647.361C1144.11 645.022 1144.98 642.313 1145.97 639.943C1145.13 648.254 1144.37 656.595 1145.29 664.906C1145.84 669.831 1147.54 674.633 1148.72 679.527C1138.17 679.497 1127.88 681.867 1117.87 686.884ZM1119.65 836.511C1123.4 848.516 1127.72 860.336 1132.41 872.064C1127.06 861.906 1121.23 851.194 1114.47 840.544C1116.33 839.528 1117.93 837.958 1119.65 836.511ZM1143.46 550.955C1143.93 551.201 1144.45 551.386 1144.95 551.57C1144.87 552.001 1144.85 552.463 1144.74 552.863C1144.43 552.124 1143.82 551.663 1143.46 550.955ZM953.998 -273.979C961.802 -361.244 968.819 -448.939 979.949 -535.526C985.108 -575.911 985.003 -616.912 992.728 -657.02C996.682 -677.643 1002.97 -697.25 1011.01 -716.119C1019.39 -747.885 1039.44 -762.599 1071.18 -760.26C1082.52 -749.24 1091.35 -736.127 1097.66 -720.859C1126.02 -662.16 1132.07 -586.131 1137.02 -520.167C1143.12 -439.459 1135.21 -347.115 1121.98 -267.823C1108.37 -186.192 1088.07 -103.421 1065.34 -24.7136C1054.24 13.6089 1037.74 49.192 1026.9 87.5452C1016.77 123.251 1011.79 168.561 992.545 199.773C992.256 199.588 992.545 199.126 992.204 198.942C992.047 198.849 991.968 198.634 991.838 198.542C992.885 195.032 993.932 191.708 994.692 187.46C999.222 161.512 1001.26 135.071 1005.64 109.061C1016.01 47.2832 1034.42 -13.6636 1047.06 -74.9796C1059.61 -135.803 1070.11 -194.472 1074.8 -257.05C1079.72 -322.675 1079.8 -388.208 1083.86 -453.803C1084.22 -460.082 1076.42 -461.159 1075.61 -454.91C1060.11 -337.911 1055.44 -218.05 1030.75 -103.021C1020.59 -55.772 1012.87 -7.66101 1003.96 39.9574C999.144 65.752 993.068 90.6538 989.664 116.756C987.7 131.654 984.846 146.399 981.756 161.05C978.011 124.544 977.304 88.0065 979.111 51.0692C981.834 -4.02899 985.081 -58.9116 991.052 -113.887C996.944 -168.092 1005.17 -221.836 1009.88 -276.595C1014.67 -332.402 1025.15 -386.084 1033.5 -441.152C1033.84 -443.245 1031.17 -443.491 1030.78 -441.521C1018.68 -382.883 1001.06 -325.507 994.744 -265.453C991.811 -237.442 990.135 -209.154 986.81 -181.236C983.458 -153.163 977.173 -126.907 974.502 -98.5886C969.081 -41.0895 965.808 16.6562 960.361 73.9399C958.633 92.2855 957.638 113.863 957.743 135.225C953.343 117.033 950.279 98.7183 948.446 85.7595C942.214 42.0503 938.993 0.28064 939.333 -43.9518C939.883 -120.197 947.189 -197.981 953.998 -273.979ZM1055.65 108.815C1053.4 119.865 1051.25 131.716 1049.63 144.213C1049.29 143.69 1049.42 142.982 1049.03 142.489C1047.82 140.889 1046.04 142.551 1044.58 141.874C1048.69 131.162 1052.2 120.019 1055.65 108.815ZM1020.33 207.868C1020.25 207.868 1020.15 207.868 1020.07 207.837C1022.87 207.53 1022.4 208.053 1020.33 207.868ZM1006.27 198.973C1005.53 201.312 1005.19 203.836 1004.54 206.268C1003.88 206.175 1003.25 206.145 1002.63 206.052C1001.61 205.929 1000.56 205.745 999.536 205.622C1002.16 203.898 1003.83 201.004 1006.27 198.973ZM947.896 196.941C946.901 196.51 945.88 195.956 944.859 195.464C944.911 195.31 944.964 195.186 945.016 195.033C945.304 194.14 945.409 193.155 945.645 192.262C946.64 193.924 947.609 195.617 948.682 197.218C948.551 197.187 948.473 197.187 948.342 197.156C948.42 197.187 948.525 197.218 948.577 197.249C948.577 197.249 948.656 197.28 948.708 197.28V197.31C948.656 197.28 948.63 197.28 948.577 197.249C948.027 197.187 947.399 196.849 947.006 196.972C947.556 196.787 947.844 197.126 948.342 197.156C948.211 197.064 948.027 197.002 947.896 196.941ZM917.965 95.7021C919.798 109.277 922.286 123.898 925.69 138.734C925.01 139.165 924.643 140.027 924.093 140.642C923.072 141.289 921.055 143.29 919.982 143.567C920.689 143.043 921.396 142.52 922.103 141.997C921.736 142.151 921.396 142.274 921.055 142.428C920.427 142.366 918.568 143.813 917.049 145.075C918.253 128.822 918.646 112.416 917.965 95.7021ZM699.439 -211.894C678.28 -296.019 656.205 -380.205 638.267 -465.191C629.913 -504.837 616.48 -542.637 610.509 -583.176C607.472 -604.014 606.869 -624.976 608.126 -646C605.56 -679.12 619.308 -701.714 649.422 -713.841C663.485 -708.793 675.897 -700.606 686.686 -689.34C732.015 -647.847 762.313 -580.344 788.394 -521.644C820.29 -449.832 843.046 -360.936 856.663 -281.736C870.646 -200.197 878.843 -114.594 883.451 -31.6701C885.703 8.71472 882.037 49.0377 884.499 89.361C886.803 126.914 896.99 171.024 889.37 208.546C889.003 208.484 889.108 207.899 888.767 207.899C888.584 207.899 888.453 207.714 888.296 207.714C888.113 204.021 888.008 200.45 887.301 196.172C883.032 170.192 876.329 144.829 871.877 118.819C861.376 57.1024 858.522 -7.50708 850.247 -69.8389C842.051 -131.647 832.65 -190.593 816.597 -250.524C799.786 -313.348 778.522 -373.925 760.925 -436.35C759.249 -442.321 751.655 -439.797 752.912 -433.641C776.715 -318.581 811.386 -205.738 826.024 -88.3692C832.047 -40.166 840.558 7.79089 847.838 55.7787C851.792 81.7888 854.306 107.522 859.648 133.163C862.686 147.814 864.833 162.712 866.771 177.641C851.425 145.598 838.83 112.17 828.512 77.2023C813.088 25.0899 798.241 -27.0841 785.854 -80.5509C773.625 -133.279 763.753 -186.622 750.267 -239.32C736.493 -293.063 728.715 -347.331 718.503 -401.998C718.136 -404.091 715.57 -403.106 715.858 -401.105C723.766 -341.482 726.175 -280.535 739.897 -222.205C746.286 -194.995 753.959 -168.123 760.008 -140.82C766.057 -113.363 768.754 -86.2761 775.511 -58.9117C789.232 -3.35175 805.023 51.4697 818.64 106.845C822.961 124.421 828.774 144.429 835.74 163.944C825.946 149.292 817.304 134.086 811.465 123.097C791.484 85.5136 774.908 48.3913 760.82 7.36005C736.466 -63.4673 717.9 -138.604 699.439 -211.894ZM797.926 346.568C797.769 346.291 797.612 345.983 797.455 345.706C795.543 342.659 793.003 340.627 790.306 338.842C793.763 335.087 796.905 331.146 800.204 327.299C800.362 328.592 800.231 329.946 800.676 331.177C800.911 332.963 801.776 334.471 802.483 336.01C799.916 338.657 798.502 342.505 797.926 346.568ZM788.525 149.631C788.368 149.754 788.237 149.815 788.132 149.938C787.635 148.646 787.19 147.384 786.666 146.122C787.294 147.322 787.897 148.43 788.525 149.631ZM818.614 643.637C790.07 611.901 782.083 557.665 771.53 515.372C769.252 506.322 768.126 497.457 766.659 488.592C769.147 494.902 771.504 501.305 773.363 507.861C776.898 520.451 778.522 533.256 786.875 542.89C792.925 549.847 796.565 558.188 797.586 568.192C798.345 575.272 799.655 580.166 802.954 586.414C805.049 590.477 809.789 595.526 811.255 598.758C816.493 610.454 811.255 626.091 817.409 637.634C820.499 643.452 824.977 646.499 829.586 650.316C832.178 652.44 832.702 651.763 832.964 655.857C833.069 657.273 832.781 658.689 832.676 660.074C828.015 654.533 823.301 648.87 818.614 643.637ZM825.501 723.914C823.51 724.068 821.704 723.606 819.635 723.944C818.849 720.497 817.592 717.111 816.362 713.664C819.399 717.111 822.542 720.374 825.501 723.914ZM772.028 205.622C772.761 204.729 773.468 203.836 774.201 202.974C774.777 202.574 775.327 202.174 775.93 201.774C775.982 201.928 776.087 202.051 776.139 202.205C774.725 203.313 773.363 204.329 772.028 205.622ZM484.526 -40.0427C437.547 -108.254 389.757 -176.095 345.528 -246.553C324.893 -279.427 300.146 -308.3 281.502 -343.083C271.865 -360.967 264.533 -380.051 258.85 -400.059C245.652 -429.485 251.021 -456.573 274.876 -481.321C289.541 -482.952 303.655 -481.013 317.272 -475.472C372.657 -457.527 422.647 -408.77 465.829 -366.292C518.673 -314.272 568.663 -242.428 607 -175.356C646.489 -106.314 681.92 -30.9314 713.187 43.6205C728.401 79.9114 738.142 118.818 753.54 154.956C759.196 168.253 766.293 182.074 773.18 196.141C771.74 198.757 769.566 200.758 768.492 203.559C766.948 207.499 766.424 209.869 766.162 211.901C761.16 203.959 756.133 196.079 751.445 187.86C721.619 135.563 697.998 77.1716 670.031 23.2739C642.3 -30.1622 614.463 -80.3659 580.133 -128.538C544.126 -179.019 504.742 -225.438 468.159 -275.18C464.65 -279.951 458.496 -274.195 461.639 -269.116C521.056 -173.51 589.874 -84.8601 641.593 16.9946C662.83 58.8262 686.293 99.3032 708.683 140.365C720.781 162.62 731.491 185.275 744.768 206.545C749.691 214.456 753.88 222.951 758.463 231.17C758.07 232.986 757.704 234.771 757.311 236.587C757.311 236.68 757.337 236.741 757.337 236.833C736.178 215.933 716.381 193.34 697.841 168.869C666.601 127.653 635.884 86.129 607.053 42.3275C578.64 -0.920044 552.113 -45.7374 522.47 -88.3692C492.277 -131.801 467.426 -178.465 440.218 -224.391C439.197 -226.145 437.128 -224.114 438.045 -222.359C464.781 -170.832 486.856 -115.61 518.49 -67.8995C533.259 -45.6448 549.102 -24.2827 563.583 -1.75085C578.09 20.8733 589.403 44.6975 604.565 66.9214C635.334 112.108 667.779 155.633 698.365 200.635C708.106 214.948 719.943 230.831 732.774 245.729C718.948 236.587 706.011 226.43 697.029 218.888C666.313 193.155 638.948 166.314 612.552 134.732C567.066 80.4344 525.403 19.3649 484.526 -40.0427ZM763.7 808.039C755.661 816.719 747.989 825.922 740.525 835.526C746.575 825.676 752.859 814.995 758.751 803.36C760.087 805.36 762.077 806.438 763.7 808.039ZM729.213 542.12C727.196 540.181 725.285 538.057 723.164 536.365C724.342 533.009 725.494 529.562 726.725 526.145C727.746 531.47 728.034 536.826 729.213 542.12ZM692.787 260.689C692.394 261.366 691.818 261.797 691.478 262.505C688.126 258.749 684.827 254.963 681.396 251.3C685.088 254.44 688.755 257.457 692.787 260.689ZM341.888 215.471C276.317 173.578 210.065 132.424 146.248 87.2066C116.5 66.1215 84.2385 50.5771 55.669 26.8448C40.9521 14.6247 27.9374 0.311157 16.2059 -15.6027C-5.55513 -36.8724 -9.40454 -64.2981 4.55289 -97.8803C17.5414 -105.976 31.237 -110.531 45.6657 -111.547C102.648 -119.858 164.71 -97.3262 218.444 -77.5032C284.199 -53.2169 353.776 -9.29224 411.02 35.402C469.966 81.4197 527.262 135.133 580.421 189.954C606.319 216.641 627.976 248.192 653.953 274.663C674.116 295.194 699.072 315.633 717.403 340.443C716.984 340.843 716.539 341.182 716.172 341.612C715.57 342.29 715.229 343.151 714.706 343.859C697.606 330.839 679.746 319.265 662.751 305.968C618.182 271.062 577.305 227.753 533.966 190.539C490.968 153.632 448.86 119.773 401.462 90.7155C351.786 60.273 300.277 35.0941 250.287 5.60577C245.495 2.77393 241.672 10.8693 246.228 14.1629C332.277 75.7559 424.663 126.699 505.632 197.526C538.889 226.614 573.743 253.455 607.76 281.312C626.221 296.395 643.452 312.555 662.647 326.252C673.592 334.071 684.093 342.844 694.437 351.801C664.323 341.889 635.308 328.684 607 312.555C564.761 288.515 522.837 263.983 481.933 236.464C441.606 209.315 402.51 179.827 361.266 153.755C319.21 127.191 281.057 95.2711 240.965 65.1057C239.394 63.936 238.189 66.7371 239.603 67.9684C281.083 103.551 319.446 144.644 364.225 174.502C385.096 188.415 406.699 201.035 427.387 215.348C448.179 229.723 466.405 246.622 487.616 260.35C530.745 288.238 574.896 313.909 617.815 341.705C631.458 350.539 647.563 359.866 664.244 367.869C648.506 365.652 633.265 362.082 622.503 359.157C585.763 349.184 551.72 336.718 517.076 319.419C457.344 289.654 399 251.978 341.888 215.471ZM646.306 408.654C637.403 403.975 628.133 400.066 618.863 396.126C627.242 398.465 636.172 400.651 645.573 402.497C645.442 403.544 645.992 404.467 645.94 405.514C645.94 405.668 645.966 405.791 645.992 405.945C645.966 406.868 646.306 407.699 646.306 408.654ZM293.286 515.649C219.073 506.445 144.467 498.227 70.7786 485.145C36.4219 479.05 1.54144 479.204 -32.5796 470.123C-50.1508 465.475 -66.8316 458.088 -82.8577 448.669C-109.856 438.819 -122.399 415.21 -120.383 377.903C-111.034 364.575 -99.8266 354.202 -86.8643 346.784C-36.9266 313.479 27.7542 306.368 83.8457 300.519C152.507 293.378 231.066 302.643 298.549 318.219C368.022 334.225 438.411 358.05 505.396 384.798C537.973 397.819 568.27 417.242 600.899 429.985C626.195 439.897 655.917 447.561 680.925 462.213C681.344 463.998 681.763 465.506 682.103 467.076C661.259 462.366 640.1 459.812 619.229 454.948C566.673 442.759 514.85 421.12 462.686 406.222C410.942 391.478 361.03 379.135 307.793 373.594C251.963 367.807 196.212 367.715 140.409 362.975C135.093 362.513 134.15 371.716 139.466 372.701C239.001 390.924 340.971 396.403 438.83 425.429C479.027 437.342 519.956 446.484 560.467 456.888C582.437 462.551 603.596 469.693 625.802 473.694C638.503 476.003 651.02 479.389 663.511 482.99C632.453 487.361 601.37 488.223 569.946 486.068C523.072 482.867 476.382 479.05 429.639 472.032C383.524 465.106 337.776 455.441 291.217 449.931C243.714 444.329 198.098 431.986 151.224 422.136C149.417 421.766 149.207 424.906 150.909 425.368C200.795 439.589 249.606 460.304 300.696 467.723C324.526 471.201 348.565 473.14 372.369 477.049C396.225 480.989 418.588 488.408 442.654 491.547C491.57 497.919 540.722 501.766 589.403 508.138C605.036 510.169 623.393 511.339 641.54 511.216C626.064 516.388 610.509 519.989 599.458 522.174C562.247 529.5 526.738 533.286 489.082 532.886C424.113 532.24 357.966 523.683 293.286 515.649ZM633.344 557.203C624.781 557.111 616.139 557.573 607.55 558.065C615.38 556.588 623.576 554.741 632.165 552.494C632.139 554.218 633.187 555.51 633.344 557.203ZM346.13 814.934C274.562 839.836 202.942 865.784 130.615 886.838C96.8866 896.657 64.7296 912.479 30.2419 919.466C12.5136 923.068 -5.31944 923.745 -23.1787 922.267C-51.3554 925.315 -70.6025 909.124 -80.92 873.756C-76.5992 857.227 -69.6598 842.636 -60.0755 829.955C-24.776 776.703 32.651 741.028 82.5887 710.432C143.682 672.94 219.309 646.161 286.687 630.186C356.081 613.748 428.879 604.083 499.426 598.666C533.809 596.018 568.087 600.358 602.418 597.465C624.886 595.587 650.077 589.37 674.221 588.785C679.511 589.893 683.989 592.201 687.89 595.68C667.648 600.697 647.773 607.53 627.478 612.301C574.974 624.675 520.035 628 466.955 637.727C414.372 647.392 364.225 658.412 313.24 677.281C259.767 697.042 208.232 722.036 155.125 742.752C150.045 744.722 152.193 753.648 157.43 752.171C255.315 724.222 351.315 683.437 451.164 666.23C492.198 659.181 532.997 649.177 573.796 640.589C595.923 635.941 617.841 633.017 639.629 626.738C652.093 623.137 664.794 620.643 677.494 618.365C650.234 636.372 621.796 651.147 592.048 663.306C547.714 681.436 503.328 698.92 457.842 713.448C412.984 727.792 367.629 739.427 322.772 755.28C277.05 771.44 230.883 780.582 184.376 792.587C182.569 793.048 183.407 796.034 185.135 795.726C235.859 786.43 287.682 783.598 337.331 767.5C360.454 759.989 383.315 750.971 406.542 743.891C429.901 736.78 452.945 733.579 476.198 725.638C523.465 709.508 570.13 690.978 617.213 674.972C632.139 669.893 649.187 663.091 665.789 654.872C653.324 666.353 640.388 676.542 631.039 683.406C599.092 706.892 567.485 726.346 532.578 742.937C472.401 771.409 408.454 793.233 346.13 814.934ZM682.994 696.734C672.1 701.29 661.39 706.492 650.784 712.34C660.421 705.353 670.581 697.442 680.611 688.423C681.029 691.348 681.894 694.087 682.994 696.734ZM641.121 917.065C594.823 970.501 542.896 1019.44 492.329 1067.52C434.3 1122.71 376.611 1178.92 316.644 1230.91C288.677 1255.17 264.114 1284.22 234.523 1306.2C219.309 1317.5 203.073 1326.15 186.052 1332.8C161.017 1348.28 137.973 1342 116.919 1313.96C115.531 1296.75 117.181 1280.13 121.921 1264.09C137.161 1199.02 178.641 1140.23 214.805 1089.47C259.034 1027.35 320.179 968.593 377.24 923.53C435.976 877.112 500.133 835.464 563.557 798.712C594.404 780.828 627.53 769.377 658.273 751.278C674.352 741.828 691.164 729.146 708.499 718.496C716.224 720.035 724.473 718.712 731.831 712.833C734.345 710.832 736.126 710.524 737.933 710.062C720.388 724.037 703.89 739.797 686.241 753.71C641.75 788.77 592.048 816.534 546.221 849.408C500.761 881.975 458.051 914.726 417.069 955.08C374.123 997.373 334.66 1043.67 292.343 1086.67C288.284 1090.76 293.181 1098.06 297.502 1094.33C378.863 1024.46 454.228 943.599 540.905 882.806C576.493 857.843 610.928 830.232 645.835 803.944C664.742 789.693 684.041 777.134 702.162 761.528C712.506 752.602 723.373 744.568 734.398 736.78C715.072 765.684 693.599 792.125 670.084 816.749C634.994 853.441 599.694 889.578 562.405 923.437C525.612 956.865 487.511 988.016 451.243 1022.86C414.267 1058.35 374.595 1087.59 335.525 1119.57C334.058 1120.81 335.786 1123.18 337.253 1122.13C381.089 1090.73 428.041 1064.78 468.657 1027.57C487.59 1010.21 505.789 991.617 524.905 974.595C544.179 957.512 564.447 944.214 583.354 926.392C621.769 890.224 658.823 852.117 697.134 816.134C709.285 804.714 722.823 790.77 735.471 775.718C727.694 791.94 719.026 807.146 712.637 817.704C690.823 853.872 667.989 886.038 641.121 917.065ZM798.136 1029.17C772.787 1099.38 740.709 1167.96 709.678 1235.1C674.038 1312.17 639.026 1390.05 600.532 1465.06C582.594 1500.06 569.37 1537.95 549.207 1571.56C538.81 1588.83 526.66 1604.16 513.121 1617.95C495.027 1643.53 471.668 1648.09 443.125 1631.65C436.212 1616.38 432.336 1600.28 431.498 1583.35C424.428 1516.37 443.596 1443.39 460.46 1380.26C481.122 1302.97 518.464 1221.18 556.513 1153.86C595.661 1084.58 641.331 1017.23 687.995 954.741C710.699 924.329 737.54 898.874 760.087 868.339C776.165 846.546 792.427 820.382 811.177 799.173C814.293 797.019 817.383 795.018 820.499 794.033C808.767 814.964 798.581 837.096 786.745 857.997C757.075 910.386 720.205 958.435 688.545 1009.38C657.147 1059.92 628.342 1109.42 603.648 1165.13C577.724 1223.55 556.329 1284.07 531.216 1342.83C528.833 1348.46 535.72 1352.96 538.496 1347.57C590.922 1246.45 634.234 1137.8 694.516 1042.65C719.262 1003.56 742.096 962.591 765.769 922.575C778.627 900.905 792.375 880.621 804.002 858.058C810.653 845.161 818.09 832.848 825.736 820.69C817.304 856.088 806.096 890.193 792.375 923.468C771.897 973.149 751.079 1022.4 727.642 1070.48C704.545 1117.91 679.432 1163.84 657.278 1212.35C634.679 1261.78 607.524 1306.63 581.861 1353.76C580.866 1355.54 583.249 1356.99 584.297 1355.33C614.516 1306.6 649.501 1261.51 674.902 1208.87C686.738 1184.31 697.501 1158.94 709.651 1134.63C721.881 1110.19 736.257 1088.76 747.962 1063.83C771.687 1013.13 793.501 961.236 817.147 910.786C824.663 894.78 832.623 875.788 839.432 856.211C837.52 874.68 834.483 892.625 832.021 905.245C823.458 948.431 812.853 988.416 798.136 1029.17ZM863.366 909.524C865.095 900.998 866.64 892.04 868.08 882.591C869.023 883.576 870.384 883.729 871.458 884.56C868.578 892.748 865.933 901.121 863.366 909.524ZM909.9 775.287C906.208 777.38 902.803 779.843 899.425 782.429C897.54 778.52 895.785 774.518 893.612 770.824C898.954 772.979 904.479 773.81 909.9 775.287ZM894.057 715.695C896.099 714.864 898.09 713.941 900.001 712.71C902.253 711.509 904.139 709.786 905.631 707.477C906.208 706.523 906.286 705.353 906.679 704.306C906.967 708.246 906.391 712.556 909.245 715.08C912.021 717.511 914.666 720.097 917.311 722.682C917.756 724.16 918.332 725.545 918.908 726.961C912.257 724.283 905.841 721.02 898.195 717.511C896.728 716.834 895.445 716.28 894.057 715.695ZM965.049 1292.2C957.219 1379.46 950.227 1467.15 939.098 1553.74C933.913 1594.13 934.044 1635.13 926.319 1675.24C922.338 1695.86 916.054 1715.47 908.041 1734.33C899.661 1766.1 879.602 1780.78 847.838 1778.44C836.499 1767.42 827.674 1754.31 821.363 1739.04C793.029 1680.34 786.98 1604.32 782.005 1538.38C775.93 1457.67 783.812 1365.33 797.036 1286.01C810.653 1204.38 830.947 1121.61 853.703 1042.9C864.78 1004.61 881.304 968.993 892.172 930.64C896.073 916.881 899.268 901.336 902.751 886.099C909.271 881.421 914.613 874.003 916.63 862.706C917.153 859.843 919.641 857.658 921.003 855.011C918.62 873.048 916.446 891.148 913.435 909.124C903.065 970.901 884.656 1031.85 872.008 1093.16C859.465 1153.96 848.964 1212.66 844.276 1275.23C839.327 1340.86 839.275 1406.39 835.216 1471.99C834.797 1478.27 842.653 1479.34 843.491 1473.1C858.993 1356.1 863.654 1236.23 888.348 1121.21C898.482 1073.96 906.234 1025.85 915.111 978.227C919.903 952.402 926.005 927.5 929.409 901.428C931.347 886.53 934.227 871.786 937.317 857.135C941.062 893.641 941.769 930.178 939.936 967.115C937.212 1022.21 933.965 1077.1 927.995 1132.04C922.103 1186.25 913.88 1239.99 909.167 1294.75C904.375 1350.59 893.9 1404.24 885.52 1459.31C885.206 1461.4 887.877 1461.68 888.296 1459.67C900.394 1401.04 918.018 1343.66 924.329 1283.61C927.261 1255.6 928.938 1227.34 932.263 1199.39C935.589 1171.32 941.9 1145.06 944.571 1116.74C949.991 1059.24 953.265 1001.47 958.685 944.214C960.414 925.869 961.435 904.291 961.33 882.929C965.703 901.152 968.767 919.435 970.626 932.394C976.859 976.103 980.08 1017.84 979.739 1062.11C979.189 1138.41 971.883 1216.2 965.049 1292.2ZM995.53 889.27C997.258 889.762 998.62 890.317 1000.35 890.47C1000.19 901.182 1000.69 911.986 1001.11 922.76C999.667 912.14 997.887 900.936 995.53 889.27ZM1024.28 666.291C1017.61 665.922 1011.22 665.399 1004.51 665.768C997.075 666.168 990.79 666.322 985.448 671.617C982.332 672.879 978.482 673.186 974.764 673.587C974.476 673.617 974.266 673.248 973.952 673.248V673.217C971.307 670.909 968.034 670.478 965.101 669.093C965.572 668.138 966.018 667.154 966.515 666.199C967.013 663.922 967.51 661.644 967.982 659.335C968.453 655.734 968.113 652.286 967.039 648.962C966.725 646.653 965.965 644.622 964.734 642.775C964.394 641.944 963.661 641.482 963.216 640.713C964.106 640.097 964.996 639.481 965.887 638.896C966.437 638.527 966.594 637.788 967.091 637.419C968.191 638.342 968.662 639.912 969.946 640.528C976.806 643.76 983.405 648.223 991.026 648.5C995.661 648.654 999.824 648.284 1004.28 646.869C1007.31 645.884 1009.83 645.053 1012.42 643.237C1016.03 640.713 1019.15 638.958 1021.64 634.71C1023.29 631.94 1024.39 629.139 1025.09 625.907C1025.15 625.66 1025.04 625.322 1025.12 625.045C1026.17 622.921 1027.61 621.013 1028.18 618.704C1029.1 615.041 1029.31 611.44 1028.89 607.931C1034.63 609.5 1040.7 610.732 1046.04 607.623C1052.56 603.837 1057.09 598.204 1060.21 590.416C1063.46 582.382 1066.1 574.071 1068.04 565.483C1069.56 558.742 1070.82 552.34 1071.26 545.414C1071.55 540.951 1071.39 536.549 1070.71 532.178C1070.55 531.286 1070.42 530.424 1070.27 529.531C1069.24 523.714 1067.91 520.604 1065.16 515.649C1062.46 510.785 1055.97 506.907 1051.02 506.23C1054.53 502.413 1057.51 497.55 1057.83 491.793C1057.8 489.731 1057.75 487.7 1057.72 485.637C1057.2 481.82 1055.86 478.404 1053.87 475.326C1054.34 476.249 1054.84 477.172 1055.31 478.127C1052.41 472.371 1050.65 465.937 1047.72 460.181C1044.97 454.702 1042.4 449.777 1037.77 446.083C1036.54 445.099 1035.31 444.113 1034.13 443.067C1032.22 440.266 1029.97 437.742 1027.01 436.695C1025.36 436.203 1023.73 435.71 1022.11 435.218C1019.54 434.756 1017.06 435.064 1014.67 436.141C1013.05 436.449 1011.56 437.218 1010.27 438.419C1008.1 439.712 1006.27 441.559 1004.83 443.96C1004.77 444.021 1004.77 444.144 1004.7 444.206C1002.81 443.067 1001.4 440.943 999.484 440.789C990.188 440.02 981.049 447.376 980.158 458.857C979.451 467.661 980.499 476.311 980.918 485.022C980.813 491.239 980.211 497.365 980.604 503.613C980.682 504.752 981.18 505.768 981.337 506.876C979.373 508.292 977.356 509.769 975.916 511.863C974.685 513.74 974.345 516.08 973.664 518.265C973.533 518.542 973.297 518.789 973.167 519.066C972.721 518.665 972.433 518.111 971.962 517.711C971.36 517.219 970.783 516.541 970.181 516.11C970.155 516.049 970.207 516.172 970.181 516.11C969.684 515.341 969.108 514.602 968.636 513.833C967.929 512.755 967.458 511.832 968.322 513.525C965.965 509 963.792 504.352 961.435 499.858C961.356 499.704 961.121 499.335 960.937 499.027C961.461 499.766 960.937 498.38 960.754 497.457C960.335 495.241 959.969 492.994 959.654 490.778C959.34 488.561 959.183 486.376 958.973 484.129C959.052 483.144 959.078 482.005 959.104 481.266C959.314 476.311 958.607 472.032 957.14 467.384C956.957 466.768 956.852 466.091 956.617 465.506C956.879 466.183 956.774 465.999 956.931 466.43C956.564 464.583 956.276 462.736 956.041 460.889C955.936 459.904 955.857 458.919 955.726 457.965C955.674 457.473 955.7 457.996 955.674 457.811C955.805 455.933 955.936 454.087 956.145 452.209C956.198 451.717 956.25 451.593 956.276 451.378C956.459 450.701 956.643 450.024 956.879 449.346C957.481 447.623 957.114 445.96 956.983 444.267C958.005 443.867 959.052 443.652 960.099 443.252C959.68 443.406 959.314 443.529 958.895 443.682C959.471 443.498 960.047 443.467 960.623 443.375C961.514 443.96 962.378 444.513 963.399 444.667C965.127 445.375 966.856 445.376 968.662 445.099C968.715 445.099 968.741 445.129 968.741 445.129C967.982 445.16 967.196 445.16 966.437 445.191C967.929 445.16 969.343 445.468 970.81 445.837C971.517 446.084 972.25 446.329 972.983 446.576C975.576 447.776 978.325 448.146 981.101 447.653C982.41 447.222 983.667 446.76 984.95 446.33C987.412 445.037 989.454 443.128 991.052 440.604C992.387 438.696 993.199 436.541 993.514 434.171C994.561 429.307 994.037 424.814 991.811 420.474C990.921 418.38 989.638 416.657 987.988 415.271C985.762 413.332 983.275 412.162 980.499 411.762C975.261 410.408 970.181 409.208 964.761 410.347C961.33 411.086 958.45 413.61 956.172 416.78C955.622 417.426 955.072 418.103 954.522 418.75C954.548 418.657 954.6 418.565 954.653 418.504C954.626 418.596 954.574 418.688 954.522 418.75C954.312 419.212 954.103 419.642 953.893 420.104C954.365 419.55 954.784 418.935 955.176 418.288C954.679 419.181 953.867 419.797 953.527 420.812C953.657 420.566 953.762 420.35 953.893 420.104C951.851 422.536 949.651 424.752 948.315 427.892C947.792 429.123 947.399 430.385 946.928 431.647C946.823 431.924 946.718 432.201 946.587 432.478C944.597 432.54 942.607 433.186 940.774 435.156C934.332 442.267 929.802 452.24 926.738 461.966C925.036 467.384 924.329 472.771 924.46 478.188C922.993 474.402 921.37 470.678 920.139 466.768C919.772 465.629 919.432 464.459 919.091 463.29C918.908 462.582 918.698 461.843 918.489 461.104C918.489 461.104 918.437 460.92 918.411 460.828C918.332 460.52 918.253 460.181 918.227 460.027C918.201 459.904 918.175 459.781 918.122 459.627C918.437 458.242 918.856 456.887 919.013 455.471C919.275 452.609 919.065 449.315 918.751 446.33C918.149 439.866 916.708 433.063 913.226 427.892C906.915 418.565 895.864 415.272 886.542 420.135C883.766 421.428 881.461 423.398 879.602 426.076C877.507 428.199 876.041 430.908 875.019 433.986C875.622 432.755 876.198 431.524 876.8 430.262C876.355 431.154 875.883 432.016 875.386 432.878C875.124 433.309 874.888 433.74 874.627 434.171C873.92 435.341 873.291 436.572 872.794 437.896C872.06 439.096 871.484 440.389 871.013 441.713C870.384 443.898 869.913 446.145 869.337 448.33C867.582 455.041 865.776 461.905 865.199 468.923C864.571 476.495 866.404 484.529 870.437 490.5C872.401 493.64 874.862 496.01 877.821 497.611C880.597 499.827 883.687 501.089 887.144 501.397C889.37 501.335 891.596 501.305 893.821 501.243C898.142 500.412 902.044 498.411 905.5 495.21C906.731 493.948 906.757 491.763 907.805 490.316C910.581 495.333 913.173 500.505 916.001 505.522C918.384 509.77 923.857 510.293 927.288 507.861C930.509 505.553 931.373 500.751 930.404 496.441C931.687 498.688 932.525 501.182 933.887 503.213C935.248 505.214 936.662 507.153 938.103 509.031C938.784 509.923 939.543 510.786 940.198 511.709C940.25 511.955 941.14 513.771 941.271 514.079C943.157 518.85 944.676 523.929 946.797 528.546C949.389 534.148 952.558 539.135 956.826 543.136C961.225 547.261 965.887 547.046 970.836 546.522C971.281 546.676 971.726 546.892 972.224 547.046C975.261 547.877 975.89 548.092 974.135 547.692C974.58 547.969 975.026 548.277 975.497 548.523C977.932 550.432 976.387 550.739 980.944 552.863C984.715 554.648 988.643 554.679 992.623 554.095C999.353 553.171 1005.66 547.076 1008.05 539.689C1008.31 538.827 1007.76 537.996 1007.99 537.134C1012.94 535.102 1017.74 531.932 1019.8 526.114C1022.92 517.403 1020.77 508.477 1018.5 499.919C1018 497.518 1017.87 495.118 1017.74 492.655C1019.39 496.318 1021.06 499.981 1023.1 503.305C1024.68 505.768 1026.59 507.615 1028.89 508.877C1030.57 510.2 1032.53 510.724 1034.5 511.155C1034.39 511.278 1034.21 511.186 1034.08 511.309C1030.15 515.095 1028.73 518.357 1026.3 523.467C1027.27 521.436 1028.24 519.404 1029.21 517.372C1028.42 518.973 1027.61 520.543 1026.8 522.113C1024.7 526.176 1023.39 529.347 1022.06 533.471C1020.85 537.134 1019.7 540.797 1018.55 544.46C1016.27 552.094 1013.39 559.45 1010.04 566.53C1008.52 570.562 1007.92 574.748 1008.31 579.058C1008.05 583.275 1008.75 587.338 1010.38 591.216C1010.82 592.448 1012.32 592.971 1013 594.202C1012.45 594.325 1011.95 594.448 1011.35 594.664C1011.14 594.725 1011.01 594.91 1010.82 595.002C1011.56 594.756 1012.32 594.51 1013 594.233C1013.26 594.726 1013.76 594.941 1014.04 595.403C1012.94 595.587 1011.92 594.541 1010.82 595.002C1009.91 595.464 1009.09 596.018 1008.28 596.603C1008.13 596.634 1007.97 596.665 1007.81 596.696C1008.02 596.511 1008.28 596.357 1008.52 596.203C1008.2 596.418 1007.89 596.511 1007.55 596.696C1005.53 596.388 1003.62 595.557 1001.6 595.926C999.143 596.388 996.63 597.68 994.221 598.635C992.047 599.496 990.24 601.128 988.328 602.605C988.276 602.636 988.224 602.636 988.145 602.636C988.721 602.236 989.297 601.805 989.874 601.405C989.036 601.959 988.145 602.328 987.255 602.759C984.243 602.513 981.206 602.113 978.194 601.928C976.283 601.805 974.842 603.036 973.088 603.498C969.867 598.912 964.604 595.033 959.523 594.91C956.721 594.848 953.946 595.002 951.117 595.126C949.18 595.095 947.216 595.002 945.304 595.249C942.659 595.587 940.093 596.973 937.5 597.927C935.458 598.696 933.442 599.466 931.399 600.266C928.073 601.559 924.721 602.821 921.343 604.021C920.322 604.391 919.222 604.729 918.175 605.037C913.226 606.515 908.983 608.823 905.815 613.779C902.934 618.242 901.285 625.168 902.201 630.739C903.17 636.341 905.501 641.944 909.638 645.268C911.104 646.222 912.518 647.176 913.959 648.131C917.206 649.639 920.584 650.101 924.041 649.485C923.779 650.747 923.517 651.979 923.255 653.21C922.757 656.811 923.098 660.258 924.171 663.583C924.459 665.891 925.271 667.923 926.476 669.77C927.026 671.217 928.047 672.294 928.938 673.433C928.676 673.679 928.335 673.679 928.099 673.925C924.067 677.403 921.055 681.744 919.039 686.946C918.568 687.746 918.646 688.823 918.227 689.654C918.07 689.624 917.887 689.562 917.73 689.562C915.137 689.039 912.335 690.055 910.188 691.625C909.088 692.394 908.538 693.872 907.674 695.01C907.491 693.595 907.648 692.117 907.15 690.793C906.129 688.146 904.636 685.96 902.672 684.206C901.756 683.19 900.761 682.267 899.818 681.251C899.399 680.789 898.98 680.297 898.535 679.866C898.43 679.712 898.299 679.589 898.142 679.497C896.78 678.604 895.445 677.712 894.083 676.819C893.848 676.727 893.586 676.696 893.35 676.603C890.941 675.865 888.663 674.695 886.411 673.433C885.18 672.448 883.87 671.524 882.692 670.385C880.728 668.508 878.476 667.338 876.041 666.846C875.124 666.476 874.181 666.753 873.239 666.599C871.641 660.782 868.054 655.549 863.314 653.394C861.9 652.748 860.355 652.009 858.836 651.455C857.344 648.808 855.458 646.007 854.856 643.421C853.834 639.266 855.589 632.586 855.51 628.123C855.353 620.89 852.368 615.226 848.623 609.962C851.033 610.455 853.389 610.177 855.851 609.839C856.872 611.009 857.893 612.178 858.941 613.348C862.24 616.241 865.959 617.965 870.044 618.55C872.401 618.981 874.836 619.135 877.219 619.412C880.492 619.812 883.373 620.52 886.882 619.719C887.065 619.658 887.275 619.658 887.51 619.596C890.077 620.12 892.643 620.489 895.288 619.812C898.666 619.166 901.703 617.596 904.375 615.134C906.469 613.317 908.041 611.07 909.088 608.362C910.528 605.807 911.392 602.975 911.602 599.835C911.995 595.741 911.497 591.801 910.083 588.015C909.717 587.184 909.088 586.384 908.643 585.552C914.849 587.092 921.239 588.292 927.523 589.031C941.376 590.631 955.988 578.596 956.983 561.513C957.978 544.214 948.342 529.315 933.573 526.853C927.576 525.868 921.71 524.206 915.766 523.067C914.849 522.882 913.697 523.344 912.702 523.252C911.628 521.282 910.764 519.096 909.193 517.588C907.805 515.495 906.05 513.987 903.955 512.971C901.101 510.693 897.906 509.37 894.371 509.062C892.067 509.123 889.762 509.154 887.458 509.215C885.337 509.954 883.216 510.693 881.068 511.432C877.9 512.909 875.255 515.187 873.134 518.204C870.594 520.789 868.735 523.99 867.556 527.807C866.902 530.331 866.718 533.009 866.221 535.626C865.147 536.395 864.073 537.134 863.052 537.996C862.607 538.18 861.664 538.704 861.533 538.766C859.019 540.089 856.505 541.443 853.939 542.675C851.766 542.89 849.566 542.705 847.393 543.444C848.702 543.013 843.7 544.49 843.569 544.829C842.496 545.291 843.046 545.137 845.219 544.367C848.204 543.413 847.969 543.536 844.46 544.706C840.82 545.968 837.73 547.569 834.64 550.401C831.759 553.048 831.236 557.727 829.35 561.513C826.993 557.573 824.296 554.833 821.416 551.17C815.785 543.998 817.383 538.334 816.1 529.008C814.659 518.758 810.286 509.985 807.406 500.258C804.473 490.408 801.776 481.143 800.152 470.832C798.424 459.72 794.312 449.685 793.37 438.388C792.427 427.615 782.79 422.844 774.646 424.475C774.489 424.075 774.568 423.552 774.385 423.152C776.06 422.659 777.867 423.09 779.517 422.259C783.759 420.012 787.137 416.441 790.149 412.347C791.589 411.239 793.553 411.516 794.679 409.916C796.957 406.776 797.9 402.959 798.607 399.05C798.686 398.65 798.293 398.28 798.319 397.849C798.686 396.557 799.052 395.264 799.209 393.909C799.812 392.155 800.178 390.37 800.309 388.523C800.309 388.215 800.335 387.907 800.362 387.63C800.44 386.83 800.519 385.999 800.623 385.198C800.964 382.49 801.461 379.812 802.011 377.165C803.059 373.625 803.635 369.992 803.321 366.268C803.399 364.79 802.745 363.467 802.614 362.02C804.656 364.175 806.515 366.514 809.972 366.976C818.299 368.084 822.987 361.743 824.794 354.417C826.077 354.818 827.334 355.31 828.669 355.587C828.774 355.618 828.879 355.587 828.983 355.618C828.617 358.296 828.198 360.912 827.831 363.559C827.648 364.083 827.569 364.636 827.36 365.129C826.496 367.345 826.208 369.777 825.736 372.116C825.71 372.178 825.71 372.24 825.658 372.301C825.553 372.578 825.239 373.194 825.186 373.317C825.16 373.502 823.484 381.259 823.458 381.412C823.458 381.72 823.458 381.997 823.432 382.274C823.275 387.199 823.38 388.677 823.72 390.462C822.568 390.493 821.442 390.524 820.289 390.554C816.1 391.355 812.355 393.294 809.029 396.372C807.589 398.126 806.149 399.85 804.735 401.574C802.142 405.668 800.571 410.254 800.074 415.333C799.864 416.318 799.785 417.272 799.785 418.288C799.733 420.905 799.55 425.275 800.152 428.415C800.702 431.155 801.435 433.894 802.195 436.542C802.299 437.003 802.456 437.434 802.587 437.865C802.928 438.788 803.294 439.712 803.687 440.604C804.447 442.297 805.337 443.959 806.123 445.652C806.306 446.083 806.489 446.483 806.673 446.914C807.641 449.192 808.636 451.532 810.051 453.471C811.517 455.164 812.957 456.826 814.45 458.519C814.529 458.58 814.607 458.642 814.712 458.704C815.105 459.042 815.471 459.381 815.838 459.75C816.519 460.52 816.807 461.628 817.566 462.336C820.578 464.952 823.956 466.553 827.7 467.076C835.085 468.061 842.208 464.275 846.738 457.442C846.921 457.165 847.078 456.887 847.235 456.61C848.309 454.61 849.435 452.332 850.325 450.177C850.561 449.562 850.771 448.946 850.902 448.299C851.504 445.96 852.42 442.297 852.735 439.373C852.892 438.08 852.787 432.725 852.63 431.432C852.42 430.2 852.106 428.969 851.74 427.769C851.556 426.414 851.242 425.152 850.745 423.983C850.561 423.613 850.404 423.213 850.221 422.844C849.278 420.72 848.335 418.535 847.445 416.38C847.419 416.103 847.393 415.795 847.366 415.518C849.409 415.456 851.478 415.425 853.52 415.364C853.625 415.364 853.73 415.364 853.808 415.333C854.044 415.302 854.28 415.302 854.489 415.241C857.186 414.779 859.831 413.609 862.371 412.624C862.79 412.47 863.157 412.286 863.55 412.07C866.09 410.685 868.473 408.746 870.83 406.991C871.039 406.838 871.249 406.683 871.458 406.53C871.537 406.468 871.615 406.376 871.72 406.314C872.008 406.068 876.748 400.343 876.983 399.973C877.324 399.419 880.519 392.709 880.728 392.124C880.78 391.97 880.859 391.786 880.911 391.632C881.016 391.324 881.095 391.016 881.199 390.739C882.404 386.707 883.19 382.459 883.949 378.304C884.42 375.749 884.656 373.101 884.813 370.485C884.996 367.899 885.023 365.283 885.18 362.698C885.782 358.173 885.389 353.833 884.028 349.646C883.294 345.399 881.697 341.582 879.235 338.226C877.69 335.764 875.543 334.286 873.474 332.686C873.501 332.593 873.553 332.532 873.579 332.44C875.7 326.191 876.329 319.727 875.465 313.078C875.307 311.601 874.496 310.462 874.155 309.077C875.464 305.537 876.905 301.936 876.302 298.026C876.198 297.472 876.145 296.918 876.119 296.333C875.805 295.04 875.464 293.717 875.176 292.424C874.496 290.516 873.501 288.885 872.191 287.622C871.458 286.545 870.542 285.745 869.442 285.221C868.002 284.052 866.325 283.374 864.492 283.19C861.69 282.543 859.648 285.498 856.977 286.391C854.096 284.883 851.425 282.728 848.204 282.297C845.35 281.928 842.679 283.252 839.903 283.775C840.506 283.221 840.951 282.543 841.553 282.02C849.383 275.31 858.653 269.307 867.792 263.367C879.576 260.196 891.805 258.965 905.736 261.027C906.522 261.15 907.36 261.274 908.171 261.397C910.738 264.536 913.723 267.183 917.887 268.415C923.883 270.2 928.728 268.261 932.97 265.06C936.165 265.552 939.386 266.014 942.607 266.475C941.219 269.831 939.438 273.032 939.072 276.879C938.443 281.589 938.862 286.145 940.302 290.485C940.878 293.778 942.423 296.549 943.995 299.319C939.91 298.826 935.851 298.119 931.792 298.272C931.608 297.565 931.425 296.888 931.268 296.18C930.168 294.056 929.068 291.901 927.969 289.746C926.005 286.607 923.543 284.236 920.584 282.636C918.777 281.066 916.761 280.111 914.509 279.804C911.314 278.511 907.988 278.234 904.584 279.003C902.489 279.711 900.446 280.419 898.352 281.127C896.545 282.42 894.738 283.713 892.905 285.006C892.381 285.498 892.25 286.299 891.753 286.822C891.648 286.976 891.491 287.099 891.334 287.222C891.438 287.161 891.517 287.099 891.622 287.037L891.648 287.007C892.381 286.483 893.114 285.991 893.848 285.468C892.591 286.145 891.779 287.499 890.679 288.515C891.046 288.084 891.229 287.468 891.595 287.068C890.81 287.992 890.051 288.946 889.265 289.869C886.28 293.225 883.897 297.287 883.399 302.089C883.059 305.229 883.006 307.599 883.321 311.17C883.556 313.879 885.101 316.156 886.096 318.711C884.604 320.466 882.692 321.82 881.985 324.283C882.221 323.452 882.587 322.312 882.614 322.22C883.085 321.635 883.111 321.574 882.666 322.066C882.352 322.374 882.037 322.713 881.723 323.021C878.267 326.376 877.821 331.024 879.052 335.733C879.209 336.379 879.393 337.026 879.55 337.672C880.414 341.089 883.268 342.382 886.253 342.566L886.306 342.597C886.698 342.751 886.384 342.536 886.437 342.505L886.515 342.474C886.515 342.474 886.201 342.32 886.463 342.536C890.496 346.322 895.995 346.63 900.656 344.444C905.658 342.105 910.345 338.996 915.085 335.979C916.211 335.579 917.363 335.21 918.489 334.81C920.296 333.517 922.129 332.224 923.936 330.931C923.988 330.87 924.041 330.746 924.119 330.685C924.355 330.562 924.59 330.377 924.852 330.254C925.664 329.854 926.502 329.484 927.314 329.115C927.314 329.115 927.314 329.115 927.366 329.085C927.68 328.992 927.995 328.9 928.335 328.807C930.797 328.13 933.337 327.669 935.851 327.361C937.212 327.176 938.574 327.084 939.91 326.991C940.276 326.96 940.643 326.96 941.01 326.93C941.167 326.93 941.324 326.93 941.9 326.93C944.649 326.991 947.425 327.145 950.175 327.361C956.25 327.884 962.64 322.897 963.058 315.325C963.085 314.679 962.666 314.279 962.64 313.663C966.044 314.463 969.37 315.664 972.931 315.048C974.031 315.017 975.13 314.987 976.23 314.956C979.792 314.864 981.625 314.587 985.841 312.432C989.926 310.339 992.309 307.938 995.32 304.767C997.913 302.49 999.903 299.688 1001.21 296.272C1003.05 293.07 1004.09 289.531 1004.35 285.591C1004.35 284.052 1004.3 282.513 1004.28 280.974C1016.3 286.699 1027.92 293.686 1040.94 301.504C1068.12 317.788 1088.75 338.719 1105.91 363.928C1103.78 363.097 1102 361.374 1099.73 361.035C1098.73 360.912 1097.84 361.558 1096.85 361.527C1096.35 360.604 1096.22 359.527 1095.69 358.604C1095.59 358.388 1095.48 358.203 1095.33 357.988C1095.22 357.68 1095.33 357.341 1095.2 357.034C1094.7 355.864 1093.65 355.31 1093.07 354.232C1092.92 353.955 1092.76 353.679 1092.58 353.401C1092.66 353.586 1092.79 353.771 1092.87 353.925C1090.72 349.985 1088.54 346.045 1085.06 343.613C1082.99 342.136 1080.9 340.627 1078.86 339.088C1074.64 335.918 1070.45 332.717 1066.1 329.792C1063.48 327.33 1060.58 325.76 1057.36 325.144C1056.78 324.898 1056.15 325.175 1055.55 324.99C1055.26 324.744 1055.16 324.344 1054.89 324.098C1050.81 320.527 1046.25 318.403 1041.23 317.695C1041.12 317.695 1041.02 317.665 1040.91 317.665C1037.09 316.988 1033.4 317.449 1029.83 319.05C1030.8 318.711 1031.72 318.403 1032.71 318.065C1031.04 318.619 1029.39 318.988 1027.66 319.142C1022.53 320.096 1017.92 322.466 1013.86 326.252C1013.68 326.468 1013.52 326.683 1013.34 326.899C1012.42 326.252 1011.84 325.113 1010.82 324.713C1008.2 323.636 1005.24 323.02 1002.5 322.466C999.484 321.881 996.473 322.99 993.461 323.698C991.68 323.051 989.874 322.497 988.067 322.036C985.212 321.297 982.306 321.082 979.425 321.389C977.068 321.666 975.916 324.067 975.68 326.684C971.779 327.453 967.929 328.407 964.001 328.838C959.392 329.331 954.338 333.332 951.641 337.58C948.787 342.043 947.111 348.969 948.054 354.541C948.996 360.143 951.353 365.745 955.491 369.069C959.261 372.086 963.399 372.701 967.824 372.701C966.908 374.948 965.86 377.165 965.73 379.812C965.756 382.213 965.808 384.613 965.834 387.014C966.489 391.693 968.034 395.88 970.548 399.604C971.936 401.205 973.324 402.805 974.738 404.406C978.037 407.299 981.756 409.023 985.841 409.608C988.957 410.162 991.942 409.792 994.823 408.5C997.729 407.792 1000.35 406.283 1002.65 403.944C1005.11 401.82 1006.95 399.173 1008.2 395.972C1009.93 392.986 1010.9 389.631 1011.16 385.937C1011.11 383.536 1011.08 381.135 1011.03 378.734C1010.9 377.688 1010.22 376.918 1009.96 375.903C1012.16 379.104 1014.7 381.782 1017.84 383.475C1020.88 385.907 1024.33 387.138 1028.03 387.63C1029.05 388.861 1029.94 390.339 1031.14 391.355C1032.03 392.094 1032.9 392.894 1033.76 393.725C1034.89 395.295 1035.96 396.895 1037.38 398.28C1037.9 398.803 1038.4 399.296 1038.92 399.789C1040.36 401.605 1041.7 403.575 1042.85 405.699C1043.29 406.715 1043.82 407.699 1044.21 408.746C1045.73 412.686 1048.64 416.103 1052.09 417.734C1055.44 419.334 1060.08 419.427 1063.38 417.518C1065.26 416.41 1066.31 414.102 1067.75 412.224C1067.91 412.655 1068.3 412.87 1068.46 413.271C1068.28 413.424 1068.04 413.425 1067.88 413.579C1065.63 415.672 1063.98 418.319 1062.88 421.428C1061.99 424.106 1061.96 426.907 1062.07 429.739C1061.96 434.263 1061.44 438.942 1063.3 443.098C1064.11 444.914 1064.98 446.638 1065.74 448.484C1067.31 452.363 1068.54 456.426 1069.59 460.581C1070.58 463.536 1072.1 465.968 1074.14 467.969C1075.9 470.339 1078.02 472.063 1080.58 473.14C1081.03 473.386 1081.53 473.233 1082 473.417C1081.76 473.971 1081.34 474.587 1081.19 475.079C1080.79 476.495 1079.9 480.158 1079.82 481.636C1079.82 481.943 1079.82 482.282 1079.8 482.59C1079.8 483.298 1079.8 484.036 1079.77 484.745C1079.75 486.13 1079.72 487.515 1079.64 488.869C1079.51 491.855 1079.22 494.841 1078.7 497.765C1078.23 501.151 1078.54 504.414 1079.59 507.553C1080.14 510.724 1081.32 513.586 1083.18 516.11C1084.85 518.788 1086.95 520.789 1089.43 522.143C1090.64 523.098 1092.11 523.252 1093.47 523.775C1092.37 524.822 1091.03 525.499 1090.12 526.884C1089.25 528.608 1088.41 530.362 1087.63 532.148C1087.13 533.317 1086.58 534.517 1086.08 535.687C1085.45 537.072 1084.83 538.427 1084.35 539.874C1083.23 543.229 1082.94 546.676 1082.52 550.185C1081.81 556.311 1081.11 562.436 1080.4 568.592C1079.8 573.764 1081.74 579.181 1084.09 583.767C1083.6 584.937 1083.39 586.23 1082.86 587.4C1083.33 586.415 1083.78 585.46 1084.25 584.475L1084.28 584.537C1083.6 585.861 1082.81 587.153 1082.39 588.631C1081.97 590.016 1081.74 591.494 1081.45 592.971C1079.64 600.574 1077.86 608.392 1079.17 616.088C1079.17 616.518 1079.22 616.949 1079.22 617.411V617.319C1079.25 617.996 1079.3 618.642 1079.33 619.319C1079.41 621.966 1079.64 624.583 1080.92 627.138C1081.89 628.985 1083.6 629.878 1084.9 631.293C1084.83 631.817 1084.77 632.34 1084.7 632.863C1084.62 633.386 1084.51 633.91 1084.41 634.464C1084.28 634.618 1084.22 634.587 1083.91 635.08C1084.69 634.156 1084.62 634.218 1083.67 635.264C1083.12 635.787 1082.6 636.341 1082.05 636.834C1080.9 637.88 1079.69 638.865 1078.52 639.82C1076.08 641.728 1073.57 643.483 1071.39 645.791C1068.51 648.808 1066.34 652.779 1063.88 656.442C1055.68 651.64 1047.33 653.671 1040.94 661.52C1043.77 658.042 1040.13 661.921 1039.73 662.352C1039.52 662.567 1039.58 662.567 1039.47 662.69C1038.42 663.183 1037.4 663.921 1036.33 664.445C1035.05 665.091 1031.51 665.615 1035.62 664.876C1033.26 665.307 1030.93 666.015 1028.5 666.261C1027.48 666.384 1022.76 666.23 1027.77 666.445C1026.8 666.353 1025.54 666.384 1024.28 666.291ZM985.396 604.729C986.076 604.267 986.731 603.775 987.386 603.314C987.464 603.283 987.517 603.252 987.595 603.252C986.914 603.806 986.129 604.206 985.396 604.729ZM1005.3 598.635C1005.53 598.481 1005.77 598.327 1006 598.142L1006.03 598.173C1005.82 598.358 1005.56 598.481 1005.3 598.635ZM1036.09 445.868C1035.88 445.437 1035.52 445.099 1035.28 444.698C1035.44 444.883 1035.6 445.068 1035.78 445.252C1035.88 445.437 1035.99 445.683 1036.09 445.868ZM1017.37 492.071C1017.45 492.194 1017.5 492.286 1017.58 492.409C1017.58 493.733 1017.6 495.087 1017.63 496.41C1017.58 494.933 1017.4 493.517 1017.37 492.071ZM955.176 438.357C955.176 438.357 955.15 438.296 955.098 438.234C955.883 439.342 956.879 440.112 957.821 440.974C957.612 440.881 957.455 440.82 957.271 440.728C956.538 439.958 955.857 439.158 955.176 438.357ZM853.73 545.26C855.982 545.938 858.26 546.615 860.486 547.261C861.664 548.031 862.843 548.8 863.995 549.6C863.969 549.846 863.916 550.093 863.864 550.37C860.826 548.523 858.103 546.461 853.73 545.26ZM815.759 459.289C814.921 458.334 814.057 457.349 813.219 456.395C812.591 455.194 811.988 453.994 811.36 452.794C812.381 455.379 814.109 457.288 815.759 459.289ZM1096.19 361.805C1095.98 360.912 1096.11 359.989 1095.8 359.127L1095.85 359.219C1095.96 360.081 1096.06 360.943 1096.19 361.805ZM1004.8 364.206C1004.62 363.99 1004.41 363.744 1004.2 363.498C1004.3 363.467 1004.38 363.406 1004.49 363.375C1004.51 363.683 1004.75 363.898 1004.8 364.206ZM1080.92 734.133C1080.37 736.319 1079.51 738.288 1079.09 740.597C1077.81 739.858 1076.45 739.643 1075.11 738.996C1076.94 737.334 1079.25 735.98 1080.92 734.133ZM1219.63 1230.17C1240.82 1314.3 1262.89 1398.48 1280.81 1483.5C1289.16 1523.15 1302.62 1560.95 1308.56 1601.48C1311.63 1622.32 1312.2 1643.28 1310.95 1664.31C1313.54 1697.43 1299.76 1720.02 1269.68 1732.15C1255.59 1727.07 1243.2 1718.91 1232.39 1707.65C1187.11 1666.15 1156.76 1598.62 1130.7 1539.95C1098.81 1468.11 1076.05 1379.24 1062.46 1300.04C1048.48 1218.51 1040.23 1132.9 1035.65 1049.98C1033.4 1009.59 1037.06 969.27 1034.63 928.947C1033.37 908.323 1029.94 885.73 1028.16 863.321C1028.24 862.644 1028.76 862.552 1028.81 861.875C1029.42 854.918 1030.15 840.267 1032.77 826.754C1037.04 851.132 1043.06 875.049 1047.25 899.489C1057.78 961.236 1060.6 1025.82 1068.88 1088.18C1077.1 1149.99 1086.5 1208.93 1102.5 1268.86C1119.34 1331.72 1140.6 1392.29 1158.17 1454.69C1159.88 1460.66 1167.47 1458.14 1166.19 1452.01C1142.41 1336.95 1107.69 1224.11 1093.07 1106.74C1087.08 1058.54 1078.57 1010.58 1071.26 962.591C1067.31 936.581 1064.82 910.847 1059.48 885.207C1056.44 870.555 1054.29 855.657 1052.35 840.728C1067.67 872.771 1080.24 906.2 1090.59 941.167C1106.01 993.31 1120.88 1045.48 1133.27 1098.92C1145.47 1151.65 1155.35 1204.99 1168.86 1257.69C1182.61 1311.4 1190.38 1365.7 1200.6 1420.37C1200.99 1422.46 1203.53 1421.48 1203.27 1419.47C1195.33 1359.85 1192.92 1298.91 1179.23 1240.61C1172.84 1213.4 1165.14 1186.52 1159.12 1159.22C1153.07 1131.76 1150.34 1104.68 1143.59 1077.31C1129.89 1021.75 1114.1 966.9 1100.46 911.555C1096.16 893.979 1090.38 873.941 1083.39 854.426C1093.15 869.077 1101.79 884.283 1107.66 895.303C1127.64 932.887 1144.19 970.009 1158.28 1011.04C1182.61 1081.74 1201.2 1156.88 1219.63 1230.17ZM1434.55 1058.29C1481.5 1126.5 1529.29 1194.34 1573.52 1264.8C1594.15 1297.67 1618.9 1326.55 1637.57 1361.33C1647.18 1379.21 1654.57 1398.3 1660.22 1418.3C1673.39 1447.73 1668.05 1474.82 1644.2 1499.54C1629.56 1501.17 1615.42 1499.23 1601.8 1493.69C1546.44 1475.74 1496.43 1426.99 1453.24 1384.51C1400.4 1332.49 1350.44 1260.64 1312.07 1193.57C1272.58 1124.53 1237.15 1049.15 1205.89 974.595C1190.67 938.304 1180.93 899.397 1165.56 863.26C1155.63 839.989 1141.49 815.488 1131.8 790.032C1131.05 782.921 1130.47 775.965 1130.31 769.347C1142.23 790.062 1155.71 809.516 1167.6 830.386C1197.43 882.683 1221.07 941.075 1249.02 994.972C1276.75 1048.41 1304.61 1098.61 1338.94 1146.78C1374.92 1197.27 1414.28 1243.68 1450.86 1293.43C1454.37 1298.2 1460.52 1292.44 1457.36 1287.33C1397.94 1191.72 1329.15 1103.08 1277.4 1001.22C1256.16 959.39 1232.7 918.912 1210.34 877.85C1198.19 855.595 1187.5 832.941 1174.23 811.671C1166.66 799.512 1159.8 786.677 1153.15 773.749C1177.74 796.465 1200.26 821.705 1221.18 849.347C1252.39 890.563 1283.14 932.087 1311.94 975.888C1340.41 1019.14 1366.88 1063.95 1396.52 1106.58C1426.72 1150.02 1451.57 1196.68 1478.78 1242.61C1479.82 1244.36 1481.87 1242.33 1480.98 1240.57C1454.24 1189.05 1432.19 1133.83 1400.53 1086.12C1385.79 1063.86 1369.92 1042.5 1355.46 1019.97C1340.93 997.342 1329.62 973.518 1314.46 951.294C1283.71 906.138 1251.27 862.583 1220.66 817.581C1210.94 803.298 1199.05 787.384 1186.27 772.517C1200.07 781.659 1213.01 791.817 1221.99 799.328C1252.71 825.061 1280.07 851.901 1306.47 883.483C1352.01 937.812 1393.64 998.881 1434.55 1058.29ZM1208.61 744.353C1210.47 742.721 1212.3 741.244 1213.77 739.12C1221.34 748.816 1229.32 758.019 1237.7 767.007C1228.88 759.435 1219.16 751.648 1208.61 744.353ZM1577.24 802.806C1642.81 844.699 1709.06 885.853 1772.88 931.071C1802.62 952.156 1834.89 967.731 1863.46 991.432C1878.17 1003.62 1891.19 1017.97 1902.92 1033.88C1924.68 1055.15 1928.53 1082.58 1914.57 1116.16C1901.58 1124.25 1887.89 1128.81 1873.46 1129.82C1816.48 1138.14 1754.42 1115.6 1700.68 1095.78C1634.93 1071.49 1565.35 1027.57 1508.1 982.875C1449.16 936.857 1391.86 883.145 1338.7 828.323C1312.81 801.636 1291.15 770.055 1265.17 743.583C1250.09 728.223 1232.54 712.709 1216.33 695.964C1214.03 689.5 1211.33 683.406 1208.64 677.434C1224.45 689.193 1240.77 700.028 1256.37 712.248C1300.94 747.154 1341.82 790.463 1385.16 827.677C1428.16 864.553 1470.27 898.443 1517.66 927.5C1567.34 957.943 1618.85 983.122 1668.84 1012.61C1673.63 1015.44 1677.45 1007.35 1672.9 1004.05C1586.85 942.46 1494.46 891.517 1413.49 820.69C1380.24 791.601 1345.38 764.76 1311.37 736.903C1292.9 721.79 1275.67 705.66 1256.48 691.963C1245.53 684.144 1235.06 675.372 1224.71 666.445C1254.83 676.357 1283.84 689.562 1312.15 705.661C1354.42 729.701 1396.29 754.233 1437.22 781.752C1477.55 808.901 1516.62 838.389 1557.89 864.43C1599.94 890.994 1638.09 922.914 1678.19 953.079C1679.76 954.218 1680.96 951.448 1679.55 950.247C1638.09 914.664 1599.73 873.572 1554.95 843.714C1534.06 829.801 1512.48 817.181 1491.79 802.868C1471 788.493 1452.77 771.594 1431.56 757.865C1388.43 729.947 1344.28 704.306 1301.36 676.511C1287.72 667.677 1271.59 658.319 1254.91 650.316C1270.62 652.532 1285.89 656.103 1296.65 659.027C1333.39 669 1367.4 681.467 1402.08 698.766C1461.75 728.623 1520.1 766.33 1577.24 802.806ZM2005.94 671.494C1956 704.829 1891.32 711.94 1835.23 717.758C1766.57 724.899 1688.01 715.634 1620.52 700.089C1551.08 684.083 1480.66 660.228 1413.73 633.51C1381.15 620.49 1350.85 601.066 1318.2 588.292C1288.32 576.595 1250.74 570.439 1224.22 548.738C1224.32 548.276 1224.32 547.815 1224.4 547.323C1227.23 548.4 1229.82 549.631 1233.2 550.432C1255.27 555.726 1277.74 558.157 1299.9 563.267C1352.43 575.456 1404.3 597.126 1456.47 611.963C1508.18 626.707 1558.1 639.05 1611.36 644.591C1667.19 650.378 1722.97 650.439 1778.74 655.241C1784.08 655.703 1785 646.5 1779.69 645.515C1680.15 627.323 1578.18 621.813 1480.32 592.786C1440.15 580.874 1399.2 571.732 1358.68 561.328C1336.74 555.664 1315.56 548.523 1293.35 544.521C1280.67 542.244 1268.13 538.827 1255.67 535.225C1286.7 530.855 1317.78 529.993 1349.21 532.117C1396.08 535.318 1442.8 539.135 1489.54 546.153C1535.65 553.078 1581.37 562.775 1627.93 568.254C1675.44 573.887 1721.08 586.199 1767.95 596.049C1769.76 596.418 1769.94 593.279 1768.27 592.817C1718.38 578.596 1669.54 557.88 1618.48 550.462C1594.65 546.984 1570.59 545.045 1546.83 541.135C1522.93 537.226 1500.62 529.777 1476.5 526.668C1427.58 520.297 1378.46 516.449 1329.75 510.077C1314.14 508.046 1295.78 506.876 1277.61 507C1293.09 501.828 1308.67 498.226 1319.69 496.072C1356.88 488.746 1392.41 484.96 1430.04 485.36C1494.93 486.037 1561.08 494.625 1625.76 502.629C1700 511.832 1774.61 520.081 1848.29 533.133C1882.65 539.227 1917.51 539.104 1951.63 548.154C1969.2 552.802 1985.88 560.189 2001.9 569.639C2028.93 579.489 2041.45 603.098 2039.46 640.405C2030.11 653.733 2018.93 664.075 2005.94 671.494Z" fill="#3872FA"/>
</svg>
