<svg width="892" height="917" viewBox="0 0 892 917" fill="none" xmlns="http://www.w3.org/2000/svg">
<path opacity="0.08" d="M794.997 402.21C805.157 408.293 818.078 408.21 829.43 404.781C841.555 401.123 852.301 394.035 862.692 386.802C871.912 380.383 881.236 373.484 887.027 363.846C892.818 354.209 894.24 341.1 887.57 332.069C880.253 322.138 865.472 320.298 853.932 324.668C842.392 329.016 828.594 340.682 828.594 340.682C821.82 347.205 812.537 350.216 803.924 353.979C795.311 357.742 786.509 363.073 783.018 371.812C778.627 382.829 784.837 396.126 794.997 402.21Z" fill="#3F78FA"/>
<path opacity="0.08" d="M566.574 694.564C568.163 682.815 562.978 670.982 555.347 661.908C547.194 652.208 536.448 645.12 525.702 638.43C516.169 632.493 506.154 626.639 495.011 625.134C483.868 623.629 471.262 627.475 465.596 637.176C459.366 647.817 463.505 662.117 472.056 671.003C480.607 679.888 496.788 687.958 496.788 687.958C505.444 691.616 511.883 698.954 518.74 705.394C525.597 711.833 533.981 717.812 543.368 717.561C555.222 717.247 564.985 706.292 566.574 694.543V694.564Z" fill="#3872FA"/>
<path opacity="0.08" d="M748.919 290.11C739.365 283.106 726.487 281.998 714.863 284.36C702.465 286.89 691.092 292.953 680.075 299.204C670.311 304.744 660.381 310.765 653.733 319.818C647.084 328.87 644.45 341.79 650.262 351.407C656.639 361.965 671.189 365.164 683.064 361.881C694.96 358.62 709.783 348.271 709.783 348.271C717.121 342.397 726.654 340.264 735.581 337.295C744.508 334.327 753.77 329.853 758.035 321.469C763.428 310.912 758.474 297.092 748.898 290.089L748.919 290.11Z" fill="#3F78FA"/>
<path opacity="0.08" d="M137.283 912.074C147.443 918.179 160.363 918.074 171.715 914.645C183.841 910.987 194.587 903.9 204.978 896.666C214.197 890.248 223.521 883.349 229.313 873.711C235.104 864.073 236.525 850.965 229.856 841.933C222.539 832.003 207.758 830.163 196.218 834.532C184.677 838.902 170.879 850.547 170.879 850.547C164.106 857.069 154.823 860.08 146.21 863.843C137.596 867.606 128.795 872.937 125.303 881.676C120.913 892.694 127.122 905.99 137.283 912.074Z" fill="#3872FA"/>
<path opacity="0.08" d="M101.867 793.765C92.313 786.761 79.4347 785.653 67.8108 788.015C55.4133 790.545 44.0402 796.608 33.0226 802.859C23.2593 808.399 13.3288 814.42 6.68054 823.473C0.0323168 832.525 -2.60189 845.445 3.21009 855.062C9.58653 865.62 24.1374 868.819 36.0122 865.536C47.9079 862.275 62.7305 851.926 62.7305 851.926C70.0687 846.052 79.602 843.919 88.529 840.95C97.456 837.982 106.718 833.508 110.982 825.124C116.376 814.567 111.421 800.747 101.846 793.744L101.867 793.765Z" fill="#3872FA"/>
<path opacity="0.08" d="M443.603 623.232C434.049 616.228 421.17 615.12 409.546 617.483C397.149 620.012 385.776 626.075 374.758 632.326C364.995 637.866 355.064 643.887 348.416 652.94C341.768 661.992 339.134 674.912 344.946 684.529C351.322 695.087 365.873 698.286 377.748 695.003C389.643 691.742 404.466 681.393 404.466 681.393C411.804 675.519 421.337 673.386 430.264 670.418C439.191 667.47 448.453 662.975 452.718 654.591C458.112 644.034 453.157 630.215 443.582 623.211L443.603 623.232Z" fill="#3872FA"/>
<path opacity="0.08" d="M874.943 876.199C876.532 864.449 871.347 852.616 863.716 843.543C855.563 833.843 844.817 826.755 834.071 820.065C824.538 814.128 814.524 808.274 803.381 806.769C792.237 805.264 779.631 809.11 773.965 818.811C767.735 829.452 771.875 843.752 780.425 852.637C788.976 861.523 805.158 869.592 805.158 869.592C813.813 873.251 820.252 880.589 827.109 887.028C833.967 893.467 842.35 899.447 851.737 899.196C863.591 898.882 873.354 887.927 874.943 876.178V876.199Z" fill="#3872FA"/>
<path opacity="0.08" d="M737.776 834.051C728.222 827.048 715.344 825.94 703.72 828.302C691.322 830.832 679.949 836.895 668.932 843.146C659.168 848.686 649.238 854.707 642.589 863.759C635.941 872.812 633.307 885.732 639.119 895.349C645.495 905.907 660.046 909.105 671.921 905.823C683.817 902.562 698.639 892.213 698.639 892.213C705.978 886.338 715.511 884.206 724.438 881.237C733.365 878.268 742.626 873.794 746.891 865.411C752.285 854.853 747.33 841.034 737.755 834.03L737.776 834.051Z" fill="#3872FA"/>
<path opacity="0.08" d="M16.2557 343.609C10.6319 335.456 7.14052 325.567 7.91406 315.699C8.6876 305.831 14.1233 296.11 22.883 291.49C31.6428 286.869 43.5803 288.291 50.1031 295.754C53.9499 300.166 55.6642 305.999 58.6538 311.016C64.7167 321.239 75.6925 327.532 86.7938 331.818C97.8742 336.104 109.603 338.843 120.16 344.278C128.46 348.564 136.133 354.71 140.356 363.052C144.558 371.394 144.746 382.14 139.185 389.645C133.959 396.711 124.655 399.805 115.854 399.805C100.843 399.805 86.961 392.154 74.4172 383.875C63.3787 376.579 52.6537 368.76 40.2353 363.951C30.3257 360.125 22.2767 352.285 16.2766 343.588L16.2557 343.609Z" fill="#427BFA"/>
<path opacity="0.08" d="M294.687 335.853C292.889 324.145 284.547 314.256 274.679 307.713C264.122 300.73 251.808 296.967 239.598 293.622C228.769 290.632 217.5 287.872 206.399 289.566C195.298 291.259 184.301 298.556 181.604 309.448C178.656 321.427 186.664 333.971 197.389 340.055C208.113 346.159 225.905 349.316 225.905 349.316C235.25 350.362 243.508 355.588 251.912 359.811C260.317 364.034 270.038 367.4 278.986 364.494C290.255 360.836 296.526 347.56 294.729 335.853H294.687Z" fill="#427BFA"/>
<path d="M849.458 847.599C849.458 847.599 849.124 850.568 853.89 858.784C858.657 867 856.399 873.105 852.615 873.92C848.392 874.819 840.385 869.258 839.967 862.045C839.548 854.854 836.203 855.502 835.639 853.244C835.074 850.986 836.224 847.599 836.224 847.599H849.458Z" fill="#11141C"/>
<path d="M818.37 825.271V834.324C818.37 835.536 817.513 836.623 816.301 836.811C814.273 837.125 811.22 837.648 809.234 840.596C806.224 845.049 797.506 850.881 790.168 846.031C789.206 845.383 788.453 843.857 788.746 842.749C789.08 841.432 789.896 839.508 792.3 837.752C796.774 834.47 804.907 829.933 805.178 825.271H818.349H818.37Z" fill="#11141C"/>
<path d="M802.732 828.909L797.109 701.15C797.025 699.268 797.025 697.366 797.109 695.463L797.715 682.334C817.451 693.665 854.81 687.393 854.81 687.393L855.103 687.958C857.047 697.575 857.486 705.268 856.692 715.032L849.96 849.585C849.96 849.585 843.416 854.456 834.949 847.348L829.451 768.364L824.914 713.171L822.656 712.648L818.391 767.047L818.893 828.95C818.893 828.95 812.308 833.257 802.691 828.888L802.732 828.909Z" fill="#A2BDFA"/>
<path d="M823.513 688.878V704.683C820.586 704.223 818.412 701.693 818.412 698.725V688.418L823.513 688.899V688.878Z" fill="#3B75FA"/>
<path d="M822.698 712.69L818.809 711.624L818.412 767.068L819.625 751.639L822.698 712.69Z" fill="#3B75FA"/>
<path d="M804.488 840.177C804.551 840.052 804.614 839.947 804.656 839.822C805.429 838.317 805.053 836.414 803.527 835.536C802.126 834.721 800.015 835.139 799.241 836.665C799.178 836.79 799.116 836.895 799.074 837.02C798.3 838.526 798.677 840.428 800.203 841.306C801.603 842.122 803.715 841.703 804.488 840.177Z" fill="#11141C"/>
<path d="M768.111 620.514C768.111 620.514 756.885 615.204 755.379 611.671C754.271 609.057 753.937 603.329 753.832 600.486C753.791 599.545 754.48 598.75 755.421 598.625L756.697 598.458C759.184 598.144 761.442 599.921 761.756 602.388L762.174 605.754C762.174 605.754 769.638 602.43 771.456 610.709L774.446 613.908L774.091 618.653L768.153 620.514H768.111Z" fill="#F0B387"/>
<path d="M768.446 623.587L764.725 619.364C764.725 619.364 769.826 617.085 773.171 611.587L777.331 615.705L768.446 623.587Z" fill="#E9EBF5"/>
<path d="M808.649 582.59C808.649 582.59 796.628 586.897 792.196 627.35L775.575 613.176C775.575 613.176 772.857 620.472 766.543 622.061C766.543 622.061 786.279 657.727 798.238 657.853C810.217 657.978 811.492 629.901 811.492 629.901L809.945 608.137L808.628 582.569L808.649 582.59Z" fill="#1C1A29"/>
<path d="M856.441 600.361C854.518 593.9 846.74 585.663 832.022 582.778C817.304 579.914 803.004 574.98 799.806 598.793C796.461 623.797 800.224 646.543 800.224 646.543L797.046 682.334L815.36 695.652L819.729 688.627L823.952 696.969L855.291 689.38L853.2 654.445C853.2 654.445 857.57 604.145 856.462 600.361H856.441Z" fill="#262338"/>
<path d="M819.395 581.126C818.642 582.569 819.186 585.14 819.855 586.604C820.524 588.067 820.837 589.426 821.067 591.015C821.151 591.6 821.193 592.228 821.172 592.834C821.13 594.82 822.782 596.472 824.789 596.513C825.102 596.513 825.437 596.513 825.75 596.513C840.259 596.723 843.374 586.646 843.374 586.646C840.657 583.259 839.068 578.848 839.109 574.206L826.796 578.597L819.395 581.105V581.126Z" fill="#F0B387"/>
<path d="M819.165 584.346C821.673 586.019 824.684 586.918 827.695 586.897C829.806 586.897 831.897 586.437 834.008 586.061C836.099 585.684 838.231 585.392 840.343 585.684C841.409 585.831 842.454 586.165 843.395 586.667C840.677 583.28 839.089 578.869 839.13 574.228L826.796 578.618L819.395 581.127C818.956 581.963 818.956 583.175 819.186 584.346H819.165Z" fill="#DE9D72"/>
<path d="M814.524 581.336L816.238 581.921C818.433 582.674 820.795 582.778 823.053 582.235L831.813 580.081C833.36 579.705 834.803 578.994 836.057 578.012C839.319 575.461 845.507 569.921 847.911 563.231C851.214 553.948 850.88 541.844 839.988 538.77C829.095 535.697 812.663 539.251 812.433 551.419C812.433 551.419 811.973 555.203 812.914 557.482C813.855 559.76 812.391 561.935 811.91 563.419C811.471 564.757 811.701 575.022 812.976 579.642C813.206 580.437 813.771 581.064 814.524 581.336Z" fill="#F0B387"/>
<path d="M817.116 582.193C819.06 582.695 821.088 582.715 823.053 582.235L831.792 580.081C833.339 579.705 834.782 579.015 836.057 578.012C839.319 575.461 845.507 569.921 847.89 563.231C849.667 558.213 850.399 552.359 848.956 547.572L833.695 551.795C832.963 551.481 832.106 552.359 831.688 553.028C831.27 553.697 831.186 555.161 831.04 555.955C830.893 556.729 830.684 557.544 830.099 558.088C829.534 558.631 828.636 558.924 828.489 559.677C828.385 560.199 828.74 560.701 829.033 561.14C829.743 562.206 830.329 563.419 830.454 564.715C830.58 566.011 830.183 567.391 829.2 568.227C827.569 569.649 824.851 569.252 823.242 570.715C822.322 571.551 821.966 572.827 821.82 574.039C821.674 575.273 821.695 576.527 821.36 577.719C820.796 579.789 819.144 581.503 817.116 582.172V582.193Z" fill="#E7A477"/>
<path d="M836.768 570.088C835.994 569.586 835.869 567.538 835.137 567.057C834.134 566.388 833.757 565.112 834.071 563.942C834.552 562.206 834.656 560.367 834.343 558.59C833.904 556.018 832.587 553.614 830.705 551.837C836.036 548.513 842.057 546.192 847.974 544.081C850.42 548.596 851.172 553.927 850.002 558.861C849.165 562.353 847.702 565.572 845.674 568.52C845.674 568.52 842.245 573.705 839.172 575.754C839.172 575.754 838.838 571.426 836.768 570.046V570.088Z" fill="#001624"/>
<path d="M836.893 572.973C838.587 572.325 840.092 571.154 841.116 569.67C842.141 568.165 842.705 566.346 842.684 564.527C842.684 564.004 842.622 563.461 842.434 562.959C842.245 562.457 841.932 561.997 841.472 561.726C841.033 561.454 840.489 561.37 839.967 561.433C839.444 561.496 838.963 561.705 838.503 561.976C837.416 562.604 836.559 563.607 836.078 564.757C835.764 565.51 835.597 566.325 835.325 567.098C835.054 567.872 834.615 568.625 833.904 569.043L836.893 572.973Z" fill="#E7A477"/>
<path d="M835.116 534.652C820.273 533.941 812.788 542.596 813.102 547.593C813.415 552.61 831.437 553.07 831.437 553.07C833.256 553.279 834.74 552.756 836.58 551.983C838.796 551.063 841.075 550.248 843.395 549.621C844.942 549.202 846.657 548.847 848.183 549.432C849.27 549.85 850.002 550.854 850.399 551.941C850.671 547.467 849.312 543.37 846.448 540.234C843.583 537.098 839.298 534.861 835.095 534.652H835.116Z" fill="#001624"/>
<path d="M811.889 571.593C811.889 573.328 811.868 575.586 811.848 577.196C811.848 579.475 812.621 580.98 814.064 582.485C815.151 583.635 817.304 584.242 818.538 583.802C821.485 582.778 823.242 581.315 822.343 577.886C821.423 574.457 818.621 571.76 814.67 571.154C814.21 571.091 812.496 571.154 811.91 571.572L811.889 571.593ZM813.102 575.921C813.165 575.21 813.206 574.415 813.771 573.893C814.168 573.517 814.691 573.412 815.213 573.475C816.572 573.642 817.555 574.311 818.224 575.524C818.684 576.36 818.809 577.196 818.914 578.179C818.977 578.806 819.081 580.039 818.099 579.998C817.722 579.998 817.45 579.621 817.262 579.308C817.074 578.973 816.97 578.555 816.844 578.179C816.719 577.823 816.572 577.363 816.363 577.05C816.154 576.736 815.862 576.381 815.506 576.423C814.712 576.485 814.628 577.572 813.834 577.572C813.499 577.572 813.311 577.238 813.206 576.945C813.102 576.653 813.102 576.276 813.144 575.921H813.102Z" fill="#001624"/>
<path d="M767.61 619.134C767.108 619.511 767.003 620.242 767.38 620.744L769.826 623.964C770.202 624.465 770.934 624.57 771.436 624.194C771.937 623.817 772.042 623.086 771.666 622.584L769.219 619.364C768.843 618.862 768.111 618.758 767.61 619.134Z" fill="#E9EBF5"/>
<path d="M847.137 705.833L840.28 694H837.688L845.946 708.279L847.137 705.833Z" fill="#3B75FA"/>
<path d="M840.886 695.045L846.469 704.683C846.469 704.683 850.712 703.575 852.385 698.453L845.423 691.993C845.423 691.993 842.601 692.516 840.886 695.045Z" fill="#F0B387"/>
<path d="M844.545 587.273L841.827 584.242C841.827 584.242 838.9 594.632 824.705 594.13C824.705 594.13 821.632 593.691 821.067 591.036C821.067 591.036 820.294 592.228 820.335 594.402C820.377 596.576 823.241 598.667 823.241 598.667C823.241 598.667 841.305 598.061 844.524 587.273H844.545Z" fill="#1C1A29"/>
<path d="M815.485 662.661C815.485 664.208 818.579 667.762 818.579 667.762C819.562 666.612 823.283 664.689 823.283 664.689C820.147 627.35 826.106 600.716 826.106 600.716C827.13 599.461 827.736 597.914 827.841 596.304V595.991L826.963 594.193L823.785 593.921L822.363 595.552L822.322 595.886C822.133 597.329 822.343 598.792 822.928 600.109L823.012 600.318" fill="#E0732E"/>
<path d="M853.765 647.901L847.786 621.099L854.706 635.797L853.765 647.901Z" fill="#1C1A29"/>
<path d="M854.287 674.515L845.005 691.888L842.141 692.578L854.287 674.515Z" fill="#1C1A29"/>
<path d="M854.622 696.948L852.657 699.603C852.657 699.603 846.385 698.746 844.064 692.286L846.155 689.965L854.622 696.948Z" fill="#E9EBF5"/>
<path d="M882.49 655.491L882.177 654.529L876.469 636.55C874.044 622.877 870.03 613.741 869.11 611.211C864.176 597.706 844.796 587.42 844.796 587.42C844.796 587.42 845.381 589.908 846.155 594.528C848.413 598.312 850.19 602.368 851.214 606.716C853.263 615.225 854.497 632.766 854.497 632.766L864.155 657.205L851.716 679.219L845.193 690.404C846.531 697.366 855.542 698.558 855.542 698.558L863.277 687.875L881.466 661.93C882.72 660.111 883.18 657.728 882.448 655.47L882.49 655.491Z" fill="#262338"/>
<path d="M692.619 561.37V592.353C692.619 592.353 697.469 605.064 707.337 607.51C707.337 607.51 703.323 585.809 707.023 576.924L699.267 564.13L692.619 561.349V561.37Z" fill="#874133"/>
<path d="M711.246 863.927C711.246 863.927 705.141 867.042 698.284 862.003C692.577 857.801 692.117 848.477 692.221 845.78L691.531 856.526H690.214C690.214 856.526 689.943 848.916 689.462 840.972C688.981 833.006 693.957 833.55 693.957 833.55H703.385C703.385 833.55 705.267 840.365 705.601 843.606C705.915 846.846 706.375 847.139 708.654 852.031C709.197 853.223 709.636 854.54 709.992 855.878C711.037 859.934 711.225 863.906 711.225 863.906L711.246 863.927Z" fill="#0F1E23"/>
<path d="M710.013 855.899C707.525 856.965 701.713 857.718 698.723 853.955C695.671 850.129 694.228 836.226 693.977 833.571H703.406C703.406 833.571 705.288 840.387 705.622 843.627C705.936 846.868 706.396 847.16 708.675 852.052C709.218 853.244 709.657 854.561 710.013 855.899Z" fill="#F0B387"/>
<path d="M690.988 666.654C690.988 666.654 676.73 688.92 688.249 720.363C688.249 720.363 692.389 734.914 692.138 748.252C691.908 761.36 686.012 764.956 687.768 788.476C689.524 811.996 691.782 834.156 691.782 834.156C691.782 834.156 700.249 837.125 703.762 834.595C703.762 834.595 708.905 771.876 709.239 768.343C709.574 764.831 713.692 757.911 713.379 747.688C713.065 737.464 717.058 705.519 715.657 692.578C713.671 674.097 703.009 670.648 703.009 670.648L690.988 666.654Z" fill="#7CA4FF"/>
<path d="M734.055 674.745L736.522 675.54C736.522 675.54 737.463 680.976 746.808 680.683C756.153 680.39 758.912 675.456 759.059 674.745C759.205 674.014 758.118 670.397 757.177 669.226C756.236 668.076 752.181 670.606 750.654 670.522C749.128 670.46 751.031 667.7 746.557 667.324C742.083 666.968 740.494 667.616 739.7 667.972C738.905 668.327 735.205 667.679 735.205 667.679L734.055 674.704V674.745Z" fill="#F0B387"/>
<path d="M712.793 598.437C712.793 598.437 718.375 599.712 717.183 632.974C717.183 632.974 715.887 659.295 715.95 659.902C716.013 660.508 739.261 667.24 739.261 667.24C739.261 667.24 739.114 673.407 736.187 676.334C736.187 676.334 721.469 674.515 709.574 670.167C697.678 665.818 704.368 621.267 704.368 621.267L712.793 598.437Z" fill="#192442"/>
<path d="M668.325 848.143C668.325 848.143 666.778 867.648 667.803 872.645C667.803 872.645 669.705 882.408 679.197 883.349C678.36 883.684 684.57 880.485 683.65 872.833C682.73 865.202 679.468 853.913 679.197 848.686L668.304 848.143H668.325Z" fill="#0F1E23"/>
<path d="M683.211 869.635C681.413 871.621 678.695 873.44 674.869 873.063C671.649 872.75 669.245 871.265 667.531 869.572C667.217 862.296 668.325 848.122 668.325 848.122L679.197 848.686C679.427 853.223 681.935 862.338 683.19 869.635H683.211Z" fill="#F0B387"/>
<path d="M665.796 682.941C665.796 682.941 651.537 705.206 663.057 736.649C663.057 736.649 667.196 751.2 666.945 764.538C666.715 777.647 660.82 781.242 662.576 804.762C664.332 828.282 667.74 851.153 667.74 851.153C667.74 851.153 676.207 854.122 679.719 851.592C679.719 851.592 683.712 788.162 684.047 784.65C684.381 781.138 688.5 774.218 688.186 763.995C687.852 753.771 692.472 719.255 691.364 706.293C690.256 693.331 690.382 687.833 690.382 687.833L665.796 682.962V682.941Z" fill="#7CA4FF"/>
<path d="M712.5 680.474L711.685 654.885C711.685 654.885 719.065 651.205 719.462 644.243C719.88 637.281 714.967 628.898 714.549 623.776C714.131 618.654 717.037 601.971 712.793 598.437C705.643 592.5 671.963 600.424 661.531 606.779C651.098 613.135 660.715 638.515 662.555 642.194C664.395 645.874 664.813 683.756 664.813 683.756C664.813 683.756 668.639 696.446 688.124 696.237C707.587 696.028 712.5 680.474 712.5 680.474Z" fill="#D3E0F3"/>
<path d="M691.95 659.233C691.95 659.233 700.291 657.058 703.343 657.936C705.873 658.668 709.657 658.48 709.657 658.48L712.041 666.069L711.685 654.926C711.685 654.926 708.591 656.745 703.093 656.201C697.594 655.658 692.054 658.02 692.054 658.02C692.054 658.02 683.754 661.031 677.42 658.271C677.42 658.271 683.587 661.783 691.95 659.233Z" fill="#9098A6"/>
<path d="M706.647 697.805C715.051 697.721 715.95 692.578 715.95 692.578L711.664 654.884C711.664 654.884 719.044 651.205 719.441 644.243C719.859 637.281 714.946 628.898 714.528 623.776C714.11 618.654 717.016 601.97 712.772 598.437C710.159 596.263 704.033 595.949 696.758 596.723C696.758 596.723 703.385 608.472 706.27 622.145C709.134 635.818 704.577 672.341 705.079 685.345L706.626 697.784L706.647 697.805Z" fill="#212F56"/>
<path d="M682.5 702.906C663.224 709.053 659.461 701.38 659.461 701.38C659.461 701.38 664.395 645.874 662.555 642.194C660.715 638.515 651.098 613.135 661.531 606.779C664.228 605.127 673.719 600.883 679.907 599.964C679.907 599.964 686.388 622.02 686.075 642.968C685.782 663.916 682.5 702.906 682.5 702.906Z" fill="#212F56"/>
<path d="M694.521 587.44L685.469 584.576C685.511 590.012 682.521 596.263 679.991 600.214C679.991 600.214 684.047 609.497 694.312 609.099C696.905 608.995 699.037 607.05 699.392 604.479C699.936 600.486 701.169 594.528 703.887 592.437L694.5 587.44H694.521Z" fill="#F0B387"/>
<path d="M703.908 592.437C703.26 592.939 702.696 593.67 702.194 594.528C701.086 594.904 699.894 595.05 698.723 595.071C696.821 595.113 694.898 594.841 692.995 594.883C688.187 594.946 683.462 596.953 680.033 600.319C679.991 600.256 679.991 600.214 679.991 600.214C682.521 596.263 685.511 590.012 685.469 584.576L694.521 587.44L703.908 592.437Z" fill="#DE9D72"/>
<path d="M692.493 547.822C689.462 547.697 686.43 548.094 683.754 548.868C672.883 551.983 672.528 564.234 675.831 573.621C678.214 580.395 684.402 585.998 687.664 588.569C687.664 588.569 697.406 593.545 704.661 593.189C711.915 592.855 711.434 590.618 711.581 588.987C711.748 587.356 712.25 576.861 711.581 573.893C710.912 570.924 709.825 570.924 710.368 567.809C710.912 564.673 710.117 548.492 692.493 547.781V547.822Z" fill="#F0B387"/>
<path d="M702.361 593.169C695.504 592.583 687.643 588.59 687.643 588.59C684.382 585.998 678.214 580.416 675.831 573.621C673.719 567.621 673.092 560.429 675.768 555.224L690.612 559.614C694.061 561.182 696.194 565.217 695.566 568.959C695.316 570.402 694.709 571.76 694.333 573.182C693.957 574.604 693.831 576.172 694.5 577.468C695.107 578.639 696.319 579.454 696.737 580.708C697.239 582.235 696.424 583.886 696.403 585.496C696.403 588.026 698.305 590.137 700.312 591.705C700.981 592.207 701.65 592.709 702.361 593.169Z" fill="#E7A477"/>
<path d="M685.218 587.566C685.218 587.566 669.433 582.193 672.632 562.332C675.873 542.22 702.361 543.391 708.507 557.461C708.361 558.171 707.776 558.819 707.128 559.175C706.5 559.53 705.769 559.697 705.079 559.907C700.605 561.203 694.981 563.293 691.95 566.827C688.918 570.36 688.479 575.315 687.35 579.851C686.702 582.485 686.284 585.078 685.197 587.566H685.218Z" fill="#874133"/>
<path d="M704.703 552.213C704.703 552.213 710.138 556.562 709.971 561.809C709.971 561.809 708.842 557.544 706.521 557.001L704.703 552.192V552.213Z" fill="#874133"/>
<path d="M673.343 626.807L699.957 641.296L699.308 693.018L672.193 676.565L673.343 626.807Z" fill="#B3B3B3"/>
<path d="M680.786 658.418C680.786 658.418 686.075 660.132 688.165 659.547C690.256 658.961 699.957 656.494 701.608 659.986C703.26 663.477 703.218 674.641 702.235 675.707C701.274 676.774 694.709 676.293 693.455 675.896C692.2 675.498 686.263 670.899 683.064 669.101C679.866 667.303 677.336 667.449 677.336 667.449L680.786 658.397V658.418Z" fill="#F0B387"/>
<path d="M669.831 618.633C669.245 634.062 660.987 652.606 660.987 652.606C669.538 653.693 684.59 658.48 684.59 658.48C686.681 664.919 682.855 669.059 682.855 669.059C651.412 665.735 646.499 658.438 646.499 658.438C642.151 617.086 661.593 606.737 661.593 606.737L669.831 618.633Z" fill="#212F56"/>
<path d="M679.887 599.963C679.887 599.963 684.402 609.162 695.985 617.253C698.389 618.925 701.65 617.253 701.713 614.326C701.796 610.834 701.274 606.298 699.706 602.618L679.908 599.984L679.887 599.963Z" fill="#F0B387"/>
<path d="M672.214 568.185V599.168C672.214 599.168 677.064 611.88 686.932 614.326C686.932 614.326 682.918 592.625 686.618 583.74L678.862 570.945L672.214 568.164V568.185Z" fill="#874133"/>
<path d="M686.618 583.761C685.009 583.154 683.566 582.046 682.605 580.604C681.622 579.182 681.099 577.447 681.12 575.712C681.12 575.21 681.183 574.687 681.35 574.227C681.517 573.746 681.831 573.307 682.249 573.056C682.667 572.806 683.19 572.722 683.692 572.785C684.193 572.847 684.653 573.036 685.071 573.307C686.096 573.914 686.911 574.854 687.392 575.962C687.685 576.673 687.831 577.447 688.103 578.179C688.375 578.91 688.793 579.621 689.462 580.018L686.639 583.761H686.618Z" fill="#E7A477"/>
<path d="M690.507 731.046C690.507 731.046 692.702 715.68 691.552 708.363L693.747 713.171L690.507 731.046Z" fill="#A2BDFA"/>
<path d="M663.057 647.505L665.44 640.668L662.869 652.418L663.057 647.505Z" fill="#192442"/>
<path d="M440.53 458.595L424.641 439.8L424.599 439.549C423.261 391.882 413.017 383.75 413.017 383.75L413.435 387.722C410.968 385.464 407.435 384.44 403.943 385.276C398.32 386.635 394.87 392.28 396.229 397.882L407.644 445.361L407.916 446.49C408.25 447.849 409.045 449.124 410.257 450.023L432.836 466.811C434.906 468.358 437.833 468.316 439.881 466.581C442.265 464.553 442.578 460.978 440.55 458.574L440.53 458.595Z" fill="#A2BDFA"/>
<path d="M368.904 652.605C368.904 652.605 369.239 655.616 364.388 663.999C359.538 672.383 361.838 678.592 365.685 679.407C369.97 680.327 378.124 674.662 378.563 667.323C379.002 659.985 382.389 660.654 382.974 658.355C383.56 656.055 382.368 652.605 382.368 652.605H368.904Z" fill="#11141C"/>
<path d="M400.577 629.859V639.079C400.577 640.313 401.455 641.421 402.689 641.609C404.738 641.943 407.853 642.466 409.881 645.476C412.933 650.013 421.818 655.95 429.282 650.996C430.264 650.348 431.017 648.78 430.724 647.651C430.39 646.313 429.554 644.368 427.087 642.57C422.529 639.246 414.25 634.605 413.978 629.859H400.557H400.577Z" fill="#11141C"/>
<path d="M361.817 400.872C363.761 394.287 371.685 385.903 386.695 382.976C401.685 380.049 416.236 375.053 419.497 399.283C422.905 424.747 419.079 447.89 419.079 447.89L421.651 484.518L400.724 501.097L363.008 491.501L365.141 455.939C365.141 455.939 360.688 404.719 361.838 400.872H361.817Z" fill="#A2BDFA"/>
<path d="M416.508 633.581L422.236 503.501C422.32 501.578 422.32 499.654 422.236 497.71L421.63 484.33C401.539 495.849 363.49 489.494 363.49 489.494L363.197 490.079C361.211 499.864 360.772 507.703 361.587 517.655L368.423 654.654C368.423 654.654 375.072 659.63 383.706 652.375L389.288 571.97L393.908 515.773L396.208 515.251L400.536 570.632L400.013 633.664C400.013 633.664 406.703 638.055 416.508 633.602V633.581Z" fill="#262338"/>
<path d="M395.33 490.978V507.076C398.32 506.616 400.515 504.024 400.515 501.013V490.518L395.33 490.999V490.978Z" fill="#1C1A29"/>
<path d="M399.428 381.283C400.18 382.746 399.637 385.359 398.947 386.865C398.257 388.349 397.943 389.729 397.713 391.36C397.671 391.694 397.63 392.029 397.609 392.363C397.483 394.893 395.518 396.942 392.988 396.983C392.988 396.983 392.947 396.983 392.926 396.983C378.166 397.192 374.988 386.927 374.988 386.927C377.748 383.499 379.378 379.004 379.337 374.258L391.88 378.732L399.407 381.283H399.428Z" fill="#F0B387"/>
<path d="M399.658 384.565C397.107 386.258 394.055 387.178 390.981 387.157C388.828 387.157 386.696 386.676 384.563 386.3C382.431 385.924 380.257 385.61 378.124 385.924C377.037 386.07 375.971 386.405 375.009 386.927C377.769 383.478 379.399 378.983 379.358 374.258L391.901 378.732L399.428 381.283C399.867 382.14 399.867 383.373 399.658 384.565Z" fill="#DE9D72"/>
<path d="M396.166 515.23L400.138 514.142L400.535 570.611L399.302 554.889L396.166 515.23Z" fill="#1C1A29"/>
<path d="M371.288 508.247L378.27 496.205H380.905L372.5 510.735L371.288 508.247Z" fill="#1C1A29"/>
<path d="M373.922 387.533L376.682 384.46C376.682 384.46 379.671 395.06 394.117 394.516C394.117 394.516 397.149 394.056 397.713 391.359C397.713 391.359 398.591 392.572 398.55 394.788C398.508 397.004 395.581 399.136 395.581 399.136C395.581 399.136 377.183 398.509 373.922 387.533Z" fill="#7CA4FF"/>
<path d="M420.167 641.839C420.104 641.713 420.041 641.609 419.978 641.483C419.205 639.978 417.093 639.539 415.693 640.354C414.167 641.253 413.79 643.135 414.564 644.64C414.626 644.766 414.689 644.87 414.752 644.996C415.525 646.501 417.637 646.94 419.038 646.125C420.564 645.226 420.94 643.344 420.167 641.839Z" fill="#11141C"/>
<path d="M448.432 479.313L424.787 463.591L393.615 481.989L416.592 498.776L448.432 479.313Z" fill="#808080"/>
<path d="M444.669 479.563L424.264 465.995L397.379 481.884L417.198 496.372L444.669 479.563Z" fill="#73CCD2"/>
<path d="M448.432 479.313V480.63L416.592 500.323V498.776L448.432 479.313Z" fill="#4D4D4D"/>
<path d="M393.615 481.989V483.494L416.592 500.324V498.777L393.615 481.989Z" fill="#616161"/>
<path d="M401.393 487.194L403.86 488.93C403.86 488.93 406.452 487.926 408.752 489.599C411.031 491.271 411.407 492.526 411.344 493.654C411.281 494.783 411.783 496.811 411.783 496.811L414.647 498.923C414.647 498.923 414.731 501.014 413.644 501.683C413.644 501.683 402.375 506.742 400.243 500.595C398.09 494.449 394.201 492.693 394.201 492.693L401.393 487.194Z" fill="#F0B387"/>
<path d="M394.577 477.954L373.587 454.685L371.915 415.026C371.915 414.775 371.873 414.503 371.852 414.231C371.768 413.458 371.58 412.726 371.329 412.036C372.793 395.938 373.964 387.45 373.964 387.45C373.964 387.45 354.667 397.172 350.235 411.116C349.294 414.085 350.946 424.935 353.078 433.695L356.026 458.804L356.13 459.786C356.339 461.542 357.197 463.215 358.639 464.428L385.295 487.508L394.661 495.766C394.661 495.766 402.71 493.069 402.626 485.71L394.556 477.912L394.577 477.954Z" fill="#A2BDFA"/>
<path d="M398.403 391.924L396.626 391.694C394.368 391.401 392.236 390.481 390.48 389.018L383.706 383.31C382.514 382.307 381.532 381.053 380.842 379.631C379.086 375.951 376.012 368.404 376.807 361.463C377.915 351.846 383.476 341.309 394.431 343.337C405.386 345.365 418.327 355.63 413.247 366.46C413.247 366.46 412.013 369.993 410.194 371.582C408.375 373.171 408.71 375.742 408.501 377.248C408.313 378.606 403.63 387.575 400.515 391.108C399.971 391.715 399.197 392.028 398.424 391.924H398.403Z" fill="#F0B387"/>
<path d="M395.727 391.569C393.804 391.172 391.985 390.293 390.48 389.018L383.706 383.311C382.514 382.307 381.532 381.053 380.842 379.631C379.086 375.973 376.012 368.405 376.807 361.464C377.413 356.258 379.316 350.78 382.661 347.185L394.285 357.554C395.058 357.596 395.434 358.746 395.518 359.519C395.602 360.293 395.037 361.631 394.828 362.384C394.619 363.136 394.452 363.951 394.724 364.662C394.995 365.373 395.664 366.021 395.455 366.753C395.309 367.255 394.786 367.547 394.326 367.819C393.218 368.446 392.194 369.262 391.525 370.349C390.856 371.436 390.605 372.816 391.107 374.007C391.922 375.973 394.494 376.788 395.288 378.795C395.727 379.924 395.497 381.199 395.1 382.349C394.703 383.499 394.138 384.586 393.908 385.778C393.511 387.847 394.222 390.084 395.727 391.569Z" fill="#E7A477"/>
<path d="M383.664 372.356C384.563 372.23 385.567 370.495 386.424 370.391C387.594 370.244 388.493 369.283 388.723 368.112C389.058 366.377 389.769 364.704 390.793 363.282C392.298 361.213 394.494 359.645 396.94 358.913C393.678 353.666 389.372 349.003 385.065 344.571C380.946 347.498 377.957 351.868 376.849 356.739C376.054 360.188 375.95 363.659 376.472 367.15C376.472 367.15 377.246 373.213 379.065 376.37C379.065 376.37 381.239 372.69 383.664 372.377V372.356Z" fill="#001624"/>
<path d="M382.305 374.823C381.072 373.526 380.277 371.833 380.005 370.056C379.755 368.279 380.047 366.439 380.863 364.85C381.093 364.39 381.385 363.93 381.762 363.575C382.138 363.22 382.619 362.948 383.141 362.906C383.643 362.864 384.166 363.031 384.605 363.303C385.044 363.575 385.378 363.993 385.65 364.411C386.319 365.436 386.654 366.69 386.591 367.924C386.549 368.718 386.319 369.512 386.236 370.307C386.152 371.101 386.194 371.958 386.654 372.648L382.305 374.823Z" fill="#E7A477"/>
<path d="M400.515 341.791C413.916 347.603 416.759 358.495 414.313 362.781C411.846 367.066 395.769 359.645 395.769 359.645C394.494 359.185 393.574 358.453 392.633 357.47C390.563 355.317 388.619 353.038 386.361 351.094C385.253 350.153 383.999 349.275 382.556 349.15C381.427 349.045 380.34 349.61 379.525 350.404C381.218 346.348 384.208 343.317 388.096 341.791C391.985 340.264 396.731 340.16 400.536 341.791H400.515Z" fill="#001624"/>
<path d="M364.347 469.215L364.033 474.232L389.455 491.166L364.347 469.215Z" fill="#7CA4FF"/>
<path d="M371.601 432.252L372.291 454.33L384.605 468.63L374.695 453.493L371.601 432.252Z" fill="#7CA4FF"/>
<path d="M449.017 477.494C449.017 477.494 449.101 477.306 449.122 477.222C450.857 472.748 443.331 463.131 443.331 463.131C441.449 460.643 438.857 459.389 438.857 459.389L433.944 466.372L435.763 468.755C435.763 468.755 434.864 471.389 436.62 473.605C438.376 475.821 439.651 476.156 440.78 476.051C441.909 475.947 443.958 476.365 443.958 476.365L447.721 478.895C447.721 478.895 448.516 478.497 448.955 477.619C448.955 477.619 448.976 477.557 448.996 477.515L449.017 477.494Z" fill="#F0B387"/>
<path d="M434.947 451.904L442.118 460.371C442.118 460.371 441.366 466.978 433.651 468.002L425.749 461.5L434.947 451.883V451.904Z" fill="#7CA4FF"/>
<path d="M489.408 664.376C489.408 664.376 495.513 667.491 502.37 662.452C508.078 658.25 508.538 648.926 508.433 646.208L509.123 656.975H510.44C510.44 656.975 510.712 649.365 511.193 641.42C511.674 633.455 506.698 633.999 506.698 633.999H497.248C497.248 633.999 495.367 640.835 495.032 644.075C494.719 647.316 494.259 647.609 491.98 652.501C491.436 653.692 490.997 655.009 490.642 656.347C489.596 660.403 489.408 664.376 489.408 664.376Z" fill="#0F1E23"/>
<path d="M490.642 656.347C493.13 657.413 498.962 658.166 501.931 654.403C504.984 650.577 506.426 636.674 506.677 633.998H497.227C497.227 633.998 495.346 640.835 495.011 644.075C494.698 647.316 494.238 647.608 491.959 652.5C491.415 653.692 490.976 655.009 490.621 656.347H490.642Z" fill="#F0B387"/>
<path d="M516.65 490.205C507.952 488.177 500.74 482.553 492.21 477.452C491.708 477.138 491.269 476.825 490.851 476.469C488.321 479.772 485.834 484.957 484.976 492.943C483.576 505.905 487.59 537.871 487.255 548.094C486.921 558.318 491.06 565.259 491.395 568.771C491.729 572.283 496.872 635.065 496.872 635.065C500.384 637.595 508.851 634.626 508.851 634.626C508.851 634.626 511.109 612.444 512.865 588.904C514.622 565.363 508.726 561.788 508.496 548.659C508.245 535.3 512.385 520.749 512.385 520.749C516.649 509.083 517.381 498.693 516.608 490.226L516.65 490.205Z" fill="#395673"/>
<path d="M486.67 349.965L488.677 348.208C488.677 348.208 487.36 342.689 496.329 339.156C505.297 335.623 509.897 339.156 510.336 339.804C510.775 340.431 511.214 344.299 510.796 345.783C510.378 347.268 505.506 346.515 504.106 347.205C502.705 347.895 505.611 349.735 501.534 351.888C497.457 354.041 495.68 354.083 494.781 354.062C493.883 354.062 490.642 356.153 490.642 356.153L486.691 349.965H486.67Z" fill="#F0B387"/>
<path d="M496.956 428.217C496.956 428.217 505.214 428.28 490.997 398.154C490.997 398.154 477.826 372.481 477.638 371.895C477.45 371.31 494.154 354.501 494.154 354.501C494.154 354.501 491.583 348.899 487.736 347.351C487.736 347.351 474.92 354.836 465.701 363.533C456.46 372.23 486.544 425.604 486.544 425.604L496.976 428.217H496.956Z" fill="#D3D8F5"/>
<path d="M532.371 648.591C532.371 648.591 533.918 668.118 532.894 673.094C532.894 673.094 530.991 682.878 521.479 683.819C522.315 684.153 516.106 680.955 517.026 673.303C517.946 665.672 521.207 654.383 521.479 649.135L532.371 648.591Z" fill="#0F1E23"/>
<path d="M517.486 670.104C519.284 672.09 522.001 673.909 525.827 673.533C529.047 673.219 531.472 671.735 533.165 670.041C533.479 662.766 532.371 648.591 532.371 648.591L521.479 649.156C521.249 653.693 518.74 662.829 517.486 670.104Z" fill="#F0B387"/>
<path d="M534.88 483.306C534.88 483.306 549.138 505.592 537.639 537.035C537.639 537.035 533.5 551.586 533.751 564.945C533.981 578.074 539.876 581.649 538.12 605.19C536.364 628.73 532.956 651.602 532.956 651.602C532.956 651.602 524.489 654.571 520.977 652.041C520.977 652.041 516.963 588.569 516.649 585.057C516.315 581.545 512.175 574.604 512.51 564.38C512.844 554.157 508.224 519.62 509.311 506.637C510.419 493.654 510.294 488.156 510.294 488.156L534.901 483.285L534.88 483.306Z" fill="#395673"/>
<path d="M488.154 480.838L488.969 455.228C488.969 455.228 481.589 451.549 481.192 444.587C480.774 437.625 485.708 429.221 486.105 424.099C486.502 418.976 483.617 402.272 487.861 398.76C495.011 392.823 528.712 400.746 539.165 407.102C549.619 413.457 539.981 438.858 538.141 442.538C536.301 446.217 535.883 484.121 535.883 484.121C535.883 484.121 532.036 496.811 512.552 496.623C493.067 496.414 488.154 480.859 488.154 480.859V480.838Z" fill="#D3D8F5"/>
<path d="M508.726 459.556C508.726 459.556 500.384 457.381 497.311 458.259C494.76 458.991 490.997 458.803 490.997 458.803L488.614 466.392L488.969 455.228C488.969 455.228 492.063 457.047 497.583 456.524C503.081 455.981 508.621 458.343 508.621 458.343C508.621 458.343 516.921 461.353 523.256 458.594C523.256 458.594 517.088 462.106 508.705 459.556H508.726Z" fill="#BDC1DB"/>
<path d="M505.862 387.261L515.082 384.335C515.04 389.875 518.071 396.251 520.643 400.265C520.643 400.265 517.235 408.063 508.768 409.192C504.858 409.715 501.283 406.955 500.656 403.067C500.008 399.136 498.733 394.223 496.308 392.363L505.862 387.261Z" fill="#F0B387"/>
<path d="M496.308 392.342C496.977 392.843 497.541 393.596 498.043 394.474C499.172 394.85 500.384 395.018 501.576 395.039C503.52 395.08 505.465 394.809 507.409 394.83C512.301 394.892 517.109 396.941 520.601 400.349C520.643 400.286 520.643 400.244 520.643 400.244C518.071 396.23 515.04 389.854 515.082 384.335L505.862 387.241L496.308 392.342Z" fill="#DE9D72"/>
<path d="M530.28 359.456C531.995 358.933 533.395 357.595 534.148 355.986C534.901 354.376 535.068 352.515 534.775 350.759C534.503 349.107 533.667 347.372 532.078 346.849C531.054 346.515 529.862 346.745 528.921 346.222C527.96 345.7 527.521 344.571 526.789 343.755C525.346 342.146 522.691 341.999 520.872 343.17C519.054 344.341 518.092 346.578 518.134 348.731L524.448 352.264L530.28 359.456Z" fill="#47270B"/>
<path d="M508.245 348.794C511.339 348.668 514.412 349.087 517.151 349.86C528.232 353.017 528.587 365.519 525.221 375.073C522.796 381.972 516.503 387.659 513.179 390.314C513.179 390.314 503.269 395.373 495.869 395.039C488.468 394.683 488.99 392.405 488.823 390.774C488.656 389.143 488.154 378.418 488.823 375.408C489.492 372.397 490.621 372.397 490.057 369.198C489.492 366.021 490.328 349.526 508.266 348.815L508.245 348.794Z" fill="#F0B387"/>
<path d="M498.189 394.955C505.172 394.37 513.179 390.293 513.179 390.293C516.482 387.659 522.796 381.972 525.221 375.052C527.375 368.948 528.002 361.63 525.284 356.32L510.169 360.794C506.656 362.383 504.482 366.502 505.13 370.307C505.381 371.77 506.008 373.15 506.385 374.613C506.782 376.056 506.907 377.666 506.217 378.983C505.59 380.174 504.357 381.011 503.938 382.286C503.416 383.854 504.252 385.526 504.273 387.178C504.273 389.749 502.329 391.903 500.28 393.492C499.611 394.014 498.921 394.516 498.189 394.976V394.955Z" fill="#E7A477"/>
<path d="M512.635 378.794C512.635 378.794 515.583 382.62 515.521 388.328C515.521 388.808 515.73 389.937 516.064 390.502C516.064 390.502 526.915 386.404 526.643 375.658L520.935 371.665L510.942 376.348" fill="#47270B"/>
<path d="M510.942 376.328C511.193 373.15 508.391 369.951 507.576 369.094C507.451 368.948 507.367 368.76 507.367 368.571C507.806 354.021 492.712 357.157 492.712 357.157C491.29 339.24 508.036 342.794 511.339 344.738C513.179 345.825 516.691 346.954 519.43 347.749C523.298 348.878 526.789 351.115 529.235 354.313C537.639 365.331 527.082 376.369 527.082 376.369C527.082 376.369 523.235 380.843 517.841 380.99C512.468 381.136 510.942 376.349 510.942 376.349V376.328Z" fill="#502C0C"/>
<path d="M514.224 385.38C515.876 384.753 517.319 383.624 518.322 382.182C519.326 380.739 519.848 378.962 519.827 377.206C519.827 376.683 519.765 376.181 519.597 375.68C519.43 375.199 519.117 374.76 518.678 374.488C518.239 374.216 517.716 374.153 517.214 374.216C516.712 374.279 516.232 374.488 515.792 374.739C514.747 375.345 513.911 376.307 513.43 377.436C513.116 378.168 512.97 378.962 512.698 379.694C512.427 380.446 512.008 381.178 511.318 381.575L514.204 385.38H514.224Z" fill="#E7A477"/>
<path d="M520.643 400.266C520.643 400.266 515.604 414.231 502.433 421.778C502.433 421.778 500.175 411.973 500.823 403.903L514.747 401.604L520.643 400.266Z" fill="#F0B387"/>
<path d="M534.483 484.894C534.483 484.894 533.646 486.692 532.434 486.881C531.221 487.069 527.542 485.208 524.97 486.358C522.399 487.508 519.116 491.961 518.573 495.348C518.029 498.734 518.636 499.947 518.636 499.947C518.636 499.947 520.392 501.055 522.378 500.093C524.364 499.132 526.685 495.515 529.904 495.097C533.124 494.679 537.41 494.051 538.099 492.023C538.789 489.996 539.145 488.323 539.145 488.323L534.504 484.874L534.483 484.894Z" fill="#F0B387"/>
<path d="M535.674 495.327C534.525 496.267 532.936 496.602 531.472 496.309C530.009 496.017 528.713 495.139 527.751 494.01C530.281 493.32 532.831 492.63 535.361 491.94C536.594 491.605 537.451 491.25 537.138 492.881C536.95 493.842 536.427 494.72 535.674 495.348V495.327Z" fill="#F0B387"/>
<path d="M537.18 406.015C537.18 406.015 550.811 409.883 564.483 456.148C564.483 456.148 560.846 468.399 538.037 493.362C538.037 493.362 530.134 492.4 532.037 485.585C532.037 485.585 547.298 458.574 548.72 454.434C550.142 450.274 535.319 436.685 533.709 432.043C532.099 427.402 532.288 411.743 532.288 411.743L537.221 406.015H537.18Z" fill="#D3D8F5"/>
<path d="M510.127 530.721C510.127 530.721 508.475 523.634 509.123 511.926L507.597 518.512C507.597 518.512 508.224 525.955 510.127 530.721Z" fill="#293E52"/>
<path d="M144.37 184.282C143.764 181.711 142.488 179.286 140.586 177.467C140.586 177.404 140.607 177.383 140.607 177.383L131.575 167.912L124.3 177.718L130.823 183.592C130.614 184.031 130.425 184.512 130.342 184.993C130.133 186.059 130.154 187.251 130.739 188.171C131.534 189.404 133.164 189.864 134.063 191.056C134.481 191.599 134.858 193.335 135.485 194.338C135.464 194.401 135.443 194.464 135.422 194.526C135.192 195.174 134.92 195.843 134.837 196.533C134.753 197.223 134.837 197.976 135.255 198.519C135.652 199.021 136.279 199.314 136.927 199.397C137.555 199.481 138.203 199.397 138.851 199.314C139.917 199.167 141.025 198.958 141.945 198.373C142.802 197.809 143.408 196.951 143.806 196.011C144.203 195.07 144.391 194.066 144.537 193.042C144.955 190.157 145.039 187.167 144.37 184.324V184.282Z" fill="#F0B387"/>
<path d="M125.889 161.473L117.693 151.668C116.46 102.413 105.881 94.6355 105.881 94.6355C105.881 94.6355 100.383 95.4717 96.8079 96.3289C91.1841 97.6878 87.7346 103.333 89.0726 108.935L100.655 157.125L100.968 158.4C101.303 159.78 102.118 161.034 103.393 161.912L116.293 170.756L124.864 178.512C132.161 178.115 134.356 170.066 134.356 170.066L125.91 161.494L125.889 161.473Z" fill="#17213D"/>
<path d="M47.9079 300.292C47.9079 300.292 46.4026 313.964 47.9079 318.794C49.4131 323.623 52.5909 334.578 46.549 337.129C46.549 337.129 41.9496 338.028 37.1829 330.71C32.4163 323.393 31.8936 314.717 30.242 312.208C28.5904 309.7 26.2489 308.884 25.7889 306.166C25.329 303.449 24.3464 300.647 25.7889 299.455C27.2315 298.243 30.7019 295.985 31.9772 295.901C33.2525 295.818 38.5418 292.515 39.0018 291.971C39.4617 291.448 47.9079 300.271 47.9079 300.271V300.292Z" fill="#11141C"/>
<path d="M101.324 342.668C101.324 342.668 110.522 352.892 115.122 354.982C119.742 357.073 130.007 361.986 127.896 368.216C127.896 368.216 125.512 372.251 116.878 370.934C108.244 369.617 101.428 364.223 98.4594 363.805C95.4907 363.387 93.3164 364.578 90.9958 363.115C88.6752 361.651 85.9365 360.522 85.9783 358.641C86.041 356.759 86.6473 352.662 87.4627 351.658C88.278 350.655 89.3024 344.487 89.1979 343.797C89.1143 343.107 101.324 342.689 101.324 342.689V342.668Z" fill="#11141C"/>
<path d="M114.432 194.589C114.432 194.589 117.359 241.398 105.589 257.224C95.3654 270.96 47.5735 307.337 47.5735 307.337C47.5735 307.337 36.8485 304.305 33.8798 294.939L82.8634 243.175L86.313 197.307L114.411 194.589H114.432Z" fill="#AFB3CF"/>
<path d="M90.1386 197.83C90.1386 197.83 104.125 260.152 104.606 270.667C105.108 281.183 106.843 348.042 106.843 348.042C106.843 348.042 95.0935 352.704 87.9435 349.234L78.682 275.225C78.682 275.225 53.1553 221.203 55.6222 203.119L90.1177 197.809L90.1386 197.83Z" fill="#BABFDC"/>
<path d="M91.0796 202.115L102.85 258.771L93.1075 196.972L89.1562 197.829L91.0796 202.115Z" fill="#9193AB"/>
<path d="M54.0335 112.113C56.0196 105.423 64.0686 96.9144 79.2884 93.9457C94.5082 90.977 109.289 85.8968 112.571 110.504C116.042 136.344 112.362 160.261 112.362 160.261L114.976 197.453L96.2853 210.959L91.6441 199.774L88.6126 212.61L55.2461 204.122L57.4203 168.017C57.4203 168.017 52.9045 116.044 54.0544 112.113H54.0335Z" fill="#212F56"/>
<path d="M92.2084 92.1063C92.9819 93.5907 92.4175 96.2458 91.7276 97.772C91.0377 99.2981 90.7031 100.699 90.4732 102.35C90.4314 102.685 90.3896 103.019 90.3687 103.375C90.2432 105.946 88.2571 108.016 85.6856 108.058C85.6856 108.058 85.6438 108.058 85.6229 108.058C70.633 108.267 67.4135 97.8556 67.4135 97.8556C70.2149 94.3642 71.8665 89.8066 71.8247 84.9982L84.5567 89.5349L92.2084 92.1272V92.1063Z" fill="#F0B387"/>
<path d="M92.4384 95.4302C89.846 97.1446 86.7518 98.0853 83.6368 98.0644C81.4416 98.0644 79.2883 97.5836 77.114 97.1864C74.9606 96.7892 72.7446 96.4965 70.5703 96.8101C69.4832 96.9773 68.3961 97.3118 67.4135 97.8345C70.2149 94.3431 71.8665 89.7855 71.8247 84.9771L84.5567 89.5137L92.2084 92.1061C92.6474 92.9633 92.6474 94.2177 92.4384 95.4302Z" fill="#DE9D72"/>
<path d="M66.3263 98.4406L69.1277 95.3256C69.1277 95.3256 72.1592 106.071 86.8145 105.549C86.8145 105.549 89.8878 105.089 90.4731 102.35C90.4731 102.35 91.3721 103.584 91.3303 105.841C91.2885 108.078 88.3198 110.253 88.3198 110.253C88.3198 110.253 69.6504 109.626 66.3263 98.4824V98.4406Z" fill="#17213D"/>
<path d="M88.5498 111.904C96.6405 150.038 96.3479 174.895 96.3479 176.359C96.3479 177.968 92.9819 182.568 92.9819 182.568C91.623 180.373 88.278 178.449 88.278 178.449C91.5185 139.877 85.3511 112.343 85.3511 112.343C84.3058 111.047 83.6786 109.437 83.5532 107.765V107.43L84.473 105.57L87.7553 105.277L89.2188 106.949L89.2606 107.305C89.4488 108.789 89.2188 110.295 88.6334 111.674L88.5498 111.883V111.904Z" fill="#11A8B1"/>
<path d="M91.4349 104.879L89.5742 104.587C87.2118 104.21 84.9957 103.165 83.2187 101.555L76.2778 95.3462C75.0652 94.259 74.0617 92.9001 73.3927 91.3949C71.6575 87.4854 68.6888 79.4364 69.7759 72.161C71.2603 62.0841 77.4695 51.2128 88.8843 53.7007C100.32 56.1885 113.575 67.4152 107.867 78.6211C107.867 78.6211 106.446 82.3006 104.48 83.9104C102.515 85.5202 102.787 88.238 102.515 89.806C102.264 91.2276 97.0587 100.489 93.651 104.085C93.0656 104.712 92.2294 105.005 91.414 104.879H91.4349Z" fill="#F0B387"/>
<path d="M88.6542 104.399C86.6472 103.918 84.7656 102.935 83.2186 101.555L76.2777 95.3461C75.0651 94.259 74.0616 92.921 73.3926 91.3948C71.6573 87.4853 68.7096 79.4364 69.7758 72.161C70.5911 66.7253 72.7654 61.0388 76.4031 57.3593L88.257 68.6278C89.0724 68.6905 89.4278 69.9031 89.4905 70.7393C89.5532 71.5547 88.926 72.9345 88.6751 73.7289C88.4243 74.5025 88.2152 75.3596 88.487 76.1332C88.7379 76.8858 89.4278 77.5966 89.1769 78.3701C89.0096 78.8928 88.4452 79.1855 87.9643 79.4364C86.7936 80.0636 85.6646 80.8789 84.9329 82.0079C84.2012 83.1159 83.8876 84.5793 84.3684 85.8337C85.1629 87.9244 87.8389 88.8861 88.5915 90.9976C89.0096 92.1893 88.7379 93.5273 88.2779 94.7189C87.818 95.9106 87.1908 97.0395 86.8981 98.2939C86.4172 100.447 87.0862 102.831 88.6124 104.44L88.6542 104.399Z" fill="#E7A477"/>
<path d="M76.6122 83.8063C77.553 83.7227 78.6611 81.9248 79.56 81.8412C80.7935 81.7157 81.7761 80.7331 82.0479 79.5205C82.4451 77.7017 83.2605 75.9665 84.3894 74.503C86.041 72.3706 88.4034 70.8235 90.9958 70.1127C87.7553 64.4889 83.365 59.4504 79.0165 54.642C74.5843 57.5689 71.302 62.0637 69.9849 67.144C69.0441 70.7399 68.8142 74.3776 69.2532 78.0571C69.2532 78.0571 69.8595 84.4544 71.6574 87.8204C71.6574 87.8204 74.0617 84.0363 76.6122 83.7854V83.8063Z" fill="#A06A48"/>
<path d="M75.1069 86.3565C73.8734 84.9557 73.0581 83.1369 72.849 81.2762C72.64 79.4156 73.0163 77.4713 73.9153 75.8197C74.187 75.3388 74.4797 74.8789 74.8979 74.5026C75.316 74.1263 75.8177 73.8754 76.3613 73.8336C76.9049 73.7917 77.4484 74.0008 77.8875 74.3144C78.3265 74.628 78.6819 75.0461 78.9537 75.527C79.6227 76.635 79.9363 77.9521 79.8108 79.2483C79.7272 80.0846 79.4763 80.8999 79.3509 81.7571C79.2255 82.6142 79.2673 83.4923 79.7063 84.224L75.0651 86.3774L75.1069 86.3565Z" fill="#E7A477"/>
<path d="M95.3653 52.2792C109.247 58.8438 111.881 70.3632 109.143 74.7745C106.404 79.1857 89.7624 70.8441 89.7624 70.8441C88.4453 70.3214 87.4836 69.5061 86.5428 68.4608C84.4522 66.1402 82.487 63.6732 80.1664 61.5617C79.0374 60.5372 77.7621 59.5756 76.236 59.3874C75.0443 59.2411 73.8945 59.8055 72.9955 60.6C74.9189 56.3978 78.1594 53.3036 82.2779 51.8402C86.4174 50.3768 91.414 50.4186 95.3444 52.2792H95.3653Z" fill="#633F25"/>
<path d="M83.595 150.059L74.3126 151.668L67.4135 134.107L75.4833 148.386L83.595 150.059Z" fill="#17213D"/>
<path d="M79.4764 281.873L78.682 275.225L70.2358 255.949L76.3405 276.145L79.4764 281.873Z" fill="#9193AB"/>
<path d="M126.641 146.776C125.7 145.145 123.944 144.183 122.293 143.326C120.704 142.49 119.073 141.654 117.296 141.57C114.139 141.403 111.484 143.577 108.683 145.187L96.1597 147.403L98.1458 160.428L110.313 157.438C112.111 157.501 113.909 157.814 115.603 158.421C117.714 159.173 119.867 160.365 122.063 159.905C123.568 159.571 124.843 158.462 125.638 157.145C126.432 155.828 126.829 154.302 127.122 152.776C127.498 150.769 127.666 148.574 126.641 146.797V146.776Z" fill="#F0B387"/>
<path d="M106.132 146.964C105.902 146.358 105.589 145.731 105.589 145.731L107.826 145.333C108.118 145.522 108.348 146.002 108.495 146.4C109.644 146.504 110.564 147.131 110.773 148.051C110.941 148.846 110.543 149.661 109.77 150.246C110.794 153.654 109.916 157.501 109.916 157.501L107.052 158.212C107.763 156.476 107.157 152.525 106.885 150.957C105.86 150.79 105.045 150.205 104.857 149.326C104.669 148.428 105.191 147.529 106.132 146.943V146.964Z" fill="#012943"/>
<path d="M56.5632 156.79L57.3786 168.017L56.6259 180.791L59.9919 170.379L58.6957 161.076L56.5632 156.79Z" fill="#17213D"/>
<path d="M98.8984 146.546L85.1211 149.807L74.3334 151.584L63.6294 123.946C65.1137 107.221 67.3925 97.8551 67.3925 97.8551C67.3925 97.8551 46.7789 108.266 42.2631 122.441C40.9669 126.518 39.8798 129.298 56.7512 157.146L61.037 166.031C62.7722 169.564 66.9535 171.299 70.7376 169.919L87.8181 164.379L102.808 159.487C102.808 159.487 105.087 151.062 98.8775 146.567L98.8984 146.546Z" fill="#212F56"/>
<path d="M232.344 292.388V301.42C232.344 302.632 231.487 303.72 230.274 303.908C228.246 304.221 225.215 304.744 223.229 307.692C220.239 312.145 211.521 317.957 204.204 313.107C203.242 312.458 202.511 310.953 202.782 309.824C203.117 308.507 203.932 306.605 206.336 304.849C210.81 301.587 218.922 297.03 219.194 292.388H232.344Z" fill="#11141C"/>
<path d="M163.165 133.605C152.314 134.211 149.931 123.424 149.931 123.424C151.29 122.901 152.879 123.068 154.154 123.967L156.914 125.932C156.914 125.932 159.485 118.197 166.824 122.441L171.193 122.399L174.433 125.87L171.778 131.493C171.778 131.493 167.2 132.518 163.186 133.584L163.165 133.605Z" fill="#F0B387"/>
<path d="M158.586 100.489L140.92 89.4297L150.036 123.152L167.137 136.344L158.586 100.489Z" fill="#D3D8F5"/>
<path d="M162.893 133.479C162.956 132.601 162.956 132.079 162.81 131.222C162.496 129.507 162.12 127.751 161.283 126.225C160.97 125.64 160.573 125.075 160.175 124.552C159.339 123.444 158.377 122.399 157.186 121.667C155.994 120.936 154.552 120.559 153.193 120.852C151.834 121.145 150.203 122.086 149.91 123.444L155.743 130.448L162.893 133.5V133.479Z" fill="#F0B387"/>
<path d="M169.353 120.915L166.28 121.145C166.28 121.145 163.897 126.978 167.911 133.647L171.067 132.748L169.332 120.915H169.353Z" fill="#A8B3F5"/>
<path d="M227.389 50.251C221.744 49.0594 216.183 52.6762 214.992 58.3209L203.598 112.364L168.893 120.685C166.656 127.751 169.897 133.584 169.897 133.584L212.817 128.106L213.173 128.065C216.142 127.605 218.713 125.493 219.549 122.399L219.8 121.458L235.355 63.1921C235.396 63.0248 235.438 62.8157 235.48 62.6485C236.672 57.0038 233.055 51.4427 227.41 50.251H227.389Z" fill="#002238"/>
<path d="M263.39 314.675C263.39 314.675 263.055 317.644 267.822 325.839C272.568 334.055 270.331 340.139 266.547 340.954C262.345 341.853 254.337 336.292 253.919 329.1C253.501 321.908 250.156 322.557 249.592 320.299C249.027 318.041 250.177 314.675 250.177 314.675H263.39Z" fill="#11141C"/>
<path d="M216.727 296.026L211.103 168.497C211.02 166.616 211.02 164.713 211.103 162.832L211.71 149.723C230.672 163.229 268.7 154.783 268.7 154.783L268.993 155.347C270.937 164.943 271.376 172.616 270.582 182.379L263.871 316.702C263.871 316.702 257.348 321.574 248.902 314.465L243.425 235.628L238.888 180.518L236.63 179.996L232.386 234.29L232.888 296.089C232.888 296.089 226.323 300.395 216.727 296.026Z" fill="#002238"/>
<path d="M212.148 161.515H268.47V139.96L211.709 147.424L212.148 161.515Z" fill="#002238"/>
<path d="M237.717 145.5L237.487 173.013C234.56 172.553 232.386 170.023 232.386 167.055L232.616 145.019L237.717 145.479V145.5Z" fill="#001D30"/>
<path d="M236.651 179.996L232.783 178.929L232.386 234.29L233.598 218.882L236.651 179.996Z" fill="#001D30"/>
<path d="M263.453 164.191L264.582 125.848L260.003 164.692L263.453 164.191Z" fill="#002238"/>
<path d="M270.519 67.9167C268.616 61.4567 260.839 53.2405 246.142 50.3763C231.445 47.5121 217.166 42.5991 213.988 66.3697C210.643 91.3319 214.406 114.015 214.406 114.015L210.434 159.905C210.434 159.905 227.285 165.299 231.508 162.1C235.48 159.11 234.936 142.511 234.936 142.511C234.936 142.511 234.665 159.006 238.574 162.1C244.721 166.992 269.975 160.699 269.975 160.699L267.279 121.897C267.279 121.897 271.648 71.6799 270.519 67.8958V67.9167Z" fill="#002944"/>
<path d="M233.348 47.9091C232.616 49.3099 233.139 51.8604 233.808 53.303C234.477 54.7455 234.79 56.0835 234.999 57.6515C235.041 57.9651 235.083 58.2996 235.083 58.6341C235.208 61.0801 237.09 63.0453 239.536 63.0871C239.536 63.0871 239.578 63.0871 239.599 63.0871C253.857 63.2962 256.909 53.3866 256.909 53.3866C254.233 50.0625 252.665 45.7349 252.707 41.1564L240.602 45.4631L233.327 47.9091H233.348Z" fill="#F0B387"/>
<path d="M233.139 51.0661C235.606 52.6967 238.553 53.5957 241.522 53.5748C243.613 53.5748 245.662 53.1149 247.71 52.7386C249.759 52.3623 251.871 52.0696 253.941 52.3832C254.986 52.5295 256.01 52.8431 256.93 53.3448C254.254 50.0207 252.686 45.6931 252.728 41.1146L240.623 45.4213L233.348 47.8883C232.93 48.7036 232.93 49.8953 233.139 51.0451V51.0661Z" fill="#DE9D72"/>
<path d="M228.56 48.118L230.253 48.7034C232.407 49.456 234.727 49.5606 236.943 49.017L245.536 46.9054C247.041 46.5291 248.484 45.8392 249.717 44.8775C252.916 42.3688 259 36.9331 261.341 30.3685C264.582 21.2533 264.247 9.35761 253.543 6.34709C242.839 3.33657 226.699 6.80703 226.469 18.7655C226.469 18.7655 226.03 22.4868 226.95 24.7238C227.87 26.9608 226.448 29.1141 225.968 30.5567C225.549 31.8529 225.758 41.9715 227.013 46.5082C227.222 47.2818 227.786 47.9089 228.539 48.1598L228.56 48.118Z" fill="#F0B387"/>
<path d="M231.11 48.9754C233.013 49.4772 235.02 49.4772 236.943 49.0173L245.536 46.9057C247.041 46.5294 248.484 45.8395 249.717 44.8778C252.916 42.369 259 36.9334 261.341 30.3688C263.097 25.4349 263.808 19.7065 262.386 14.9817L247.417 20.1874C246.707 19.8738 245.849 20.3337 245.431 21.0027C245.013 21.6508 244.93 22.4453 244.783 23.2188C244.637 23.9923 244.428 24.7868 243.863 25.3094C243.32 25.8321 242.421 26.1248 242.274 26.8774C242.17 27.4001 242.525 27.8809 242.818 28.32C243.529 29.3862 244.093 30.5569 244.219 31.8322C244.323 33.0866 243.947 34.4455 242.985 35.2818C241.375 36.6825 238.72 36.2853 237.132 37.7278C236.233 38.5432 235.877 39.7975 235.731 40.9892C235.584 42.2018 235.605 43.4143 235.292 44.5851C234.748 46.613 233.097 48.3064 231.11 48.9754Z" fill="#E7A477"/>
<path d="M244.449 19.1631C246.31 20.8984 247.585 23.2817 248.024 25.7905C248.463 28.3201 248.066 30.9752 246.895 33.254C248.463 33.6931 249.738 34.5711 250.595 35.9719C251.452 37.3517 251.954 38.9197 252.477 40.4667C253 42.0138 251.996 43.9163 253.355 46.3205C253.648 42.8082 257.139 38.4597 259.146 35.5746C261.153 32.6686 262.596 29.5118 263.411 26.0831C264.561 21.2329 263.829 15.9854 261.425 11.5532C255.613 13.623 249.696 15.9017 244.449 19.1631Z" fill="#874133"/>
<path d="M250.533 39.881C252.205 39.2538 253.669 38.1039 254.693 36.6196C255.696 35.1352 256.24 33.3582 256.24 31.5603C256.24 31.0376 256.177 30.5149 256.01 30.0132C255.843 29.5114 255.508 29.0724 255.069 28.8006C254.63 28.5288 254.087 28.4452 253.585 28.5079C253.083 28.5706 252.581 28.7797 252.142 29.0306C251.076 29.6578 250.24 30.6404 249.759 31.7693C249.445 32.501 249.299 33.3164 249.027 34.069C248.756 34.8216 248.316 35.5743 247.627 35.9715L250.553 39.8392L250.533 39.881Z" fill="#E7A477"/>
<path d="M248.777 2.2496C251.787 2.29142 254.839 3.08586 257.306 4.82109C259.773 6.55631 261.529 9.29505 261.801 12.2847C261.801 12.2847 257.118 19.6437 245.181 20.3336C245.181 20.3336 227.473 19.8946 227.159 14.9607C226.846 10.0477 234.184 2.06145 248.777 2.2496Z" fill="#874133"/>
<path d="M229.292 4.29822C229.292 4.29822 224.149 12.9953 227.807 16.3821L232.072 12.7235C232.072 12.7235 229.417 7.87321 229.271 4.29822H229.292Z" fill="#874133"/>
<path d="M233.055 3.25305C233.055 3.25305 228.351 7.39251 230.044 14.2498L234.748 11.971C234.748 11.971 232.741 6.82804 233.076 3.25305H233.055Z" fill="#874133"/>
<path d="M236.713 2.9397C236.713 2.9397 231.508 6.43106 232.302 13.4556L237.257 11.804C237.257 11.804 235.919 6.43106 236.713 2.9397Z" fill="#874133"/>
<path d="M266.651 177.382C266.484 181.919 263.85 184.302 263.223 188.797C263.076 189.78 262.742 192.477 263.223 193.334C263.704 194.191 264.833 194.797 265.752 194.379C266.693 193.961 266.798 193.815 266.986 192.79C266.233 194.986 266.296 195.989 267.049 198.163C267.341 199.02 267.655 199.982 268.512 200.275C269.495 200.609 270.854 200.358 271.711 199.773C273.509 198.561 275.348 197.202 276.247 195.216C277.209 193.083 276.937 190.637 276.624 188.316C276.206 185.16 275.787 182.003 275.39 178.825L266.651 177.341V177.382Z" fill="#F0B387"/>
<path d="M276.477 178.721V181.982C276.477 181.982 271.731 184.909 264.519 181.982V178.867L276.477 178.721Z" fill="#A8B3F5"/>
<path d="M258.393 54.7249C258.393 54.7249 277.752 64.969 282.665 78.4745C287.16 90.7883 276.833 179.034 276.833 179.034C276.833 179.034 270.749 181.438 264.059 179.034C262.198 148.636 263.703 119.827 263.097 98.2728C262.303 70.76 258.393 54.7458 258.393 54.7458V54.7249Z" fill="#002944"/>
<path d="M258.456 54.8087L255.425 51.2128C255.425 51.2128 253.188 61.5405 239.034 61.0388C239.034 61.0388 235.689 61.2269 235.125 58.5718C235.125 58.5718 234.267 59.7635 234.309 61.9377C234.309 62.2931 234.393 62.6486 234.539 63.004C235.355 65.0946 237.612 66.0563 239.975 66.2445C245.243 66.7044 256.031 62.9831 258.456 54.8087Z" fill="#D3D8F5"/>
<path d="M258.456 54.8086C258.456 54.8086 256.261 76.4676 235.501 103.667C235.501 103.667 227.975 71.3037 234.832 59.1153L238.093 63.7565L244.867 63.7983L251.682 60.2861L258.456 54.8295V54.8086Z" fill="#D3D8F5"/>
<path d="M235.501 103.645L226.511 73.5612L234.476 55.5608L235.145 58.634L232.198 74.1256L235.501 103.645Z" fill="#003A61"/>
<path d="M235.501 103.646L257.411 77.5126L261.509 56.5436L258.498 54.7456L251.892 73.8958L235.501 103.646Z" fill="#003A61"/>
<path d="M235.501 103.646L241.125 93.4224C241.125 93.4224 239.703 75.5893 243.236 62.0838C243.445 61.2476 239.055 61.3103 238.762 62.1256C236.128 69.2756 234.267 92.6907 234.267 92.6907L235.501 103.646Z" fill="#C9213A"/>
<path d="M242.965 61.164C242.003 60.8922 240.56 60.704 238.951 61.3521C238.574 61.4985 238.302 61.8539 238.198 62.2511L237.717 64.0699C237.466 65.0316 237.487 65.4707 238.47 65.3243H242.463C243.027 65.2198 243.487 64.7808 243.613 64.2163L243.926 62.7319C244.073 62.042 243.675 61.3312 242.985 61.1431L242.965 61.164Z" fill="#C9213A"/>
<path d="M263.327 162.142V119.346L261.048 162.56L263.327 162.142Z" fill="#002238"/>
<path d="M109.77 653.4C109.77 653.4 117.631 662.975 121.415 663.56C124.195 663.999 129.84 662.933 132.6 662.348C133.52 662.159 134.126 661.302 134 660.361L133.833 659.086C133.52 656.619 131.262 654.842 128.795 655.156L125.45 655.574C125.45 655.574 126.85 647.546 118.404 647.797L114.599 645.685L110.104 647.19L109.749 653.4H109.77Z" fill="#F0B387"/>
<path d="M118.467 645.748L106.32 635.734V635.776L90.8705 620.326L79.9365 563.774C79.8946 563.607 79.8528 563.398 79.811 563.231C78.4103 557.628 72.7447 554.22 67.1418 555.621C61.5389 557.021 58.1311 562.687 59.5318 568.29L74.0409 626.535L74.2708 627.413C74.6681 628.96 75.5879 630.382 76.9887 631.385L100.111 647.797L111.463 656.598C111.463 656.598 119.366 653.358 118.488 645.727L118.467 645.748Z" fill="#17213D"/>
<path d="M24.639 573.244C26.5415 566.805 34.3187 558.589 48.995 555.704C63.6921 552.84 77.9503 547.927 81.128 571.676C84.4731 596.618 80.7099 619.301 80.7099 619.301L83.2396 655.197L62.7305 671.441L24.7018 664.626L27.8795 627.204C27.8795 627.204 23.5101 577.028 24.639 573.265V573.244Z" fill="#A2BDFA"/>
<path d="M31.601 819.856C31.601 819.856 31.9355 822.804 27.1688 831.02C22.4022 839.237 24.681 845.299 28.4441 846.115C32.6463 847.014 40.6325 841.453 41.0506 834.282C41.4688 827.111 44.8138 827.738 45.3783 825.501C45.9427 823.264 44.7929 819.877 44.7929 819.877H31.601V819.856Z" fill="#11141C"/>
<path d="M62.6051 797.57V806.601C62.6051 807.814 63.4623 808.901 64.6748 809.089C66.6818 809.403 69.7342 809.925 71.7203 812.873C74.7099 817.326 83.4069 823.138 90.7242 818.288C91.6859 817.661 92.4176 816.135 92.1458 815.006C91.8113 813.689 90.996 811.786 88.5917 810.03C84.1178 806.769 76.0061 802.232 75.7552 797.591H62.6051V797.57Z" fill="#11141C"/>
<path d="M78.2011 801.208L83.8249 673.783C83.9086 671.902 83.9086 669.999 83.8249 668.118L83.2186 655.009C64.2775 668.515 26.2697 660.069 26.2697 660.069L25.977 660.633C24.0327 670.229 23.5937 677.881 24.3881 687.644L31.0991 821.842C31.0991 821.842 37.6219 826.713 46.068 819.605L51.5455 740.83L56.0822 685.784L58.3401 685.261L62.5841 739.513L62.0823 801.27C62.0823 801.27 68.6469 805.577 78.2429 801.208H78.2011Z" fill="#522307"/>
<path d="M57.4829 662.536V678.299C60.4098 677.839 62.5632 675.31 62.5632 672.341V662.055L57.4829 662.515V662.536Z" fill="#381805"/>
<path d="M58.2983 685.282L62.166 684.216L62.5632 739.534L61.3506 724.126L58.2983 685.282Z" fill="#381805"/>
<path d="M83.6369 660.319L76.0479 663.832C71.8666 665.755 67.0581 662.766 66.9536 658.166C66.4518 635.127 65.4065 590.743 64.8002 577.593C64.0058 559.551 55.0579 554.491 55.0579 554.491C67.4344 552.045 78.4103 551.251 81.1281 571.697C84.494 596.639 80.7309 619.322 80.7309 619.322L83.9714 659.755C83.9714 660.006 83.8459 660.236 83.6369 660.34V660.319Z" fill="#012943"/>
<path d="M44.2074 668.787L25.0781 667.156C24.7436 667.135 24.5136 666.842 24.5345 666.508L27.8795 627.183C27.8795 627.183 23.5101 577.008 24.639 573.224C25.8307 569.189 29.3221 564.485 35.3431 560.805C35.7403 561.976 36.6811 564.129 38.7508 566.596C41.9286 570.359 51.7337 578.199 51.2319 602.179C50.8765 619.51 51.0438 647.901 51.1483 662.347C51.1692 666.111 47.9706 669.079 44.2074 668.745V668.787Z" fill="#012943"/>
<path d="M68.1871 523.257C68.7307 521.919 68.3753 520.309 67.4972 519.18C66.6191 518.031 65.2811 517.32 63.8804 516.923C62.5006 516.525 61.0371 516.421 59.5946 516.337C60.8908 518.491 62.9814 520.247 65.3229 521.167C66.3892 521.585 67.6017 522.275 68.1871 523.257Z" fill="#874133"/>
<path d="M61.309 554.449C62.0616 555.892 61.518 558.484 60.849 559.968C60.18 561.453 59.8455 562.812 59.6364 564.421C59.5528 565.028 59.511 565.655 59.5319 566.303C59.5737 568.226 58.173 569.899 56.2287 569.962C55.8106 569.962 55.3716 569.962 54.9116 569.982C40.2981 570.192 37.1621 560.031 37.1621 560.031C39.9008 556.623 41.5106 552.191 41.4688 547.487L53.8872 551.919L61.3299 554.428L61.309 554.449Z" fill="#F0B387"/>
<path d="M61.5178 557.69C58.9882 559.362 55.9568 560.282 52.9253 560.261C50.7929 560.261 48.6813 559.801 46.5698 559.404C44.4583 559.028 42.3049 558.714 40.1933 559.028C39.1271 559.174 38.0609 559.509 37.1201 560.031C39.8589 556.623 41.4686 552.17 41.4268 547.487L53.8452 551.92L61.3088 554.449C61.7478 555.285 61.7478 556.519 61.5388 557.69H61.5178Z" fill="#DE9D72"/>
<path d="M66.2009 554.659L64.4657 555.265C62.2496 556.017 59.8662 556.143 57.6083 555.578L48.7859 553.404C47.2388 553.028 45.7754 552.317 44.5001 551.314C41.2178 548.742 34.9877 543.181 32.5625 536.428C29.2384 527.083 29.5729 514.874 40.5488 511.78C51.5246 508.685 68.0824 512.26 68.3124 524.512C68.3124 524.512 68.7724 528.317 67.8316 530.616C66.8908 532.916 68.3542 535.111 68.8351 536.595C69.2741 537.933 69.0441 548.303 67.748 552.944C67.518 553.739 66.9535 554.387 66.18 554.638L66.2009 554.659Z" fill="#F0B387"/>
<path d="M63.5877 555.537C61.6434 556.039 59.5737 556.059 57.6085 555.579L48.786 553.404C47.239 553.028 45.7755 552.317 44.5002 551.314C41.2179 548.742 34.9878 543.16 32.5836 536.428C30.7857 531.369 30.0539 525.473 31.5174 520.665L46.8836 524.93C47.6153 524.616 48.4724 525.494 48.9115 526.184C49.3296 526.853 49.4341 528.338 49.5805 529.132C49.7268 529.926 49.9359 530.742 50.5213 531.285C51.0857 531.829 52.0056 532.122 52.152 532.895C52.2565 533.418 51.9011 533.92 51.6084 534.38C50.8767 535.467 50.2913 536.679 50.1659 537.975C50.0404 539.272 50.4585 540.672 51.4411 541.53C53.0927 542.972 55.8106 542.554 57.4413 544.038C58.3612 544.875 58.7375 546.15 58.8838 547.383C59.0301 548.617 59.0092 549.871 59.3437 551.084C59.9082 553.153 61.5807 554.889 63.6296 555.579L63.5877 555.537Z" fill="#E7A477"/>
<path d="M32.688 517.821C30.221 522.379 29.2802 527.083 30.4719 532.059C31.3082 535.571 32.7925 538.811 34.8413 541.78C34.8413 541.78 38.2909 547.007 41.385 549.076C41.385 549.076 41.7195 544.728 43.8102 543.327C44.5837 542.805 44.7091 540.756 45.4409 540.275C46.4653 539.606 46.8416 538.31 46.5071 537.139C46.0262 535.404 45.9217 533.543 46.2353 531.745C46.6952 529.153 47.7824 527.271 49.6849 525.473C50.2702 524.909 50.4793 523.32 50.103 522.609C49.7267 521.877 49.0368 521.396 48.305 521.02C45.9008 519.787 43.0784 519.703 40.3606 519.578C37.6428 519.452 34.9041 519.348 32.6671 517.821H32.688Z" fill="#874133"/>
<path d="M43.6848 546.233C41.9705 545.585 40.4653 544.414 39.4199 542.888C38.3746 541.383 37.8311 539.543 37.852 537.703C37.852 537.16 37.9147 536.637 38.1028 536.114C38.291 535.613 38.6046 535.153 39.0645 534.86C39.5036 534.588 40.068 534.505 40.5907 534.567C41.1134 534.63 41.6151 534.839 42.0541 535.111C43.1413 535.759 44.0193 536.763 44.5002 537.912C44.8138 538.665 44.981 539.501 45.2528 540.275C45.5246 541.048 45.9845 541.822 46.6954 542.24L43.6848 546.212V546.233Z" fill="#E7A477"/>
<path d="M26.479 541.258L43.3086 553.592L48.8488 544.916L32.3119 533.125C31.8728 532.811 31.2665 532.916 30.9739 533.355L26.2699 539.94C25.9563 540.38 26.0609 540.965 26.479 541.279V541.258Z" fill="#333333"/>
<path d="M53.9082 564.38C53.9082 561.851 55.7688 551.732 53.1346 547.655C52.382 546.485 51.044 545.753 50.1241 544.707C49.0997 543.558 48.1171 542.345 46.8627 541.425C45.6084 540.505 44.124 540.213 42.5978 540.463C41.9706 541.028 41.5316 541.781 41.3435 542.596C40.9671 544.268 41.6152 546.129 40.9253 547.697C40.4654 548.721 39.3992 549.6 38.2911 549.683C37.6639 548.492 35.9078 548.157 34.7579 547.3C34.068 549.14 34.7579 551.356 36.0541 552.861C37.3294 554.366 39.0647 555.37 40.7372 556.415C42.4097 557.46 44.1031 558.589 45.1693 560.262C45.9638 561.474 46.361 562.938 46.4028 564.38H53.95H53.9082Z" fill="#F0B387"/>
<path d="M62.6887 617.169L57.5039 572.994C57.5039 572.994 57.5039 572.91 57.483 572.889L55.9359 558.443C55.9359 558.443 48.0333 555.182 43.2876 561.203L45.3991 584.137L45.6291 594.757L34.1933 581.67C35.6149 567.495 35.3013 560.847 35.3013 560.847C35.3013 560.847 17.1337 570.276 13.5796 582.862C12.0744 588.235 14.6249 594.235 26.3116 608.367L47.3643 623.671L48.096 624.382C49.894 626.117 52.4237 627.079 55.0997 626.765C59.8245 626.2 63.2113 621.936 62.6469 617.211L62.6887 617.169Z" fill="#012943"/>
<path d="M26.3535 608.346L26.8553 614.639L48.0961 625.05C48.0961 625.05 32.6463 615.183 26.3744 608.346H26.3535Z" fill="#17213D"/>
<path d="M35.4686 583.049L45.3992 594.632L45.0437 580.06L43.7266 589.447L35.4686 583.049Z" fill="#17213D"/>
<path d="M201.005 741.144V756.677L248.672 783.835L248.212 745.346L201.005 727.827V741.144Z" fill="#A2BDFA"/>
<path d="M248.672 783.835L258.811 777.228L254.233 741.06L248.212 745.346L248.672 783.835Z" fill="#3872FA"/>
<path d="M254.233 741.06L247.585 736.858L240.769 743.339L248.212 745.346L254.233 741.06Z" fill="#7CA4FF"/>
<path d="M214.281 715.764L251.097 735.478C252.623 736.294 252.77 738.405 251.411 739.45L248.275 741.813C245.348 744.008 243.633 747.458 243.633 751.116V765.834C243.633 765.834 214.532 764.517 201.005 742.524V728.642C201.047 724.377 203.389 720.447 207.152 718.419L212.044 715.784C212.734 715.408 213.57 715.408 214.281 715.784V715.764Z" fill="#A2BDFA"/>
<path d="M251.348 735.624C251.348 735.624 254.693 737.778 254.233 741.06L250.867 738.949L251.348 735.624Z" fill="#A2BDFA"/>
<path d="M224.002 720.969L220.971 719.485V724.335" stroke="#3B1C07" stroke-width="3.13596" stroke-linecap="round" stroke-linejoin="round"/>
<path d="M223.584 710.642C224.462 715.095 222.455 718.042 222.874 722.558C222.957 723.562 223.25 726.238 223.94 726.99C224.609 727.722 225.842 728.036 226.637 727.429C227.452 726.802 227.536 726.635 227.473 725.611C227.515 726.321 227.18 727.116 227.515 727.806C227.766 728.307 228.372 728.391 228.853 728.517C229.438 728.663 230.024 728.767 230.63 728.788C231.822 728.851 233.034 728.642 234.142 728.14C234.184 728.14 234.205 728.119 234.247 728.098C235.187 727.659 236.003 726.99 236.651 726.175C237.236 725.422 237.864 724.335 237.884 723.353C237.884 723.018 237.926 722.642 237.843 722.307C237.759 721.931 237.592 721.617 237.362 721.325C236.818 720.572 236.212 719.924 235.877 719.046C234.748 716.056 233.619 713.067 232.47 710.077L223.605 710.662L223.584 710.642Z" fill="#F0B387"/>
<path d="M227.828 724.544L232.658 726.3L232.679 730.858" stroke="#7CA4FF" stroke-width="3.13596" stroke-linecap="round" stroke-linejoin="round"/>
<path d="M231.884 701.631L234.268 714.363C234.268 714.363 227.954 719.819 221.661 716.056L218.797 704.432L231.884 701.631Z" fill="#002238"/>
<path d="M218.065 618.674C220.239 627.037 222.225 635.462 224.19 643.866C225.215 648.069 226.114 652.292 227.076 656.515L229.919 669.184L230.086 669.937V670.083L230.964 679.7C231.236 682.899 231.57 686.097 231.779 689.317C232.26 695.735 232.72 702.153 233.013 708.613C233.159 711.749 230.734 714.405 227.598 714.53C224.901 714.655 222.581 712.878 221.87 710.39C220.135 704.16 218.567 697.93 217.041 691.658C216.246 688.543 215.556 685.407 214.804 682.271L212.608 672.864L212.797 673.763L208.929 661.365C207.654 657.226 206.336 653.107 205.103 648.968C202.615 640.689 200.148 632.41 197.828 624.068C196.301 618.507 199.563 612.737 205.124 611.211C210.685 609.684 216.455 612.946 217.981 618.507C217.981 618.549 218.023 618.632 218.023 618.674H218.065Z" fill="#002238"/>
<path d="M203.451 849.982C203.451 849.982 199.5 845.237 194.462 847.474C189.34 849.731 199.061 861.857 209.284 866.227C219.507 870.596 218.086 860.436 217.772 858.449C217.459 856.463 216.957 851.069 216.957 851.069L203.472 849.982H203.451Z" fill="#11141C"/>
<path d="M186.559 867.983C186.747 868.276 187.103 878.394 186.914 880.401C186.705 882.387 176.649 881.844 174.35 880.903C172.05 879.962 167.869 880.213 164.921 879.816C161.973 879.419 154.3 876.283 154.3 872.687C154.3 869.091 160.99 868.756 163.771 868.756C166.552 868.756 175.29 869.195 175.29 869.195L175.437 866.896L186.559 867.983Z" fill="#11141C"/>
<path d="M217.772 852.178L222.978 729.792C223.062 728.015 223.062 726.238 222.978 724.481L222.413 712.168C204.622 724.858 168.391 716.955 168.391 716.955C168.391 716.955 167.409 732.614 167.158 742.816L173.451 868.882C173.451 868.882 181.291 873.816 187.165 868.882L192.643 792.803L196.887 741.081L198.998 740.6L202.991 791.549L202.594 852.24C202.594 852.24 208.762 856.275 217.772 852.178Z" fill="#8E92A8"/>
<path d="M198.998 740.579L202.636 739.576L203.012 791.549L201.883 777.082L198.998 740.579Z" fill="#6A6D7D"/>
<path d="M166.97 628.437C168.768 622.374 176.064 614.66 189.862 611.963C203.66 609.266 217.061 604.667 220.03 626.974C223.166 650.41 220.992 672.633 220.992 672.633L223.02 715.011C216.016 720.739 208.427 731.359 199.73 732.551C191.2 733.722 181.416 727.575 173.012 725.15L167.158 723.478L169.039 674.933C169.039 674.933 165.924 631.971 166.97 628.416V628.437Z" fill="#002944"/>
<path d="M178.907 608.995C178.907 609.204 177.381 619.469 177.381 619.469C177.381 619.469 190.615 626.995 197.367 616.5L196.761 605.524L187.751 602.785L178.907 608.974V608.995Z" fill="#F0B387"/>
<path d="M196.761 605.524L196.908 608.305C196.364 608.785 195.716 609.183 195.068 609.496C193.667 610.165 192.183 610.542 190.74 611.106C187.186 612.528 185.974 612.967 182.65 614.765C180.287 616.061 178.803 617.294 177.778 619.678C177.507 619.531 177.36 619.448 177.36 619.448C177.36 619.448 178.886 609.183 178.865 608.973L187.709 602.785L196.72 605.524H196.761Z" fill="#DE9D72"/>
<path d="M202.281 593.252C201.423 596.472 199.876 599.88 197.347 603.12C196.908 603.685 196.427 604.186 195.925 604.667C195.758 604.813 195.591 604.981 195.423 605.127C195.235 605.273 195.047 605.441 194.859 605.587C193.73 606.465 192.455 607.197 191.117 607.824C190.678 608.033 190.218 608.221 189.758 608.388C189.381 608.535 189.005 608.681 188.608 608.807C188.232 608.953 187.834 609.057 187.458 609.183C187.082 609.287 186.705 609.392 186.329 609.496C183.779 610.186 181.165 610.584 178.803 610.793C177.716 610.897 176.691 610.96 175.75 611.002C175.52 611.002 175.291 611.002 175.061 611.023C174.893 611.023 174.705 611.023 174.538 611.023C174.392 611.023 174.245 611.023 174.099 611.023C173.681 611.023 173.263 611.023 172.907 611.023C171.026 611.023 169.855 610.918 169.855 610.918C169.04 610.897 168.454 610.291 168.078 609.559C167.701 608.807 167.618 607.97 167.534 607.134C167.409 606.026 167.304 604.918 167.221 603.831C167.179 603.413 167.158 602.995 167.137 602.576C166.991 600.36 166.97 598.165 167.283 595.97C167.472 594.653 167.764 593.315 167.66 591.977C167.555 590.576 166.991 589.217 166.803 587.817C166.552 585.747 167.116 583.656 168.057 581.816C168.391 581.189 168.747 580.583 169.144 579.998C169.897 578.848 170.754 577.782 171.611 576.715C171.611 576.715 179.012 573.161 184.74 572.492C192.057 571.635 196.95 573.935 199.793 576.883C199.96 577.05 200.127 577.238 200.295 577.405C200.441 577.593 200.608 577.782 200.754 577.97C201.047 578.346 201.298 578.701 201.528 579.078C201.528 579.078 201.633 579.266 201.674 579.35C201.695 579.391 201.716 579.412 201.737 579.454C203.159 582.13 203.89 587.336 202.343 593.169L202.281 593.252Z" fill="#F0B387"/>
<path d="M197.347 603.099C191.786 610.249 178.803 611.085 172.865 611.064C175.165 609.371 176.336 606.214 175.604 603.434C175.207 601.866 174.287 600.486 173.472 599.064C172.677 597.643 171.966 596.095 172.071 594.465C172.155 593.064 172.844 591.747 172.886 590.325C172.928 588.862 172.259 587.44 172.134 585.956C172.008 584.367 172.573 582.715 173.639 581.524C174.705 580.332 176.294 579.621 177.904 579.6L193.333 578.994L199.73 576.883C200.42 577.593 200.984 578.346 201.465 579.099C203.849 582.945 204.685 593.628 197.347 603.036V603.099Z" fill="#E7A477"/>
<path d="M190.573 609.245C188.922 609.329 186.998 608.158 186.308 606.653C185.786 605.524 185.493 604.311 184.97 603.182C184.468 602.095 183.737 601.029 182.65 600.485C181.646 599.984 180.475 599.984 179.346 599.984C179.305 599.984 179.284 599.984 179.242 599.984C177.465 599.984 176.106 598.52 176.085 596.743C176.085 595.677 175.897 594.59 175.562 593.565C175.061 592.018 174.224 590.618 173.785 589.05C173.054 586.374 173.702 583.384 175.458 581.252L187.981 579.14L201.194 579.203C201.194 579.203 204.831 580.875 203.828 589.719C202.845 598.562 198.434 601.343 197.765 604.938C197.18 608.095 195.256 608.994 190.531 609.203L190.573 609.245Z" fill="#633F25"/>
<path d="M179.137 604.604C179.994 604.729 180.872 604.562 181.646 604.186C182.42 603.81 183.089 603.266 183.653 602.618C184.531 601.614 185.158 600.36 185.242 599.022C185.326 597.684 184.845 596.304 183.82 595.447C182.796 594.59 181.249 594.36 180.099 595.029C179.054 595.635 178.51 596.806 178.092 597.935C177.674 599.064 177.318 600.255 176.503 601.133L179.137 604.604Z" fill="#E7A477"/>
<path d="M202.406 593.607C201.863 591.726 200.587 590.095 199.04 588.883C197.493 587.67 195.695 586.813 193.855 586.123C190.301 584.785 186.559 583.949 182.775 583.656C180.224 583.447 177.632 583.51 175.102 583.029C173.033 582.632 170.942 581.837 169.395 580.436C168.789 579.893 168.559 579.036 168.83 578.283C169.918 575.293 172.155 572.91 175.061 571.489C178.343 569.879 182.043 569.335 185.702 569.126C188.169 569.001 190.657 569.001 193.082 569.502C195.507 570.004 197.848 571.008 199.688 572.659C203.138 575.795 204.309 580.834 204.727 585.349C204.831 586.541 204.789 587.733 204.601 588.924C204.288 590.743 203.786 592.374 202.406 593.628V593.607Z" fill="#633F25"/>
<path d="M170.106 607.029C170.127 604.583 167.785 603.998 167.158 603.893C167.116 603.475 167.095 603.057 167.074 602.639C171.486 602.576 171.925 606.946 171.925 606.946L170.106 607.05V607.029Z" fill="#633F25"/>
<path d="M170.106 607.03C170.106 607.03 169.918 608.096 168.852 607.699C167.785 607.301 168.747 606.256 167.388 606.256C167.388 606.256 166.761 608.932 168.308 610.312C169.855 611.692 172.636 611.065 172.636 611.065C172.636 611.065 173.472 602.514 167.074 602.618L167.639 603.35L169.646 604.207L170.817 605.273L170.942 606.883L170.106 607.009V607.03Z" fill="#633F25"/>
<path d="M197.033 610.542C195.8 613.301 194.085 614.096 191.326 615.287C188.566 616.479 185.597 616.96 182.545 617.085C180.705 617.148 179.514 617.148 177.862 616.291C176.608 617.148 176.775 617.65 176.503 618.465C176.231 619.28 176.064 620.242 176.566 620.953C176.921 621.455 177.507 621.706 178.092 621.915C183.674 623.922 190.051 623.566 195.382 620.953C196.302 620.514 197.221 619.949 197.723 619.071C198.183 618.235 198.204 617.253 198.204 616.312C198.204 613.949 198.957 611.733 197.054 610.542H197.033Z" fill="#002944"/>
<path d="M168.726 576.297L170.733 574.541C170.733 574.541 169.416 569.022 178.385 565.488C187.353 561.955 191.953 565.488 192.392 566.137C192.831 566.764 193.27 570.631 192.852 572.116C192.434 573.6 187.562 572.848 186.162 573.537C184.761 574.227 187.667 576.067 183.59 578.22C179.514 580.374 177.736 580.416 176.838 580.395C175.939 580.395 172.698 582.485 172.698 582.485L168.747 576.297H168.726Z" fill="#F0B387"/>
<path d="M179.033 654.529C179.033 654.529 187.291 654.592 173.074 624.465C173.074 624.465 159.903 598.792 159.715 598.207C159.527 597.622 176.231 580.813 176.231 580.813C176.231 580.813 173.66 575.21 169.813 573.663C169.813 573.663 156.997 581.147 147.778 589.845C138.558 598.542 168.621 651.916 168.621 651.916L179.054 654.529H179.033Z" fill="#002944"/>
<path d="M167.43 649.825L168.391 665.734L169.52 656.034L167.43 649.825Z" fill="#17213D"/>
<path d="M776.181 152.379L773.903 151.124C773.903 151.124 769.303 154.156 763.094 147.152C756.906 140.127 758.599 134.755 759.038 134.148C759.477 133.542 762.843 131.849 764.348 131.744C765.833 131.64 766.773 136.323 767.861 137.389C768.948 138.455 769.659 135.173 772.983 138.183C776.307 141.194 776.913 142.804 777.206 143.619C777.478 144.455 780.488 146.692 780.488 146.692L776.16 152.358L776.181 152.379Z" fill="#F0B387"/>
<path d="M862.441 103.625C862.441 103.625 877.431 118.301 875.884 158.63C875.884 158.63 873.689 162.957 860.246 163.668L862.441 103.625Z" fill="#8DB0FF"/>
<path d="M853.075 341.895C853.075 341.895 849.124 337.149 844.085 339.386C838.963 341.644 848.685 353.77 858.908 358.139C869.131 362.509 867.709 352.348 867.396 350.362C867.082 348.376 866.58 342.982 866.58 342.982L853.096 341.895H853.075Z" fill="#11141C"/>
<path d="M836.204 359.895C836.392 360.188 836.747 370.307 836.559 372.314C836.35 374.3 826.294 373.756 823.994 372.815C821.695 371.875 817.513 372.125 814.565 371.728C811.618 371.331 803.945 368.195 803.945 364.599C803.945 361.003 810.635 360.669 813.416 360.669C816.196 360.669 824.935 361.108 824.935 361.108L825.081 358.808L836.204 359.895Z" fill="#11141C"/>
<path d="M867.396 344.069L872.602 221.683C872.685 219.906 872.685 218.129 872.602 216.373L872.037 204.059C854.246 216.749 818.015 208.847 818.015 208.847C818.015 208.847 817.032 224.506 816.781 234.708L823.074 360.773C823.074 360.773 830.914 365.707 836.789 360.773L842.266 284.695L846.51 232.973L848.622 232.492L852.615 283.441L852.218 344.132C852.218 344.132 858.385 348.167 867.396 344.069Z" fill="#8E92A8"/>
<path d="M848.622 232.492L852.26 231.488L852.636 283.44L851.507 268.973L848.622 232.492Z" fill="#8A8EA3"/>
<path d="M828.594 100.949C828.594 101.158 826.9 110.315 826.9 110.315C826.9 110.315 839.632 118.531 846.908 108.454L846.51 98.482L837.709 95.2625L828.573 100.928L828.594 100.949Z" fill="#F0B387"/>
<path d="M846.531 98.503V101.284C845.967 101.743 845.298 102.078 844.629 102.371C843.207 102.956 841.702 103.249 840.259 103.73C836.642 104.942 833.925 101.116 831.479 104.064C829.827 106.05 828.468 108.266 827.318 110.587C827.046 110.441 826.921 110.336 826.921 110.336C826.921 110.336 828.614 101.158 828.614 100.97L837.751 95.3043L846.552 98.5239L846.531 98.503Z" fill="#DE9D72"/>
<path d="M852.678 86.5865C851.653 89.7434 849.918 93.0257 847.221 96.1198C846.761 96.6425 846.259 97.1442 845.716 97.5833C845.549 97.7296 845.36 97.8759 845.172 98.0014C844.984 98.1477 844.775 98.2941 844.587 98.4404C843.416 99.2558 842.12 99.9039 840.761 100.447C840.301 100.615 839.841 100.803 839.381 100.949C839.005 101.075 838.608 101.2 838.21 101.305C837.813 101.43 837.437 101.514 837.04 101.618C836.663 101.702 836.287 101.785 835.911 101.869C833.339 102.413 830.726 102.664 828.364 102.747C827.276 102.789 826.252 102.81 825.311 102.789C825.081 102.789 824.851 102.789 824.642 102.789C824.475 102.789 824.287 102.789 824.12 102.789C823.973 102.789 823.827 102.789 823.681 102.789C823.262 102.789 822.865 102.768 822.489 102.726C820.628 102.622 819.457 102.475 819.457 102.475C818.642 102.413 818.099 101.765 817.764 101.012C817.43 100.259 817.388 99.4021 817.346 98.5868C817.283 97.4996 817.241 96.3916 817.2 95.2835C817.2 94.8654 817.179 94.4473 817.179 94.0292C817.158 91.834 817.262 89.6388 817.68 87.4855C817.931 86.1893 818.308 84.8722 818.266 83.5551C818.224 82.1544 817.743 80.7745 817.639 79.3738C817.492 77.3041 818.182 75.2553 819.228 73.4782C819.583 72.8719 819.98 72.2865 820.398 71.7221C821.214 70.6349 822.113 69.6105 823.032 68.5861C823.032 68.5861 830.58 65.4711 836.308 65.1157C843.625 64.6766 848.35 67.2272 851.026 70.3004C851.193 70.4886 851.34 70.6559 851.486 70.844C851.632 71.0322 851.779 71.2203 851.904 71.4294C852.176 71.8057 852.406 72.2029 852.615 72.5792C852.615 72.5792 852.719 72.7674 852.761 72.8719C852.782 72.9137 852.803 72.9346 852.824 72.9765C854.078 75.6943 854.538 80.9418 852.678 86.6283V86.5865Z" fill="#F0B387"/>
<path d="M847.242 96.1198C841.326 102.914 828.384 103.04 822.489 102.705C824.872 101.137 826.189 98.085 825.625 95.2835C825.311 93.6946 824.475 92.2939 823.743 90.8305C823.032 89.3879 822.405 87.7991 822.593 86.1893C822.761 84.8094 823.513 83.5132 823.618 82.1334C823.743 80.67 823.158 79.2274 823.116 77.764C823.074 76.1751 823.722 74.5653 824.851 73.4573C825.98 72.3492 827.59 71.722 829.179 71.7848L844.524 72.0356L850.984 70.3004C851.632 71.053 852.155 71.8266 852.573 72.5792C854.726 76.5305 854.977 87.1928 847.179 96.1407L847.242 96.1198Z" fill="#E7A477"/>
<path d="M840.176 101.848C838.524 101.848 836.684 100.573 836.099 99.0467C835.66 97.8969 835.409 96.6634 834.97 95.5344C834.531 94.4264 833.862 93.3393 832.817 92.733C831.855 92.1894 830.684 92.1058 829.576 92.064H829.472C827.715 91.9595 826.44 90.4333 826.503 88.6772C826.545 87.6109 826.44 86.5447 826.168 85.4994C825.75 83.9523 824.998 82.4889 824.663 80.9209C824.099 78.224 824.893 75.2762 826.754 73.2483L839.298 71.8475L852.427 72.642C852.427 72.642 855.939 74.5026 854.476 83.2415C853.012 91.9595 848.475 94.4891 847.618 98.0223C846.845 101.137 844.9 101.911 840.197 101.869L840.176 101.848Z" fill="#633F25"/>
<path d="M829.095 96.6005C829.932 96.7677 830.81 96.6423 831.604 96.3287C832.398 96.0151 833.088 95.4924 833.695 94.8652C834.615 93.9245 835.304 92.691 835.472 91.3739C835.639 90.0568 835.221 88.6561 834.259 87.7362C833.297 86.8163 831.75 86.5027 830.58 87.109C829.513 87.6526 828.886 88.7815 828.426 89.8686C827.966 90.9558 827.527 92.1265 826.67 92.9628L829.095 96.5587V96.6005Z" fill="#E7A477"/>
<path d="M852.782 86.9626C852.343 85.0601 851.172 83.3667 849.688 82.0914C848.204 80.8161 846.468 79.8544 844.691 79.0809C841.242 77.5547 837.562 76.5094 833.82 76.0286C831.29 75.6941 828.719 75.5895 826.231 74.9832C824.182 74.4815 822.175 73.5616 820.712 72.0982C820.147 71.5337 819.959 70.6556 820.273 69.9239C821.527 67.0179 823.869 64.7809 826.837 63.5056C830.182 62.084 833.883 61.7495 837.521 61.7495C839.987 61.7495 842.454 61.8959 844.838 62.523C847.221 63.1502 849.5 64.2792 851.214 66.0353C854.476 69.3385 855.354 74.4188 855.542 78.9136C855.584 80.1053 855.479 81.297 855.207 82.4468C854.81 84.2448 854.204 85.8337 852.782 87.0044V86.9626Z" fill="#633F25"/>
<path d="M826.482 88.8445C826.44 89.2208 827.36 94.2592 824.14 96.6844C820.921 99.1095 817.346 98.1269 817.346 98.1269V100.029C817.471 101.869 818.935 103.353 820.775 103.5C823.764 103.73 827.402 103.667 831.437 102.538C831.437 102.538 830.768 98.5868 829.012 95.8481C827.276 93.1303 828.301 90.1407 828.301 90.1407L827.757 88.6981L826.482 88.8236V88.8445Z" fill="#633F25"/>
<path d="M819.395 98.5237C819.52 96.0986 817.722 95.3878 817.241 95.2414C817.241 94.8233 817.22 94.4052 817.22 93.9871C820.712 94.1752 820.837 98.5237 820.837 98.5237H819.395Z" fill="#633F25"/>
<path d="M820.963 72.2865C820.963 72.2865 815.694 69.0878 820.126 60.2235C820.126 60.2235 828.468 62.0633 837.123 61.687L842.015 68.147L820.984 72.2656L820.963 72.2865Z" fill="#633F25"/>
<path d="M846.657 102.433C845.423 105.193 843.709 105.987 840.949 107.179C838.19 108.371 835.221 108.851 832.169 108.977C830.329 109.04 829.137 109.04 827.486 108.182C826.231 109.04 826.399 109.541 826.127 110.357C825.855 111.172 825.688 112.134 826.189 112.845C826.545 113.346 827.13 113.597 827.716 113.806C833.298 115.792 839.674 115.458 845.005 112.845C845.925 112.406 846.845 111.841 847.347 110.963C847.807 110.127 847.828 109.144 847.828 108.203C847.828 105.841 848.58 103.625 846.678 102.433H846.657Z" fill="#522307"/>
<path d="M828.74 107.514C828.74 107.514 810.447 116.587 805.827 129.236C805.241 130.866 804.739 135.361 804.112 140.483L801.102 158.672L788.746 150.56L778.356 143.347C776.411 148.448 771.728 152.776 771.728 152.776L781.282 160.407L802.084 180.435C803.109 181.418 804.426 182.17 805.889 182.526C810.384 183.634 814.9 180.874 816.008 176.379L816.28 175.271L822.698 149.055L824.287 149.159C824.287 148.888 824.287 148.616 824.308 148.344C824.37 145.877 824.475 143.556 824.6 141.278L826.252 134.525C826.315 134.274 826.377 134.002 826.419 133.751C826.775 131.64 826.461 129.57 825.625 127.751C826.942 114.727 828.719 107.493 828.719 107.493L828.74 107.514Z" fill="#7CA4FF"/>
<path d="M870.615 164.546C870.615 164.546 872.79 142.302 869.654 118.887C867.27 101.054 858.218 100.426 847.639 102.266L847.033 99.4856C847.033 99.4856 843.437 105.444 827.381 104.524L827.172 108.371C821.193 111.862 817.743 116.441 816.593 120.35C815.548 123.904 818.663 166.867 818.663 166.867L815.903 219.885L821.757 221.558C838.754 226.429 859.702 224.527 873.584 213.195L870.615 164.546Z" fill="#7CA4FF"/>
<path d="M724.062 8.29154C724.062 8.29154 740.202 43.7906 718.961 58.9268C718.961 58.9268 710.765 58.7386 699.79 45.0031C688.814 31.2676 703.114 10.6958 703.114 10.6958L724.062 8.27063V8.29154Z" fill="#47270B"/>
<path d="M739.742 151.083C740.327 154.887 738.529 157.292 738.738 161.118C738.78 161.954 738.947 164.254 739.491 164.902C740.034 165.55 741.059 165.863 741.749 165.362C742.459 164.86 742.543 164.713 742.522 163.856C742.25 165.801 742.46 166.616 743.442 168.309C743.818 168.957 744.237 169.731 744.989 169.836C745.867 169.961 746.954 169.522 747.582 168.895C748.878 167.599 750.195 166.156 750.613 164.379C751.073 162.456 750.446 160.449 749.819 158.588C748.961 156.037 748.104 153.466 747.247 150.915L739.742 151.103V151.083Z" fill="#F0B387"/>
<path d="M738.069 153.424L738.592 155.995C738.592 155.995 743.484 157.208 748.731 153.758L747.352 150.56L738.069 153.424Z" fill="#A8B3F5"/>
<path d="M748.146 151.542L745.052 142.636C743.651 137.64 742.271 132.643 740.808 127.688C738.801 120.852 736.731 114.057 734.682 107.242C734.536 104.085 734.39 100.928 734.243 97.7711H734.285C735.163 79.5826 733.031 69.5057 732.801 67.0388C730.459 43.6236 715.574 54.8712 715.574 54.8712C715.574 54.8712 716.828 57.6309 717.33 68.4813C716.347 70.0284 715.825 71.8681 716.013 73.8333C716.431 77.8683 716.912 81.8823 717.435 85.8963C717.435 86.1054 717.435 86.2935 717.435 86.5026L717.539 86.5653C717.748 88.2169 717.957 89.8476 718.166 91.4992C718.94 97.3739 719.818 103.249 720.633 109.123L720.717 109.792C720.759 110.148 720.863 110.482 721.01 110.838C723.874 117.799 737.944 154.532 737.944 154.532C745.616 155.912 748.167 151.563 748.167 151.563L748.146 151.542Z" fill="#001D30"/>
<path d="M725.379 317.664C725.379 317.664 719.295 320.779 712.459 315.741C706.772 311.559 706.312 302.277 706.417 299.58L705.727 310.284H704.41C704.41 310.284 704.138 302.695 703.678 294.793C703.197 286.848 708.152 287.413 708.152 287.413H717.56C717.56 287.413 719.441 294.207 719.755 297.448C720.069 300.667 720.529 300.96 722.786 305.852C723.33 307.044 723.769 308.361 724.124 309.699C725.17 313.755 725.358 317.706 725.358 317.706L725.379 317.664Z" fill="#0F1E23"/>
<path d="M724.145 309.678C721.678 310.744 715.866 311.476 712.898 307.734C709.866 303.908 708.424 290.068 708.173 287.413H717.581C717.581 287.413 719.462 294.207 719.776 297.448C720.09 300.667 720.549 300.96 722.807 305.852C723.351 307.044 723.79 308.361 724.145 309.699V309.678Z" fill="#F0B387"/>
<path d="M705.183 121.061C705.183 121.061 690.967 143.243 702.445 174.581C702.445 174.581 706.563 189.069 706.333 202.387C706.103 215.453 700.228 219.028 701.985 242.485C703.741 265.921 705.999 288.019 705.999 288.019C705.999 288.019 714.445 290.967 717.936 288.458C717.936 288.458 723.058 225.948 723.393 222.436C723.727 218.924 727.846 212.025 727.511 201.843C727.177 191.662 731.17 159.8 729.79 146.901C727.804 128.483 717.184 125.033 717.184 125.033L705.204 121.061H705.183Z" fill="#002238"/>
<path d="M682.604 301.943C682.604 301.943 681.057 321.386 682.082 326.362C682.082 326.362 683.984 336.104 693.455 337.045C692.619 337.379 698.807 334.202 697.887 326.571C696.967 318.961 693.727 307.734 693.455 302.507L682.604 301.964V301.943Z" fill="#0F1E23"/>
<path d="M697.427 323.372C695.629 325.337 692.932 327.156 689.106 326.78C685.887 326.466 683.482 324.982 681.789 323.309C681.475 316.076 682.584 301.943 682.584 301.943L693.434 302.507C693.664 307.023 696.152 316.118 697.427 323.372Z" fill="#F0B387"/>
<path d="M680.096 137.305C680.096 137.305 665.879 159.487 677.357 190.825C677.357 190.825 681.476 205.314 681.246 218.631C681.016 231.697 675.141 235.272 676.897 258.729C678.653 282.165 682.04 304.953 682.04 304.953C682.04 304.953 690.486 307.901 693.978 305.392C693.978 305.392 697.971 242.172 698.284 238.659C698.619 235.147 702.737 228.248 702.403 218.066C702.068 207.885 706.668 173.473 705.581 160.553C704.493 147.633 704.598 142.155 704.598 142.155L680.096 137.305Z" fill="#002238"/>
<path d="M731.023 147.089L725.797 109.353C725.797 109.353 733.135 105.674 733.553 98.7535C733.971 91.8126 729.058 83.45 728.661 78.3489C728.243 73.2477 731.149 56.6063 726.905 53.094C719.776 47.1775 686.221 55.0801 675.81 61.4147C665.398 67.7494 674.994 93.0461 676.834 96.7047C678.674 100.384 677.461 143.514 677.461 143.514C677.461 143.514 682.897 150.769 702.298 150.559C704.953 150.539 707.316 150.225 709.448 149.702C710.953 149.326 713.985 134.775 713.985 134.775C713.985 134.775 717.33 148.908 718.981 149.012C726.738 149.535 730.982 147.11 730.982 147.11L731.023 147.089Z" fill="#002944"/>
<path d="M706.145 113.66C706.145 113.66 714.466 111.486 717.497 112.364C720.027 113.095 723.79 112.907 723.79 112.907L726.173 120.475L725.818 109.353C725.818 109.353 722.724 111.172 717.246 110.628C711.769 110.085 706.249 112.447 706.249 112.447C706.249 112.447 697.97 115.437 691.678 112.698C691.678 112.698 697.824 116.21 706.166 113.66H706.145Z" fill="#001D30"/>
<path d="M709.532 41.4287L700.417 38.5436C700.458 44.021 697.448 50.3139 694.897 54.2861C694.897 54.2861 699.246 64.1957 710.284 63.1713C712.417 62.9831 714.11 61.2897 714.382 59.1782C714.884 55.185 716.117 48.6832 718.981 46.4462L709.532 41.4077V41.4287Z" fill="#F0B387"/>
<path d="M718.981 46.4671C718.333 46.9688 717.748 47.7006 717.267 48.5786C716.159 48.9549 714.947 49.1222 713.755 49.1222C711.831 49.164 709.908 48.8922 707.985 48.9131C703.155 48.9759 698.389 51.0038 694.939 54.3906C694.897 54.3279 694.897 54.2861 694.897 54.2861C697.448 50.3139 700.437 44.0001 700.417 38.5436L709.532 41.4287L718.981 46.4671Z" fill="#DE9D72"/>
<path d="M707.483 1.51832C704.431 1.39288 701.378 1.7901 698.661 2.56364C687.706 5.6996 687.35 18.0553 690.674 27.5049C693.079 34.3413 699.309 39.9651 702.591 42.5784C702.591 42.5784 712.396 47.596 719.713 47.2406C727.03 46.8851 726.529 44.6482 726.696 43.0175C726.863 41.3868 727.365 30.8081 726.696 27.8185C726.027 24.8289 724.919 24.8289 725.483 21.693C726.048 18.5361 725.233 2.22914 707.483 1.51832Z" fill="#F0B387"/>
<path d="M717.414 47.1985C710.515 46.6132 702.591 42.5782 702.591 42.5782C699.309 39.9649 693.079 34.3411 690.695 27.5047C688.563 21.4628 687.936 14.2292 690.633 8.98169L705.581 13.3929C709.051 14.9818 711.204 19.0377 710.556 22.8008C710.305 24.2433 709.699 25.6232 709.323 27.0448C708.947 28.4664 708.8 30.0553 709.49 31.3724C710.117 32.5432 711.33 33.3794 711.748 34.6338C712.271 36.1809 711.434 37.8325 711.413 39.4632C711.413 42.0137 713.337 44.1462 715.365 45.7142C716.034 46.2368 716.724 46.7177 717.414 47.1776V47.1985Z" fill="#E7A477"/>
<path d="M701.567 37.7074C699.936 37.1012 698.493 35.9722 697.511 34.5297C696.528 33.0871 696.005 31.3519 696.005 29.6167C696.005 29.1149 696.068 28.5923 696.235 28.1114C696.403 27.6306 696.716 27.1915 697.155 26.9197C697.573 26.648 698.096 26.5852 698.598 26.648C699.1 26.7107 699.56 26.9197 699.999 27.1706C701.023 27.7769 701.859 28.7386 702.319 29.8466C702.612 30.5784 702.779 31.3519 703.03 32.0836C703.302 32.8153 703.72 33.5471 704.389 33.9443L701.546 37.7074H701.567Z" fill="#D1956B"/>
<path d="M702.194 15.1489C704.096 16.2778 706.459 16.3823 708.654 16.006C710.849 15.6297 712.919 14.8353 715.051 14.2499C717.184 13.6645 719.462 13.2673 721.616 13.7481C723.769 14.229 725.818 15.7551 726.32 17.8458C726.32 17.8458 727.093 1.43428 710.849 0.514398C694.584 -0.405482 702.194 15.1279 702.194 15.1279V15.1489Z" fill="#502C0C"/>
<path d="M700.208 41.1148V19.4976L709.197 10.5079L722.828 9.77618C715.992 -4.21018 690.277 -4.12655 687.016 16.1526C683.796 36.16 700.124 41.5539 700.124 41.5539" fill="#502C0C"/>
<path d="M657.161 180.31V193.376L694.103 214.429L693.747 183.383L658.52 165.153L657.161 180.31Z" fill="#3B1C07"/>
<path d="M694.103 214.429L702.298 209.098L698.598 179.934L693.747 183.383L694.103 214.429Z" fill="#2B1505"/>
<path d="M698.598 179.933L693.225 176.547L688.751 180.811L693.747 183.383L698.598 179.933Z" fill="#1F0F04"/>
<path d="M666.402 159.55L696.068 175.459C697.302 176.108 697.427 177.822 696.319 178.658L693.789 180.561C691.427 182.338 690.047 185.118 690.047 188.045V199.899C690.047 199.899 666.59 198.833 655.677 181.104V169.919C655.719 166.47 657.6 163.313 660.632 161.682L664.583 159.55C665.148 159.257 665.817 159.236 666.381 159.55H666.402Z" fill="#522307"/>
<path d="M696.256 175.564C696.256 175.564 698.953 177.299 698.577 179.954L695.859 178.261L696.256 175.564Z" fill="#522307"/>
<path d="M670.688 197.62L666.862 195.467L666.925 189.132L670.771 191.265L670.688 197.62Z" fill="#808080"/>
<path d="M674.221 163.752L671.775 162.539V166.47" stroke="#3B1C07" stroke-width="3.13596" stroke-linecap="round" stroke-linejoin="round"/>
<path d="M681.308 154.553C681.455 158.212 683.566 160.135 684.089 163.773C684.193 164.567 684.465 166.741 684.089 167.452C683.713 168.163 682.793 168.623 682.061 168.309C681.308 167.975 681.204 167.849 681.057 167.034C681.664 168.811 681.622 169.606 681.016 171.383C680.786 172.073 680.535 172.846 679.845 173.076C679.05 173.348 677.942 173.139 677.252 172.679C675.789 171.696 674.305 170.588 673.594 168.999C672.82 167.285 673.05 165.299 673.28 163.417C673.615 160.867 673.949 158.316 674.284 155.766L681.35 154.574L681.308 154.553Z" fill="#F0B387"/>
<path d="M673.385 155.64V158.275C673.385 158.275 677.942 160.428 683.775 158.065L683.044 154.658L673.385 155.64Z" fill="#A8B3F5"/>
<path d="M681.496 167.766L683.524 168.769V172.7" stroke="#3B1C07" stroke-width="3.13596" stroke-linecap="round" stroke-linejoin="round"/>
<path d="M683.357 57.9442C683.357 57.9442 654.214 62.2928 661.489 118.364L673.489 157.082C673.489 157.082 679.322 158.65 683.817 155.368C683.817 155.368 677.441 121.416 676.939 117.402C676.437 113.388 680.493 92.168 683.002 81.7984C685.51 71.4289 683.357 57.9233 683.357 57.9233V57.9442Z" fill="#002944"/>
<path d="M714.884 55.9374C721.511 72.098 714.006 95.4713 714.006 95.4713C710.514 78.579 692.702 67.6241 690.319 63.5264C687.936 59.4288 689.294 55.9374 689.294 55.9374C689.294 55.9374 690.653 54.2231 695.775 51.9025C695.775 51.9025 697.657 59.9723 708.884 60.1396C708.884 60.1396 713.734 59.4706 714.863 55.9374" fill="#D3D8F5"/>
<path d="M710.703 86.1052C710.703 86.1052 711.873 72.7043 707.755 63.7354L711.246 63.2964C711.246 63.2964 717.288 78.6417 717.372 85.9171L714.006 95.4504L710.682 86.1052H710.703Z" fill="#C9213A"/>
<path d="M707.441 59.9308L710.598 59.4708C711.162 59.3872 711.706 59.7635 711.811 60.328L712.166 62.1469C712.27 62.7322 711.894 63.2967 711.309 63.4012L708.256 63.9866C707.692 64.0912 707.148 63.7357 707.023 63.1713L706.584 61.2479C706.438 60.6416 706.856 60.0353 707.483 59.9517L707.441 59.9308Z" fill="#C9213A"/>
<path d="M691.176 54.4111C691.176 54.4111 682.751 56.8572 689.315 67.5821C693.518 74.4394 692.953 76.99 692.953 76.99C692.953 76.99 708.466 83.5337 714.027 95.4712C714.027 95.4712 712.271 82.6765 700.145 70.4672C696.235 66.5159 693.225 61.7075 691.657 56.3763C691.448 55.6655 691.281 54.9965 691.176 54.4111Z" fill="#001D30"/>
<path d="M714.027 95.4712C714.027 95.4712 721.595 71.5543 714.884 55.9373C714.884 55.9373 719.149 57.547 720.759 62.7318C722.389 67.9166 724.02 68.8574 724.02 68.8574C724.02 68.8574 724.459 78.4116 714.027 95.4712Z" fill="#001D30"/>
<path d="M708.675 7.45583C704.765 15.8811 703.114 25.3726 703.929 34.6341C704.765 43.8956 708.068 52.9272 713.441 60.5162C706.438 58.6973 699.288 56.5231 693.957 51.631C688.563 46.6971 685.469 39.5889 684.486 32.3344C683.503 25.0799 684.925 9.651 695.169 3.02368L708.675 7.45583Z" fill="#502C0C"/>
<path d="M704.723 184.888C704.723 184.888 706.898 175.564 705.748 164.483L708.612 161.306C708.612 161.306 708.695 176.358 704.723 184.888Z" fill="#001D30"/>
</svg>
