<svg width="1920" height="869" viewBox="0 0 1920 869" fill="none" xmlns="http://www.w3.org/2000/svg">
<path d="M581.948 1152.42C581.835 1152.64 581.579 1152.76 581.333 1152.68C581.057 1152.6 580.903 1152.31 580.985 1152.03C604.496 1074.89 574.716 986.886 548.439 909.245C545.655 901.021 543.029 893.254 540.466 885.515C529.081 851.102 516.564 816.276 504.459 782.595C478.168 709.451 450.983 633.819 433.42 557.011C424.679 518.783 416.539 478.194 421.265 439.123C425.082 407.582 442.092 384.747 459.905 364.774C500.178 319.614 552.691 286.811 603.478 255.087C606.886 252.959 610.284 250.835 613.673 248.714C616.841 246.73 620.018 244.743 623.198 242.758C672.253 212.1 722.981 180.399 762.802 137.575C774.39 125.115 784.1 110.766 793.494 96.8891C802.73 83.2477 812.28 69.1394 823.475 57.1028C836.032 43.6025 849.452 34.11 864.505 28.0816C892.662 16.8035 924.146 15.6172 954.595 14.4711C970.812 13.8615 987.584 13.2297 1003.41 11.0475C1072.09 1.59027 1136.85 -29.1885 1207.2 -85.8185C1207.43 -85.9974 1207.76 -85.9633 1207.93 -85.7407C1208.12 -85.5166 1208.08 -85.1895 1207.86 -85.0107C1137.34 -28.2573 1072.43 2.59044 1003.55 12.0747C987.672 14.2613 970.875 14.8961 954.631 15.507C924.268 16.6505 892.876 17.8326 864.888 29.0448C831.663 42.3523 813.539 69.1236 794.352 97.4669C784.938 111.376 775.202 125.759 763.562 138.278C723.645 181.206 672.86 212.943 623.746 243.634C620.566 245.619 617.392 247.608 614.224 249.592C610.833 251.716 607.435 253.84 604.028 255.967C553.303 287.653 500.855 320.418 460.679 365.465C442.978 385.316 426.075 407.991 422.294 439.248C417.586 478.152 425.707 518.642 434.428 556.778C451.977 633.529 479.151 709.128 505.433 782.244C517.539 815.93 530.061 850.762 541.448 885.188C544.007 892.925 546.635 900.689 549.419 908.913C562.05 946.218 576.361 988.503 584.226 1030.12C593.241 1077.82 592.505 1117.8 581.979 1152.34C581.971 1152.37 581.96 1152.4 581.948 1152.42Z" fill="url(#paint0_linear_2008_153)"/>
<path d="M1199.86 -89.3104C1199.83 -89.2485 1199.79 -89.1929 1199.73 -89.1435C1165.89 -61.165 1134.29 -39.8949 1103.13 -24.1169C1066.28 -5.46102 1030.04 5.66301 992.333 9.89054C976.952 11.6143 960.716 11.6934 945.015 11.7672C916.479 11.9036 886.972 12.0463 860.431 21.8961C827.679 34.0552 809.872 62.2576 792.656 89.5309C783.445 104.121 773.922 119.207 762.158 131.908C722.09 175.175 670.259 206.197 620.138 236.199C616.415 238.427 612.697 240.653 608.993 242.875C605.298 245.094 601.591 247.314 597.874 249.537C547.8 279.508 496.019 310.501 456.053 353.657C438.336 372.789 417.428 399.096 412.991 432.977C407.277 476.626 417.948 523.299 428.403 563.622C447.152 635.95 473.014 707.428 498.028 776.553C509.999 809.638 522.379 843.851 533.812 877.709C550.685 927.667 567.959 980.951 577.485 1034.79C583.578 1069.21 587.911 1109.62 573.829 1148.24C573.734 1148.51 573.431 1148.65 573.162 1148.55C572.893 1148.46 572.753 1148.16 572.85 1147.89C586.846 1109.5 582.531 1069.26 576.461 1034.97C566.945 981.204 549.687 927.966 532.824 878.041C521.393 844.196 509.017 809.989 497.047 776.908C472.027 707.76 446.156 636.259 427.397 563.882C416.919 523.466 406.223 476.676 411.963 432.842C416.439 398.669 437.47 372.195 455.292 352.95C495.359 309.686 547.202 278.654 597.339 248.645C601.055 246.421 604.761 244.204 608.457 241.982C612.163 239.757 615.88 237.534 619.604 235.303C669.663 205.339 721.43 174.359 761.397 131.2C773.095 118.567 782.594 103.524 791.777 88.9732C800.439 75.2515 809.397 61.0614 820.117 49.0876C832.146 35.6469 845.217 26.4319 860.072 20.9175C886.785 11.0034 916.384 10.8611 945.01 10.7236C960.685 10.6481 976.893 10.5704 992.217 8.85257C1061.16 1.12395 1126.89 -30.2705 1199.07 -89.95C1199.29 -90.1335 1199.62 -90.1023 1199.8 -89.8798C1199.93 -89.7132 1199.95 -89.4899 1199.86 -89.3104Z" fill="url(#paint1_linear_2008_153)"/>
<path d="M1191.68 -93.4449C1191.64 -93.383 1191.6 -93.3305 1191.55 -93.2842C1157.8 -64.7625 1126.24 -43.1558 1095.06 -27.2258C1058.12 -8.34865 1021.71 2.71253 983.747 6.59462C968.315 8.17235 951.98 8.00294 936.186 7.83913C907.642 7.54436 878.13 7.23735 851.67 16.996C819.398 28.8968 802.251 57.1922 785.668 84.5522C776.574 99.5558 767.173 115.068 755.337 127.911C715.374 171.286 663.276 201.975 612.896 231.652C609.044 233.919 605.202 236.184 601.371 238.45C597.55 240.71 593.716 242.967 589.873 245.232C539.543 274.879 487.5 305.537 447.641 348.798C421.893 376.744 408.06 401.839 404.109 427.779C397.546 470.871 408.274 517.622 418.843 558.057C437.881 630.882 464.347 702.75 489.943 772.252C502.194 805.521 514.866 839.925 526.55 873.979C543.8 924.244 561.428 977.817 570.858 1031.62C574.8 1054.12 576.522 1072.17 576.272 1088.42C575.957 1109.06 572.476 1127.28 565.631 1144.12C565.52 1144.39 565.222 1144.52 564.954 1144.41C564.686 1144.3 564.56 1144 564.667 1143.73C579.923 1106.19 575.838 1066.08 569.832 1031.81C560.418 978.079 542.8 924.547 525.563 874.324C513.882 840.281 501.214 805.884 488.961 772.618C463.357 703.093 436.88 631.203 417.831 558.33C412.485 537.88 407.097 515.885 403.92 493.652C400.367 468.812 400.093 447.216 403.075 427.633C407.057 401.479 420.974 376.21 446.869 348.104C486.831 304.732 538.94 274.034 589.338 244.347C593.18 242.082 597.015 239.825 600.835 237.565C604.665 235.302 608.507 233.037 612.361 230.767C662.676 201.127 714.704 170.481 754.565 127.218C766.328 114.45 775.702 98.9826 784.769 84.0239C793.11 70.2635 801.734 56.033 812.155 44.0517C823.857 30.597 836.662 21.4305 851.304 16.0297C877.945 6.20371 907.554 6.5128 936.19 6.80801C951.958 6.97015 968.263 7.13938 983.637 5.56759C1052.97 -1.52033 1118.82 -33.1825 1190.87 -94.0689C1191.09 -94.254 1191.42 -94.2277 1191.61 -94.005C1191.75 -93.8524 1191.77 -93.6243 1191.68 -93.4449Z" fill="url(#paint2_linear_2008_153)"/>
<path d="M1183.46 -97.6032C1183.43 -97.5444 1183.39 -97.4918 1183.33 -97.444C1151.01 -69.48 1120.09 -48.1262 1088.8 -32.1658C1052.98 -13.8928 1017.22 -2.87655 979.483 1.51055C963.695 3.34713 947.033 3.57615 930.924 3.79698C901.213 4.2054 870.492 4.62777 842.873 14.9656C810.057 27.2485 793.435 54.1694 775.837 82.6674C766.678 97.5017 757.206 112.838 745.276 125.782C705.328 169.125 653.503 200.138 603.388 230.128C599.631 232.377 595.882 234.619 592.146 236.864C588.419 239.101 584.679 241.34 580.933 243.583C530.863 273.545 479.089 304.526 439.244 347.758C422.941 365.445 400.672 392.898 395.5 426.928C388.911 470.294 399.663 516.813 410.258 557.012C429.316 629.315 455.866 700.608 481.542 769.552C493.832 802.553 506.541 836.676 518.26 870.461C535.554 920.325 553.234 973.496 562.683 1027.13C568.73 1061.44 572.832 1101.68 557.418 1139.96C557.311 1140.23 557.008 1140.36 556.74 1140.25C556.472 1140.14 556.345 1139.84 556.453 1139.57C571.767 1101.53 567.678 1061.48 561.658 1027.31C552.219 973.752 534.559 920.625 517.277 870.799C505.563 837.028 492.857 802.907 480.567 769.913C454.88 700.945 428.322 629.628 409.251 557.276C398.629 516.974 387.85 470.332 394.469 426.768C399.685 392.453 422.083 364.836 438.476 347.048C478.424 303.704 530.265 272.684 580.396 242.686C584.142 240.443 587.88 238.207 591.608 235.97C595.343 233.725 599.092 231.483 602.852 229.235C652.905 199.284 704.664 168.311 744.509 125.079C756.37 112.21 765.817 96.9146 774.946 82.1236C783.418 68.4026 792.182 54.2116 802.755 42.2372C814.618 28.8018 827.619 19.5633 842.505 13.9947C870.292 3.5941 901.106 3.17221 930.907 2.76266C946.993 2.54172 963.623 2.31241 979.357 0.483327C1049.67 -7.69478 1114.27 -39.0588 1182.65 -98.2257C1182.87 -98.4154 1183.19 -98.389 1183.38 -98.1726C1183.53 -98.0138 1183.55 -97.7857 1183.46 -97.6032Z" fill="url(#paint3_linear_2008_153)"/>
<path d="M1175.22 -101.766C1175.19 -101.711 1175.15 -101.656 1175.11 -101.612C1144.09 -74.0448 1113.71 -52.8156 1082.23 -36.7056C1047.43 -18.8947 1012.2 -7.7799 974.546 -2.72096C958.378 -0.548117 941.368 0.161659 924.917 0.850744C893.834 2.15058 861.69 3.49668 832.752 14.6207C799.208 27.5143 782.296 54.471 764.389 83.0111C755.176 97.6978 745.649 112.882 733.645 125.99C693.882 169.412 642.458 200.868 592.724 231.288C589.089 233.51 585.466 235.726 581.853 237.944C578.247 240.157 574.633 242.37 571.01 244.586C521.324 274.979 469.949 306.406 430.286 349.715C413.961 367.546 391.662 395.158 386.523 428.992C379.938 472.375 390.735 518.474 401.374 558.28C420.492 629.809 447.154 700.268 472.934 768.406C485.274 801.017 498.037 834.743 509.799 868.134C527.159 917.421 544.909 969.995 554.41 1023.23C560.491 1057.29 564.622 1097.29 549.184 1135.8C549.08 1136.06 548.774 1136.19 548.509 1136.09C548.242 1135.98 548.114 1135.68 548.221 1135.41C563.564 1097.15 559.445 1057.32 553.392 1023.42C543.903 970.255 526.173 917.727 508.823 868.48C497.064 835.098 484.305 801.381 471.967 768.775C446.175 700.613 419.502 630.131 400.371 558.55C389.706 518.641 378.88 472.415 385.496 428.833C387.697 414.342 392.932 400.246 401.502 385.747C408.393 374.09 417.556 362.075 429.519 349.012C469.279 305.594 520.72 274.129 570.465 243.696C574.088 241.48 577.705 239.269 581.309 237.054C584.921 234.836 588.549 232.619 592.18 230.395C641.854 200.011 693.213 168.591 732.876 125.282C744.815 112.243 754.317 97.0998 763.505 82.4549C772.138 68.6912 781.067 54.459 791.834 42.408C803.9 28.9007 817.162 19.4913 832.375 13.6451C861.472 2.46136 893.702 1.11261 924.869 -0.191487C941.296 -0.877586 958.282 -1.5875 974.4 -3.75438C1044.98 -13.2369 1110.4 -45.5011 1174.41 -102.392C1174.62 -102.583 1174.95 -102.563 1175.14 -102.347C1175.29 -102.181 1175.32 -101.952 1175.22 -101.766Z" fill="url(#paint4_linear_2008_153)"/>
<path d="M1157.98 -105.94C1157.95 -105.885 1157.91 -105.834 1157.86 -105.792C1127.82 -78.2872 1097.66 -56.9438 1065.64 -40.5432C1031.53 -23.0717 996.445 -11.7717 958.396 -5.99509C942.217 -3.54007 925.235 -2.32314 908.811 -1.15012C877.122 1.1176 844.356 3.46245 814.731 14.7399C778.974 28.3519 760.81 56.5682 741.585 86.4387C731.624 101.913 721.323 117.914 708.327 131.814C669.049 173.81 619.283 205.076 571.154 235.309C567.988 237.298 564.826 239.285 561.673 241.269C558.348 243.364 555.011 245.46 551.669 247.558C501.872 278.832 450.379 311.167 410.846 355.443C394.324 373.947 374.635 399.026 369.008 428.947C361.174 470.58 371.537 516.463 381.86 556.203C400.827 629.213 428.688 700.936 455.63 770.295C467.509 800.874 479.79 832.495 491.122 863.749C508.79 912.481 526.876 964.575 536.85 1018.56C543.15 1052.66 547.494 1092.76 531.945 1131.62C531.841 1131.89 531.535 1132.01 531.269 1131.91C531.001 1131.8 530.874 1131.5 530.978 1131.23C546.426 1092.62 542.099 1052.71 535.824 1018.75C525.866 964.849 507.798 912.799 490.143 864.109C478.815 832.864 466.534 801.251 454.659 770.678C427.704 701.29 399.835 629.539 380.851 556.469C370.497 516.621 360.11 470.602 367.984 428.76C373.661 398.587 393.455 373.36 410.067 354.754C449.696 310.367 501.255 277.991 551.115 246.679C554.457 244.581 557.794 242.485 561.119 240.39C564.273 238.403 567.435 236.416 570.602 234.427C618.674 204.228 668.386 173 707.572 131.102C720.505 117.271 730.779 101.31 740.716 85.8749C749.995 71.4583 759.592 56.5501 771.112 43.9319C784.014 29.8021 798.161 19.9347 814.368 13.7675C844.138 2.43488 876.979 0.0857133 908.741 -2.18787C925.147 -3.36253 942.107 -4.57486 958.244 -7.02387C1031.02 -18.0716 1096.09 -50.6306 1157.16 -106.561C1157.37 -106.754 1157.71 -106.742 1157.9 -106.528C1158.05 -106.363 1158.07 -106.129 1157.98 -105.94Z" fill="url(#paint5_linear_2008_153)"/>
<path d="M1140.73 -110.108C1140.7 -110.056 1140.67 -110.008 1140.62 -109.965C1082.56 -54.9999 1018.05 -21.9344 943.396 -8.88265C926.809 -5.9814 909.444 -4.19248 892.647 -2.46607C859.327 0.966331 824.873 4.51287 793.712 16.8826C756.888 31.4975 738.319 60.0328 718.662 90.241C708.677 105.586 698.355 121.452 685.347 135.607C646.528 177.854 597.344 209.737 549.78 240.574C546.769 242.525 543.765 244.476 540.768 246.422C537.608 248.476 534.441 250.526 531.266 252.585C482.043 284.483 431.145 317.472 392.051 361.986C374.603 381.852 356.022 406.123 350.481 435.498C342.692 476.796 353.134 521.977 363.531 561.085C382.628 632.918 410.645 703.372 437.736 771.508C449.677 801.543 462.028 832.601 473.425 863.305C475.903 869.983 478.467 876.751 481.181 883.922C495.25 921.08 511.194 963.196 519.825 1005.34C529.8 1054.06 528.122 1094 514.692 1127.46C514.583 1127.72 514.282 1127.85 514.017 1127.74C513.749 1127.64 513.622 1127.33 513.73 1127.07C543.782 1052.2 508.537 959.101 480.213 884.291C477.499 877.12 474.936 870.349 472.455 863.67C461.065 832.977 448.718 801.924 436.777 771.897C409.674 703.732 381.645 633.248 362.532 561.357C352.104 522.14 341.638 476.822 349.466 435.307C355.052 405.683 373.737 381.274 391.275 361.298C430.465 316.674 481.424 283.649 530.706 251.711C533.879 249.655 537.047 247.601 540.206 245.551C543.205 243.602 546.212 241.653 549.22 239.7C596.729 208.901 645.857 177.053 684.587 134.904C697.536 120.813 707.835 104.985 717.795 89.674C737.545 59.319 756.201 30.6522 793.332 15.9131C824.628 3.49135 859.157 -0.0641342 892.545 -3.50087C909.323 -5.22892 926.671 -7.01476 943.219 -9.90844C1017.66 -22.9255 1082 -55.9019 1139.91 -110.722C1140.12 -110.919 1140.45 -110.908 1140.65 -110.703C1140.8 -110.536 1140.83 -110.3 1140.73 -110.108Z" fill="url(#paint6_linear_2008_153)"/>
<path d="M1109.49 -114.282C1109.47 -114.232 1109.43 -114.187 1109.39 -114.146C1054.39 -60.1574 990.492 -26.5261 914.063 -11.3319C897.016 -7.94434 879.248 -5.53556 862.063 -3.20465C827.088 1.53497 790.919 6.43648 758.044 19.8743C719.997 35.4248 700.939 64.5177 680.767 95.3157C670.804 110.525 660.504 126.254 647.603 140.595C609.326 183.148 560.798 215.716 513.865 247.211C511.023 249.119 508.183 251.024 505.349 252.932C502.368 254.937 499.38 256.942 496.387 258.948C447.807 291.541 397.577 325.245 359.008 370.056C341.707 390.155 323.282 414.61 317.806 443.548C310.077 484.383 320.61 528.763 331.088 567.158C350.335 637.679 378.52 706.734 405.777 773.512C417.79 802.942 430.211 833.38 441.677 863.478C444.082 869.784 446.558 876.174 449.18 882.936C463.374 919.532 479.465 961.011 488.243 1002.61C498.392 1050.7 496.826 1090.18 483.457 1123.29C483.345 1123.55 483.048 1123.68 482.78 1123.57C482.512 1123.47 482.385 1123.16 482.493 1122.9C512.409 1048.81 476.812 957.046 448.212 883.313C445.587 876.549 443.111 870.16 440.708 863.85C429.248 833.763 416.827 803.333 404.815 773.908C377.546 707.1 349.347 638.019 330.085 567.436C319.576 528.931 309.017 484.413 316.782 443.36C322.304 414.178 340.829 389.587 358.219 369.381C396.88 324.465 447.169 290.721 495.806 258.091C498.799 256.085 501.787 254.08 504.768 252.075C507.601 250.17 510.443 248.262 513.285 246.354C560.164 214.894 608.64 182.362 646.83 139.905C659.677 125.623 669.956 109.928 679.898 94.7519C700.161 63.8131 719.303 34.592 757.65 18.9173C790.647 5.42884 826.882 0.521446 861.921 -4.22873C879.088 -6.55663 896.842 -8.96088 913.86 -12.3439C990.085 -27.4972 1053.81 -61.0378 1108.67 -114.879C1108.87 -115.078 1109.2 -115.078 1109.4 -114.873C1109.56 -114.717 1109.59 -114.473 1109.49 -114.282Z" fill="url(#paint7_linear_2008_153)"/>
<path d="M1081.28 -118.433C1081.26 -118.387 1081.23 -118.343 1081.19 -118.305C1054.1 -90.6698 1024.72 -68.6481 991.39 -50.9853C959.522 -34.1003 924.951 -21.6954 885.701 -13.0603C868.702 -9.32205 851 -6.39814 833.879 -3.57226C796.276 2.63596 757.393 9.05529 722.312 24.5948C695.98 36.2598 675.061 53.1233 660.141 74.7147C654.211 83.2948 648.881 92.3412 643.724 101.091C635.956 114.274 627.925 127.907 617.709 140.159C579.688 185.763 529.913 220.433 481.779 253.966C478.711 256.105 475.646 258.239 472.589 260.372C469.538 262.501 466.481 264.634 463.418 266.764C415.327 300.265 365.598 334.907 327.671 380.4C311.831 399.4 292.977 425.095 287.757 455.394C281.134 493.827 290.684 534.174 300.154 568.978C319.412 639.738 348.433 708.737 376.498 775.47C388.287 803.501 400.476 832.484 411.745 861.142C414.2 867.388 416.737 873.719 419.421 880.42C433.947 916.697 450.412 957.814 459.502 999.137C470.017 1046.94 468.623 1086.19 455.244 1119.14C455.13 1119.4 454.832 1119.53 454.567 1119.42C454.299 1119.31 454.174 1119.01 454.28 1118.75C484.216 1045.03 447.755 953.972 418.458 880.811C415.772 874.106 413.236 867.775 410.779 861.523C399.514 832.879 387.326 803.901 375.539 775.875C347.462 709.113 318.427 640.079 299.151 569.255C289.649 534.346 280.073 493.866 286.733 455.222C291.997 424.681 310.948 398.841 326.874 379.74C364.89 334.141 414.678 299.459 462.823 265.92C465.885 263.785 468.944 261.656 471.994 259.527C475.051 257.394 478.118 255.257 481.184 253.121C529.263 219.63 578.979 184.997 616.912 139.499C627.072 127.312 635.084 113.716 642.831 100.569C647.995 91.8036 653.338 82.7402 659.288 74.1277C674.318 52.3739 695.382 35.3902 721.893 23.6485C757.095 8.05374 796.045 1.62542 833.712 -4.59336C850.82 -7.41774 868.508 -10.3371 885.482 -14.0724C964.472 -31.4488 1028.25 -65.7784 1080.45 -119.028C1080.65 -119.233 1080.98 -119.238 1081.19 -119.037C1081.35 -118.878 1081.38 -118.631 1081.28 -118.433Z" fill="url(#paint8_linear_2008_153)"/>
<path d="M1028.1 -122.576C1028.07 -122.533 1028.05 -122.493 1028.01 -122.456C1001.9 -94.6859 972.829 -72.3604 939.142 -54.2077C908.069 -37.4647 873.673 -24.6294 833.989 -14.9698C816.539 -10.722 798.399 -7.21086 780.858 -3.8132C741.451 3.81785 700.701 11.7062 663.896 28.5651C636.272 41.2165 614.545 58.6963 599.311 80.5143C593.034 89.5052 587.463 99.0591 582.078 108.299C574.601 121.121 566.869 134.377 557.139 146.33C519.731 192.28 470.713 227.744 423.308 262.039C420.427 264.125 417.548 266.205 414.677 268.285C411.811 270.363 408.938 272.442 406.064 274.52C358.703 308.782 309.728 344.214 272.411 390.054C255.765 410.501 238.058 435.388 232.95 464.936C226.401 502.8 236.046 542.313 245.6 576.375C265.038 645.675 294.244 713.101 322.49 778.309C334.351 805.696 346.62 834.016 357.962 862.023C360.35 867.917 362.808 873.89 365.41 880.207C380.068 915.801 396.681 956.142 405.927 996.789C416.628 1043.84 415.362 1082.5 402.057 1114.98C401.949 1115.25 401.644 1115.38 401.378 1115.27C401.11 1115.16 400.984 1114.85 401.096 1114.59C430.874 1041.89 394.043 952.461 364.45 880.599C361.847 874.277 359.387 868.308 356.999 862.406C345.663 834.41 333.396 806.095 321.534 778.715C293.274 713.473 264.054 646.013 244.595 576.647C240.006 560.287 234.933 540.911 232.099 521.264C229.054 500.152 228.995 481.664 231.921 464.749C237.071 434.967 254.871 409.94 271.602 389.388C309.003 343.443 358.032 307.973 405.449 273.669C408.324 271.587 411.197 269.512 414.063 267.434C416.933 265.354 419.813 263.271 422.695 261.185C470.045 226.929 519.01 191.508 556.329 145.665C566.008 133.774 573.718 120.554 581.174 107.765C586.572 98.5076 592.158 88.9335 598.457 79.907C613.796 57.9329 635.667 40.3391 663.46 27.6063C700.376 10.6983 741.187 2.79474 780.658 -4.84687C798.187 -8.24303 816.317 -11.7511 833.741 -15.9929C915.78 -35.9617 977.268 -70.0214 1027.25 -123.179C1027.45 -123.387 1027.78 -123.398 1027.99 -123.203C1028.16 -123.03 1028.2 -122.777 1028.1 -122.576Z" fill="url(#paint9_linear_2008_153)"/>
<path d="M759.382 49.7428C759.276 49.5147 759.346 49.2404 759.56 49.0921C759.8 48.9275 760.124 48.9856 760.291 49.2233C806.476 115.952 894.702 147.361 972.543 175.07C980.789 178.004 988.574 180.778 996.298 183.585C1030.64 196.073 1066.01 207.925 1100.22 219.388C1174.52 244.279 1251.34 270.017 1323.06 304.089C1358.75 321.047 1395.92 339.954 1423.82 368.075C1446.35 390.779 1453.7 418.469 1458.29 445.007C1468.68 505.009 1461.62 566.965 1454.78 626.885C1454.32 630.904 1453.87 634.914 1453.42 638.915C1452.99 642.656 1452.57 646.406 1452.14 650.157C1445.55 708.043 1438.74 767.901 1447.56 826.087C1450.13 843.018 1455.37 859.646 1460.43 875.728C1465.41 891.538 1470.56 907.888 1473.03 924.245C1475.81 942.59 1474.88 959.117 1470.19 974.77C1461.42 1004.05 1442.58 1029.66 1424.37 1054.43C1414.66 1067.62 1404.63 1081.26 1396.41 1095.12C1360.75 1155.28 1344.4 1225.64 1344.95 1316.57C1344.96 1316.85 1344.72 1317.09 1344.43 1317.09C1344.14 1317.1 1343.91 1316.86 1343.91 1316.58C1343.35 1225.45 1359.75 1154.92 1395.51 1094.59C1403.76 1080.69 1413.81 1067.02 1423.53 1053.81C1441.69 1029.11 1460.47 1003.58 1469.19 974.471C1479.54 939.92 1469.78 908.893 1459.43 876.045C1454.36 859.926 1449.11 843.258 1446.53 826.249C1437.68 767.922 1444.51 707.996 1451.1 650.043C1451.53 646.292 1451.95 642.543 1452.38 638.802C1452.83 634.798 1453.28 630.788 1453.74 626.769C1460.57 566.922 1467.62 505.041 1457.26 445.187C1452.7 418.814 1445.4 391.308 1423.08 368.811C1395.3 340.807 1358.21 321.946 1322.61 305.03C1250.95 270.983 1174.16 245.257 1099.89 220.376C1065.67 208.911 1030.29 197.059 995.94 184.564C988.22 181.756 980.435 178.985 972.19 176.051C934.786 162.742 892.391 147.651 854.571 127.883C811.224 105.229 780.102 79.693 759.429 49.8208C759.41 49.7952 759.393 49.7682 759.382 49.7428Z" fill="url(#paint10_linear_2008_153)"/>
<path d="M1352.32 1312.95C1352.29 1312.88 1352.28 1312.81 1352.27 1312.74C1351.42 1268.54 1354.46 1230.31 1361.56 1195.85C1369.97 1155.09 1383.94 1119.52 1404.28 1087.1C1412.58 1073.87 1422.71 1061 1432.52 1048.55C1450.33 1025.92 1468.75 1002.53 1477.64 975.415C1488.6 941.954 1477.5 910.284 1466.77 879.661C1461.02 863.277 1455.09 846.338 1452.44 829.118C1443.42 770.46 1451.47 710.155 1459.24 651.836C1459.82 647.505 1460.39 643.178 1460.97 638.865C1461.53 634.562 1462.11 630.247 1462.68 625.924C1470.45 567.661 1478.49 507.414 1469.49 448.906C1465.51 422.969 1457.85 390.032 1433.87 365.378C1402.98 333.618 1359.4 312.913 1320.98 296.001C1252.06 265.662 1179.35 241.472 1109.03 218.081C1075.37 206.885 1040.57 195.307 1006.64 183.203C956.575 165.347 903.63 145.73 855.117 119.65C824.09 102.972 789.449 81.1733 767.779 45.9402C767.624 45.6966 767.705 45.371 767.952 45.219C768.198 45.067 768.522 45.1439 768.674 45.389C790.214 80.4089 824.709 102.114 855.617 118.728C904.067 144.771 956.966 164.371 1007 182.216C1040.92 194.313 1075.71 205.89 1109.37 217.085C1179.71 240.485 1252.44 264.683 1321.41 295.044C1359.92 311.996 1403.6 332.754 1434.62 364.651C1458.81 389.517 1466.52 422.656 1470.53 448.747C1479.55 507.401 1471.5 567.722 1463.73 626.058C1463.15 630.382 1462.57 634.693 1462.01 638.999C1461.44 643.315 1460.86 647.639 1460.28 651.973C1452.52 710.219 1444.48 770.448 1453.48 828.958C1456.11 846.085 1462.03 862.978 1467.76 879.314C1473.16 894.722 1478.74 910.655 1481.47 926.597C1484.54 944.489 1483.61 960.566 1478.63 975.742C1469.69 1003.03 1451.21 1026.5 1433.34 1049.2C1423.56 1061.63 1413.44 1074.48 1405.18 1087.65C1367.98 1146.94 1351.51 1218.45 1353.33 1312.72C1353.33 1313.01 1353.1 1313.25 1352.81 1313.25C1352.59 1313.25 1352.41 1313.13 1352.32 1312.95Z" fill="url(#paint11_linear_2008_153)"/>
<path d="M1360.73 1309.06C1360.7 1309 1360.68 1308.93 1360.68 1308.86C1359.35 1264.4 1362.1 1225.98 1369.09 1191.41C1377.38 1150.45 1391.51 1114.78 1412.28 1082.37C1420.72 1069.2 1431.12 1056.4 1441.17 1044.03C1459.33 1021.66 1478.1 998.544 1487.01 971.552C1497.88 938.632 1486.29 907.426 1475.09 877.247C1468.95 860.699 1462.6 843.59 1459.88 826.224C1450.71 767.581 1459.19 707.273 1467.38 648.953C1468.01 644.495 1468.63 640.047 1469.25 635.606C1469.86 631.177 1470.49 626.739 1471.11 622.291C1479.3 564.028 1487.76 503.782 1478.62 445.294C1472.71 407.511 1461.57 380.919 1443.56 361.606C1413.64 329.524 1369.96 308.814 1331.38 291.922C1261.89 261.502 1188.49 237.545 1117.51 214.379C1083.53 203.288 1048.39 191.823 1014.15 179.794C963.605 162.043 910.209 142.527 861.78 116.389C841.533 105.461 826.191 95.554 813.505 85.2094C797.402 72.0808 785.194 57.958 776.182 42.0344C776.041 41.7803 776.127 41.4642 776.38 41.3203C776.634 41.1763 776.954 41.2671 777.096 41.5166C797.179 77.0053 831.427 98.8126 862.279 115.464C910.637 141.565 963.994 161.065 1014.5 178.8C1048.73 190.822 1083.86 202.288 1117.84 213.375C1188.84 236.549 1262.27 260.51 1331.8 290.952C1351.31 299.495 1372.08 308.969 1391.64 320.338C1413.49 333.037 1430.72 346.301 1444.32 360.881C1462.48 380.352 1473.71 407.119 1479.65 445.117C1488.82 503.756 1480.34 564.08 1472.15 622.42C1471.52 626.869 1470.9 631.306 1470.28 635.735C1469.67 640.173 1469.04 644.621 1468.42 649.083C1460.23 707.328 1451.77 767.555 1460.92 826.047C1463.62 843.308 1469.95 860.368 1476.07 876.868C1481.7 892.045 1487.53 907.741 1490.45 923.451C1493.73 941.093 1492.93 956.93 1488 971.866C1479.03 999.044 1460.2 1022.24 1441.98 1044.67C1431.95 1057.03 1421.57 1069.8 1413.16 1082.93C1375.22 1142.12 1358.87 1213.9 1361.73 1308.82C1361.74 1309.1 1361.51 1309.35 1361.22 1309.36C1361.01 1309.37 1360.81 1309.24 1360.73 1309.06Z" fill="url(#paint12_linear_2008_153)"/>
<path d="M1369.18 1305.17C1369.15 1305.11 1369.13 1305.04 1369.13 1304.97C1367.33 1261.98 1369.88 1224.23 1376.93 1189.55C1384.99 1149.85 1398.74 1114.73 1418.98 1082.18C1427.44 1068.56 1437.72 1055.26 1447.67 1042.39C1466 1018.67 1484.96 994.14 1494.14 965.871C1505.05 932.283 1494.22 902.349 1482.75 870.659C1476.79 854.164 1470.62 837.108 1467.88 819.606C1458.73 760.995 1466.78 700.7 1474.56 642.394C1475.14 638.022 1475.72 633.661 1476.3 629.309C1476.87 624.968 1477.45 620.617 1478.03 616.258C1485.8 558.004 1493.84 497.769 1484.71 439.309C1480.98 415.392 1473.28 380.665 1449.64 355.337C1419.52 323.063 1376.01 302.517 1337.6 285.793C1268.51 255.714 1195.51 232.183 1124.92 209.429C1091.13 198.536 1056.19 187.275 1022.14 175.442C971.881 157.977 918.77 138.752 870.463 112.735C839.557 96.0928 805.192 74.2164 784.627 38.1431C784.485 37.8937 784.572 37.5729 784.826 37.429C785.08 37.2851 785.398 37.3727 785.541 37.6253C805.976 73.4666 840.19 95.2401 870.963 111.812C919.206 137.79 972.268 157.003 1022.49 174.455C1056.52 186.282 1091.46 197.545 1125.24 208.433C1195.86 231.194 1268.89 254.733 1338.02 284.833C1376.53 301.6 1420.15 322.201 1450.41 354.623C1474.25 380.163 1482 415.094 1485.76 439.147C1494.91 497.758 1486.86 558.07 1479.08 616.393C1478.5 620.753 1477.91 625.101 1477.34 629.442C1476.77 633.794 1476.18 638.155 1475.6 642.528C1467.83 700.761 1459.79 760.979 1468.92 819.439C1471.64 836.841 1477.79 853.85 1483.74 870.295C1489.26 885.551 1494.97 901.333 1497.79 917.159C1500.95 934.916 1500.09 950.952 1495.14 966.186C1485.9 994.628 1466.89 1019.23 1448.49 1043.03C1438.57 1055.87 1428.3 1069.15 1419.87 1082.72C1382.17 1143.36 1366.38 1213.97 1370.18 1304.92C1370.19 1305.2 1369.96 1305.45 1369.67 1305.46C1369.46 1305.48 1369.26 1305.35 1369.18 1305.17Z" fill="url(#paint13_linear_2008_153)"/>
<path d="M1377.64 1301.26C1377.62 1301.2 1377.6 1301.14 1377.59 1301.07C1375.29 1259.36 1377.6 1222.12 1384.64 1187.19C1392.43 1148.58 1405.77 1113.82 1425.42 1080.92C1433.86 1066.79 1443.98 1052.91 1453.77 1039.49C1472.26 1014.12 1491.39 987.893 1500.77 958.092C1511.65 923.547 1500.98 893.361 1489.68 861.401C1483.86 844.956 1477.85 827.952 1475.03 810.288C1465.7 751.775 1473.14 691.519 1480.34 633.246C1480.87 628.988 1481.39 624.742 1481.91 620.505C1482.43 616.275 1482.95 612.038 1483.47 607.793C1490.67 549.574 1498.1 489.376 1488.8 431.012C1484.96 406.986 1477.15 372.136 1453.65 346.958C1423.51 314.675 1380.31 294.428 1342.18 277.984C1273.66 248.436 1201.25 225.513 1131.23 203.344C1097.72 192.735 1063.06 181.763 1029.29 170.211C979.45 153.157 926.769 134.36 878.741 108.633C848.019 92.1795 813.82 70.472 793.093 34.2393C792.948 33.9913 793.039 33.6691 793.289 33.5267C793.543 33.3827 793.861 33.4703 794.003 33.7198C814.598 69.7252 848.645 91.3297 879.235 107.714C927.195 133.403 979.828 152.188 1029.63 169.224C1063.39 180.773 1098.04 191.742 1131.55 202.349C1201.6 224.525 1274.03 247.452 1342.6 277.023C1380.82 293.511 1424.14 313.815 1454.42 346.245C1464.49 357.03 1472.33 369.963 1478.41 385.783C1483.29 398.503 1487.03 413.241 1489.83 430.845C1499.16 489.354 1491.72 549.627 1484.52 607.918C1483.99 612.163 1483.47 616.401 1482.96 620.63C1482.44 624.867 1481.91 629.117 1481.39 633.374C1474.2 691.577 1466.76 751.759 1476.07 810.122C1478.87 827.692 1484.87 844.65 1490.67 861.05C1496.12 876.461 1501.76 892.397 1504.52 908.425C1507.61 926.388 1506.72 942.737 1501.78 958.403C1492.34 988.367 1473.17 1014.67 1454.62 1040.1C1444.85 1053.5 1434.74 1067.36 1426.33 1081.45C1389.49 1143.12 1373.9 1214.94 1378.65 1301.01C1378.66 1301.29 1378.44 1301.54 1378.15 1301.56C1377.93 1301.57 1377.73 1301.45 1377.64 1301.26Z" fill="url(#paint14_linear_2008_153)"/>
<path d="M1391.77 1290.24C1391.74 1290.19 1391.73 1290.12 1391.72 1290.06C1388.86 1249.16 1390.94 1212.01 1398.09 1176.48C1405.71 1138.63 1418.82 1103.87 1438.15 1070.21C1446.37 1055.89 1456.08 1041.72 1465.46 1028.01C1483.57 1001.57 1502.3 974.223 1512 943.782C1523.7 907.041 1512.81 875.081 1501.29 841.249C1495.32 823.722 1489.15 805.596 1486.33 786.654C1477.82 729.414 1484.37 670.587 1490.71 613.698C1491.13 609.956 1491.54 606.218 1491.96 602.489C1492.39 598.555 1492.83 594.61 1493.27 590.661C1499.84 531.804 1506.63 470.946 1496.48 412.081C1492.24 387.479 1484.79 356.273 1464.68 333.15C1436.71 300.975 1393.95 280.519 1356.08 263.867C1286.48 233.274 1212.32 210.51 1140.61 188.497C1108.99 178.792 1076.29 168.754 1044.48 158.196C994.889 141.732 942.375 123.5 893.46 97.6786C862.561 81.3681 828.153 59.7684 807.22 23.2312C807.075 22.9832 807.166 22.661 807.415 22.5154C807.668 22.3714 807.986 22.459 808.132 22.7071C828.934 59.0123 863.187 80.5105 893.952 96.7484C942.792 122.531 995.261 140.75 1044.82 157.198C1076.61 167.753 1109.3 177.786 1140.91 187.491C1212.66 209.513 1286.85 232.287 1356.5 262.903C1394.48 279.599 1437.36 300.121 1465.48 332.458C1485.75 355.777 1493.25 387.16 1497.51 411.896C1507.69 470.906 1500.89 531.842 1494.31 590.771C1493.87 594.721 1493.43 598.666 1493 602.6C1492.59 606.332 1492.17 610.07 1491.75 613.812C1485.42 670.635 1478.87 729.395 1487.36 786.502C1490.17 805.352 1496.33 823.43 1502.28 840.915C1507.84 857.243 1513.59 874.129 1516.33 891.105C1519.39 910.117 1518.3 927.451 1512.99 944.102C1503.25 974.692 1484.48 1002.1 1466.33 1028.61C1456.95 1042.3 1447.26 1056.45 1439.06 1070.73C1402.08 1135.11 1386.94 1206.83 1392.77 1289.99C1392.79 1290.27 1392.57 1290.53 1392.28 1290.55C1392.06 1290.56 1391.86 1290.44 1391.77 1290.24Z" fill="url(#paint15_linear_2008_153)"/>
<path d="M1405.89 1279.22C1405.87 1279.17 1405.85 1279.11 1405.84 1279.05C1398.89 1198.87 1413.28 1127.27 1449.85 1060.16C1457.97 1045.25 1467.47 1030.41 1476.65 1016.07C1494.87 987.607 1513.7 958.178 1523.5 925.843C1535.08 887.633 1524.2 855.153 1512.68 820.77C1506.83 803.303 1500.77 785.246 1497.76 766.135C1488.76 709.101 1494.46 650.348 1499.97 593.529C1500.32 589.932 1500.67 586.342 1501.01 582.76C1501.37 578.982 1501.74 575.2 1502.11 571.408C1507.82 512.615 1513.73 451.818 1503.11 393.151C1498.37 366.968 1490.87 337.141 1471.14 314.427C1443.41 282.496 1401.15 262.541 1363.73 246.342C1294.98 216.587 1221.73 194.739 1150.88 173.606C1119.66 164.289 1087.36 154.658 1055.95 144.494C1049.12 142.283 1042.16 140.083 1034.79 137.751C996.596 125.67 953.31 111.974 914.592 92.4823C869.841 69.9535 839.338 43.694 821.342 12.2023C821.199 11.9496 821.287 11.632 821.538 11.4896C821.792 11.3456 822.11 11.4333 822.253 11.6859C862.524 82.1541 958.214 112.431 1035.1 136.757C1042.47 139.089 1049.43 141.291 1056.27 143.501C1087.67 153.663 1119.96 163.294 1151.18 172.605C1222.05 193.747 1295.34 215.604 1364.14 245.383C1401.67 261.626 1444.05 281.647 1471.93 313.745C1491.83 336.649 1499.37 366.645 1504.14 392.968C1514.78 451.779 1508.87 512.646 1503.15 571.511C1502.78 575.3 1502.42 579.085 1502.05 582.86C1501.71 586.445 1501.36 590.037 1501.01 593.632C1495.51 650.384 1489.82 709.071 1498.79 765.974C1501.79 784.998 1507.83 803.013 1513.67 820.438C1525.25 854.987 1536.18 887.617 1524.5 926.148C1514.66 958.622 1495.79 988.116 1477.53 1016.63C1468.36 1030.97 1458.88 1045.78 1450.77 1060.66C1414.3 1127.59 1399.95 1198.99 1406.89 1278.96C1406.92 1279.24 1406.7 1279.5 1406.41 1279.53C1406.18 1279.54 1405.98 1279.42 1405.89 1279.22Z" fill="url(#paint16_linear_2008_153)"/>
<path d="M1428.8 1257.15C1428.78 1257.1 1428.77 1257.05 1428.76 1256.99C1420.65 1179.84 1434.21 1108.37 1470.21 1038.52C1478.24 1022.94 1487.49 1007.4 1496.44 992.371C1514.66 961.785 1533.51 930.156 1543.54 895.8C1555.15 856.04 1544.13 822.826 1532.47 787.667C1526.71 770.304 1520.75 752.349 1517.52 733.207C1507.94 676.41 1512.69 617.747 1517.28 561.016C1517.56 557.58 1517.84 554.147 1518.11 550.718C1518.4 547.112 1518.69 543.5 1518.99 539.883C1523.75 481.165 1528.67 420.449 1517.49 362.013C1512.47 335.8 1504.73 305.981 1485.3 283.592C1457.9 251.997 1416.22 232.614 1379.3 216.923C1311.5 188.106 1239.25 167.263 1169.37 147.109C1138.58 138.227 1106.73 129.039 1075.75 119.308C1069.26 117.271 1062.65 115.238 1055.66 113.088C1017.84 101.456 974.962 88.2741 936.588 69.2425C892.217 47.2374 862.014 21.3585 844.252 -9.86843C844.116 -10.1208 844.197 -10.4386 844.45 -10.5825C844.704 -10.7265 845.022 -10.6389 845.166 -10.3862C884.909 59.4914 979.761 88.6534 1055.97 112.088C1062.97 114.237 1069.57 116.27 1076.06 118.31C1107.03 128.039 1138.87 137.222 1169.66 146.102C1239.57 166.265 1311.85 187.113 1379.72 215.958C1416.73 231.692 1458.54 251.14 1486.09 282.9C1505.68 305.478 1513.47 335.461 1518.52 361.811C1529.72 420.386 1524.8 481.173 1520.03 539.96C1519.74 543.576 1519.44 547.188 1519.16 550.794C1518.88 554.221 1518.6 557.657 1518.33 561.092C1513.74 617.76 1509 676.358 1518.55 733.027C1521.77 752.09 1527.71 770.006 1533.46 787.333C1545.18 822.651 1556.24 856.012 1544.54 896.086C1534.47 930.571 1515.59 962.255 1497.34 992.898C1488.4 1007.91 1479.15 1023.44 1471.13 1038.99C1435.23 1108.66 1421.71 1179.93 1429.8 1256.87C1429.82 1257.16 1429.62 1257.42 1429.33 1257.45C1429.11 1257.48 1428.89 1257.35 1428.8 1257.15Z" fill="url(#paint17_linear_2008_153)"/>
<path d="M1449.8 1237.46C1449.78 1237.41 1449.77 1237.36 1449.76 1237.3C1444.94 1198.65 1445.99 1161.71 1452.97 1124.35C1459.65 1088.64 1471.56 1053.59 1489.39 1017.19C1497.11 1001.43 1505.92 985.624 1514.44 970.337C1533.15 936.759 1552.5 902.038 1562.25 864.628C1569.57 836.547 1569.39 809.497 1561.7 784.233C1558.65 774.194 1554.85 764.336 1551.17 754.802C1545.64 740.436 1539.91 725.582 1536.64 709.865C1524.49 651.365 1528.36 590.407 1532.1 531.454C1532.34 527.695 1532.58 523.942 1532.81 520.196C1533.05 516.457 1533.28 512.711 1533.52 508.961C1537.26 450.063 1541.12 389.158 1529 330.802C1523.94 306.429 1515.48 275.497 1494.82 252.461C1468.61 223.238 1430.74 205.596 1397.3 191.351C1329.3 162.394 1256.56 142.246 1186.22 122.759C1156.67 114.573 1126.11 106.11 1096.39 97.1225C1089.92 95.1623 1083.32 93.2142 1076.34 91.1515C1038.56 79.9803 995.737 67.3199 957.381 48.7059C913.012 27.1725 882.878 1.56908 865.252 -29.5632C865.115 -29.8188 865.201 -30.1349 865.451 -30.2773C865.705 -30.4213 866.024 -30.3305 866.167 -30.081C905.607 39.5829 1000.44 67.6198 1076.64 90.1466C1083.62 92.211 1090.22 94.1591 1096.7 96.1209C1126.4 105.103 1156.95 113.565 1186.5 121.749C1256.87 141.245 1329.65 161.403 1397.71 190.386C1431.26 204.671 1469.25 222.376 1495.6 251.759C1516.42 274.982 1524.93 306.081 1530.02 330.584C1542.17 389.076 1538.3 450.053 1534.56 509.019C1534.33 512.77 1534.09 516.515 1533.85 520.253C1533.62 524 1533.38 527.756 1533.14 531.511C1529.41 590.394 1525.54 651.284 1537.67 709.647C1540.91 725.28 1546.62 740.096 1552.15 754.422C1555.83 763.972 1559.63 773.85 1562.7 783.926C1570.45 809.377 1570.63 836.617 1563.26 864.888C1553.47 902.428 1534.09 937.207 1515.35 970.842C1506.84 986.119 1498.03 1001.91 1490.32 1017.65C1454.44 1090.89 1441.51 1162.7 1450.8 1237.17C1450.83 1237.46 1450.63 1237.72 1450.34 1237.76C1450.11 1237.79 1449.9 1237.66 1449.8 1237.46Z" fill="url(#paint18_linear_2008_153)"/>
<path d="M1486.48 1198.04C1486.46 1197.99 1486.44 1197.94 1486.43 1197.89C1480.9 1159.93 1481.51 1123.03 1488.33 1085.09C1494.62 1050.1 1506.08 1014.92 1523.37 977.541C1530.97 961.105 1539.59 944.585 1547.92 928.608C1566.64 892.717 1586 855.605 1595.8 816.009C1603.15 786.292 1602.99 758.218 1595.32 732.566C1592.16 721.995 1588.11 711.631 1584.19 701.609C1578.76 687.7 1573.14 673.318 1569.81 658.17C1557 599.939 1559.76 539.083 1562.44 480.231C1562.6 476.652 1562.77 473.08 1562.93 469.514C1563.09 465.953 1563.25 462.386 1563.41 458.818C1566.09 400.021 1568.85 339.219 1556.07 281.128C1550.37 255.216 1541.83 225.694 1521.7 203.215C1495.9 174.406 1458.62 157.36 1425.71 143.644C1358.75 115.739 1287.14 96.7203 1217.89 78.3278C1188.8 70.6014 1158.72 62.6142 1129.47 54.091C1123.32 52.2982 1117.05 50.5116 1110.43 48.6235C1073.1 37.983 1030.8 25.9238 992.88 7.85394C948.989 -13.0623 919.242 -38.1949 901.934 -68.9819C901.79 -69.2345 901.882 -69.5535 902.137 -69.6943C902.391 -69.8382 902.71 -69.7475 902.851 -69.4934C941.579 -0.595753 1035.36 26.1383 1110.72 47.6201C1117.35 49.5099 1123.61 51.2933 1129.78 53.091C1159.01 61.6123 1189.09 69.5978 1218.17 77.3193C1287.46 95.7223 1359.11 114.752 1426.13 142.681C1441.94 149.268 1460.43 157.356 1477.73 167.381C1496.32 178.155 1510.96 189.648 1522.49 202.518C1542.79 225.177 1551.38 254.86 1557.11 280.904C1569.92 339.127 1567.15 399.996 1564.47 458.864C1564.31 462.434 1564.14 465.999 1563.99 469.56C1563.83 473.126 1563.66 476.701 1563.5 480.279C1560.83 539.064 1558.06 599.852 1570.84 657.947C1574.16 673.014 1579.76 687.356 1585.18 701.23C1589.1 711.272 1593.16 721.66 1596.33 732.27C1604.06 758.104 1604.23 786.362 1596.83 816.263C1587 855.977 1567.62 893.148 1548.87 929.095C1540.54 945.062 1531.92 961.572 1524.33 977.983C1488.59 1055.25 1476.88 1125.08 1487.48 1197.74C1487.53 1198.03 1487.33 1198.3 1487.04 1198.34C1486.8 1198.37 1486.57 1198.24 1486.48 1198.04Z" fill="url(#paint19_linear_2008_153)"/>
<defs>
<linearGradient id="paint0_linear_2008_153" x1="474.054" y1="320.696" x2="894.973" y2="533.622" gradientUnits="userSpaceOnUse">
<stop stop-color="#3872FA"/>
<stop offset="1" stop-color="#B7DFED"/>
</linearGradient>
<linearGradient id="paint1_linear_2008_153" x1="464.34" y1="315.771" x2="886.834" y2="529.493" gradientUnits="userSpaceOnUse">
<stop stop-color="#3872FA"/>
<stop offset="1" stop-color="#B7DFED"/>
</linearGradient>
<linearGradient id="paint2_linear_2008_153" x1="455.701" y1="311.414" x2="878.645" y2="525.365" gradientUnits="userSpaceOnUse">
<stop stop-color="#3872FA"/>
<stop offset="1" stop-color="#B7DFED"/>
</linearGradient>
<linearGradient id="paint3_linear_2008_153" x1="448.533" y1="307.784" x2="870.428" y2="521.204" gradientUnits="userSpaceOnUse">
<stop stop-color="#3872FA"/>
<stop offset="1" stop-color="#B7DFED"/>
</linearGradient>
<linearGradient id="paint4_linear_2008_153" x1="442.198" y1="304.577" x2="862.194" y2="517.036" gradientUnits="userSpaceOnUse">
<stop stop-color="#3872FA"/>
<stop offset="1" stop-color="#B7DFED"/>
</linearGradient>
<linearGradient id="paint5_linear_2008_153" x1="427.581" y1="301.728" x2="844.953" y2="512.86" gradientUnits="userSpaceOnUse">
<stop stop-color="#3872FA"/>
<stop offset="1" stop-color="#B7DFED"/>
</linearGradient>
<linearGradient id="paint6_linear_2008_153" x1="413.595" y1="299.212" x2="827.703" y2="508.693" gradientUnits="userSpaceOnUse">
<stop stop-color="#3872FA"/>
<stop offset="1" stop-color="#B7DFED"/>
</linearGradient>
<linearGradient id="paint7_linear_2008_153" x1="386.152" y1="296.964" x2="796.465" y2="504.526" gradientUnits="userSpaceOnUse">
<stop stop-color="#3872FA"/>
<stop offset="1" stop-color="#B7DFED"/>
</linearGradient>
<linearGradient id="paint8_linear_2008_153" x1="362.267" y1="294.999" x2="768.254" y2="500.371" gradientUnits="userSpaceOnUse">
<stop stop-color="#3872FA"/>
<stop offset="1" stop-color="#B7DFED"/>
</linearGradient>
<linearGradient id="paint9_linear_2008_153" x1="313.263" y1="292.959" x2="715.073" y2="496.219" gradientUnits="userSpaceOnUse">
<stop stop-color="#3872FA"/>
<stop offset="1" stop-color="#B7DFED"/>
</linearGradient>
<linearGradient id="paint10_linear_2008_153" x1="1484.23" y1="483.698" x2="1051.66" y2="683.267" gradientUnits="userSpaceOnUse">
<stop stop-color="#3872FA"/>
<stop offset="1" stop-color="#B7DFED"/>
</linearGradient>
<linearGradient id="paint11_linear_2008_153" x1="1494.22" y1="479.102" x2="1060.04" y2="679.417" gradientUnits="userSpaceOnUse">
<stop stop-color="#3872FA"/>
<stop offset="1" stop-color="#B7DFED"/>
</linearGradient>
<linearGradient id="paint12_linear_2008_153" x1="1503.09" y1="474.996" x2="1068.44" y2="675.525" gradientUnits="userSpaceOnUse">
<stop stop-color="#3872FA"/>
<stop offset="1" stop-color="#B7DFED"/>
</linearGradient>
<linearGradient id="paint13_linear_2008_153" x1="1510.46" y1="471.6" x2="1076.89" y2="671.632" gradientUnits="userSpaceOnUse">
<stop stop-color="#3872FA"/>
<stop offset="1" stop-color="#B7DFED"/>
</linearGradient>
<linearGradient id="paint14_linear_2008_153" x1="1516.98" y1="468.597" x2="1085.36" y2="667.729" gradientUnits="userSpaceOnUse">
<stop stop-color="#3872FA"/>
<stop offset="1" stop-color="#B7DFED"/>
</linearGradient>
<linearGradient id="paint15_linear_2008_153" x1="1528.41" y1="458.83" x2="1099.48" y2="656.718" gradientUnits="userSpaceOnUse">
<stop stop-color="#3872FA"/>
<stop offset="1" stop-color="#B7DFED"/>
</linearGradient>
<linearGradient id="paint16_linear_2008_153" x1="1539.17" y1="449.353" x2="1113.61" y2="645.693" gradientUnits="userSpaceOnUse">
<stop stop-color="#3872FA"/>
<stop offset="1" stop-color="#B7DFED"/>
</linearGradient>
<linearGradient id="paint17_linear_2008_153" x1="1558.18" y1="429.079" x2="1136.52" y2="623.619" gradientUnits="userSpaceOnUse">
<stop stop-color="#3872FA"/>
<stop offset="1" stop-color="#B7DFED"/>
</linearGradient>
<linearGradient id="paint18_linear_2008_153" x1="1574.74" y1="411.438" x2="1157.52" y2="603.928" gradientUnits="userSpaceOnUse">
<stop stop-color="#3872FA"/>
<stop offset="1" stop-color="#B7DFED"/>
</linearGradient>
<linearGradient id="paint19_linear_2008_153" x1="1607.13" y1="374.005" x2="1194.2" y2="564.515" gradientUnits="userSpaceOnUse">
<stop stop-color="#3872FA"/>
<stop offset="1" stop-color="#B7DFED"/>
</linearGradient>
</defs>
</svg>
