<svg width="797" height="797" viewBox="0 0 797 797" fill="none" xmlns="http://www.w3.org/2000/svg">
<path opacity="0.43" d="M130.933 226.955C130.986 227.849 131.098 228.572 131.187 229.38L131.498 231.714L132.171 236.37C132.641 239.471 133.151 242.562 133.676 245.654C134.73 251.836 135.856 258.004 137.054 264.158C139.457 276.466 142.182 288.706 145.112 300.903C148.042 313.1 151.256 325.228 154.754 337.275C158.252 349.322 161.944 361.317 166.018 373.2C174.119 396.954 183.518 420.291 194.528 442.863C200.151 454.092 206.07 465.181 212.62 475.901C219.245 486.572 226.326 496.965 234.132 506.795C234.218 506.878 234.33 506.928 234.449 506.935C234.568 506.942 234.686 506.906 234.781 506.833C234.875 506.761 234.94 506.656 234.964 506.539C234.988 506.422 234.969 506.301 234.91 506.197C227.53 496.11 220.674 485.649 214.37 474.857C208.032 464.091 202.32 452.968 196.911 441.712C191.503 430.456 186.554 418.971 181.866 407.389C177.177 395.807 172.981 384.013 168.845 372.214C160.67 348.582 153.763 324.521 147.521 300.291C144.426 288.171 141.565 275.992 138.941 263.754C137.613 257.64 136.349 251.513 135.149 245.372L133.433 236.157L132.622 231.539L132.238 229.228C132.125 228.468 131.991 227.654 131.92 226.986L131.914 226.874C131.896 226.75 131.832 226.638 131.734 226.56C131.636 226.482 131.512 226.444 131.387 226.454C131.262 226.465 131.146 226.522 131.063 226.615C130.979 226.708 130.934 226.83 130.937 226.955L130.933 226.955Z" fill="white"/>
<path opacity="0.43" d="M215.63 164.783C215.434 165.608 215.338 166.321 215.202 167.074L214.851 169.299L214.197 173.752C213.781 176.723 213.409 179.696 213.041 182.676C212.322 188.632 211.671 194.595 211.087 200.566C209.931 212.509 209.1 224.474 208.447 236.463C207.793 248.451 207.441 260.446 207.366 272.449C207.292 284.452 207.4 296.46 207.894 308.458C208.841 332.453 211.097 356.418 215.028 380.129C217.125 391.961 219.529 403.744 222.614 415.363C225.779 426.954 229.442 438.419 233.923 449.561C233.968 449.681 234.059 449.777 234.175 449.83C234.292 449.882 234.424 449.887 234.544 449.841C234.663 449.796 234.76 449.705 234.812 449.589C234.865 449.473 234.869 449.34 234.824 449.221C230.812 437.956 227.381 426.492 224.547 414.875C221.671 403.275 219.473 391.516 217.583 379.71C215.694 367.904 214.292 356.03 213.151 344.13C212.01 332.23 211.375 320.282 210.807 308.338C209.757 284.437 209.977 260.49 210.867 236.572C211.332 224.616 212.03 212.667 212.96 200.726C213.416 194.755 213.927 188.791 214.494 182.833L215.432 173.906L215.946 169.447L216.22 167.224C216.325 166.498 216.424 165.713 216.541 165.084L216.561 164.977C216.587 164.853 216.563 164.724 216.493 164.618C216.424 164.512 216.316 164.438 216.192 164.412C216.068 164.386 215.938 164.41 215.832 164.479C215.726 164.549 215.652 164.657 215.626 164.781L215.63 164.783Z" fill="white"/>
<path d="M406.472 130.286L187.063 334.932C191.839 336.891 197.032 337.612 202.161 337.028L638.132 288.076C645.355 287.272 652.059 283.933 657.054 278.653L475.78 128.11C456.1 111.768 425.291 112.735 406.472 130.286Z" fill="url(#paint0_linear_3020_8405)"/>
<path d="M650.006 634.24L228.998 659.426C220.835 659.914 212.813 657.14 206.696 651.713C200.578 646.287 196.868 638.652 196.379 630.49L179.98 356.352C179.509 348.487 182.068 340.74 187.131 334.702C192.193 328.664 199.376 324.793 207.203 323.885L643.002 273.356C661.248 271.248 677.285 285.448 677.383 303.815L678.996 603.298C679.038 611.185 676.056 618.788 670.664 624.543C665.272 630.299 657.879 633.769 650.006 634.24Z" fill="url(#paint1_linear_3020_8405)"/>
<mask id="mask0_3020_8405" style="mask-type:luminance" maskUnits="userSpaceOnUse" x="176" y="123" width="499" height="378">
<path d="M189.974 360.987C265.945 402.886 342.934 473.833 398.151 498.327C401.662 499.889 405.525 500.487 409.344 500.06C413.163 499.632 416.799 498.193 419.877 495.892C470.064 458.286 576.908 350.159 674.644 257.247L649.043 123.873L176.275 131.995L189.974 360.987Z" fill="white"/>
</mask>
<g mask="url(#mask0_3020_8405)">
<path d="M223.924 165.625C296.52 166.605 459.808 159.017 605.263 157.086C612.093 156.995 619.127 168.231 619.704 174.912L667.594 730.217C668.247 737.739 662.587 744.371 654.924 745.061C592.255 750.713 334.122 773.073 241.597 766.534C235.965 766.137 231.556 761.635 231.345 756.095L209.439 178.958C209.141 171.119 215.935 165.518 223.924 165.625Z" fill="url(#paint2_linear_3020_8405)"/>
<path d="M228.236 175.238C294.868 174.251 460.287 167.037 597.247 163.817C608.597 163.544 609.103 184.174 609.657 190.603L655.189 718.565C655.815 725.804 650.37 732.185 642.998 732.85C582.687 738.288 334.282 759.805 245.234 753.516C239.813 753.133 235.571 748.807 235.368 743.47L214.294 188.064C214.008 180.523 220.545 175.35 228.236 175.238Z" fill="#91B3FA"/>
<path d="M250.487 344.075C250.13 344.093 249.781 344.182 249.46 344.338C249.139 344.493 248.852 344.712 248.618 344.981C248.383 345.25 248.205 345.564 248.095 345.903C247.985 346.243 247.944 346.601 247.975 346.956L248.859 357.369C248.926 358.098 249.273 358.772 249.828 359.25C250.383 359.727 251.101 359.971 251.832 359.93L589.276 338.2C589.631 338.179 589.978 338.087 590.296 337.927C590.614 337.768 590.896 337.545 591.125 337.273C591.353 337.001 591.524 336.685 591.626 336.344C591.728 336.003 591.76 335.646 591.719 335.292L591.024 328.915C590.935 328.181 590.572 327.507 590.009 327.028C589.446 326.549 588.723 326.299 587.984 326.327L250.487 344.075Z" fill="#BDD0FB"/>
<path d="M255.679 396.124C255.322 396.142 254.973 396.231 254.652 396.387C254.331 396.543 254.045 396.762 253.81 397.031C253.576 397.3 253.398 397.614 253.288 397.953C253.178 398.293 253.138 398.651 253.169 399.007L254.052 409.417C254.12 410.146 254.467 410.82 255.022 411.298C255.576 411.776 256.295 412.02 257.026 411.978L594.47 390.248C594.825 390.228 595.172 390.135 595.491 389.976C595.809 389.817 596.091 389.594 596.32 389.322C596.549 389.05 596.72 388.733 596.822 388.393C596.924 388.052 596.956 387.694 596.915 387.341L596.22 380.963C596.13 380.229 595.767 379.556 595.203 379.077C594.64 378.598 593.917 378.347 593.178 378.376L255.679 396.124Z" fill="#BDD0FB"/>
<path d="M258.47 449.317C258.113 449.334 257.763 449.422 257.441 449.577C257.119 449.732 256.832 449.951 256.597 450.22C256.361 450.489 256.183 450.802 256.072 451.142C255.961 451.482 255.919 451.841 255.951 452.197L256.834 462.607C256.901 463.336 257.249 464.011 257.804 464.489C258.359 464.966 259.078 465.21 259.809 465.168L597.253 443.44C597.608 443.419 597.955 443.326 598.273 443.167C598.591 443.007 598.873 442.785 599.101 442.513C599.33 442.24 599.501 441.924 599.603 441.584C599.705 441.243 599.737 440.886 599.696 440.532L599.002 434.153C598.911 433.419 598.549 432.746 597.986 432.267C597.423 431.787 596.7 431.537 595.962 431.566L258.47 449.317Z" fill="#BDD0FB"/>
<path d="M263.664 501.366C263.308 501.383 262.958 501.472 262.637 501.627C262.316 501.783 262.029 502.002 261.794 502.271C261.56 502.54 261.382 502.853 261.272 503.193C261.161 503.533 261.121 503.891 261.153 504.246L262.036 514.659C262.103 515.388 262.451 516.062 263.005 516.539C263.56 517.016 264.278 517.26 265.009 517.218L602.453 495.49C602.808 495.469 603.155 495.376 603.473 495.217C603.791 495.057 604.073 494.835 604.301 494.562C604.53 494.29 604.701 493.974 604.803 493.634C604.905 493.293 604.937 492.936 604.896 492.582L604.202 486.205C604.112 485.471 603.75 484.797 603.186 484.318C602.623 483.839 601.901 483.589 601.162 483.617L263.664 501.366Z" fill="#BDD0FB"/>
<path d="M250.97 293.788C249.46 293.833 248.527 295.07 248.897 296.535L251.334 306.134C251.548 306.869 251.999 307.511 252.617 307.961C253.236 308.411 253.986 308.643 254.75 308.62L360.338 301.822C360.697 301.799 361.047 301.705 361.368 301.545C361.69 301.385 361.976 301.163 362.211 300.892C362.446 300.621 362.624 300.305 362.736 299.964C362.848 299.623 362.891 299.263 362.862 298.905L362.4 293.118C362.332 292.383 361.989 291.701 361.439 291.208C360.889 290.716 360.173 290.45 359.435 290.463L250.97 293.788Z" fill="#BDD0FB"/>
<path d="M390.088 289.999L390.349 297.76C390.36 298.117 390.443 298.468 390.592 298.793C390.742 299.117 390.956 299.407 391.221 299.647C391.485 299.887 391.796 300.071 392.133 300.187C392.47 300.304 392.828 300.352 393.184 300.328L581.61 288.195C581.967 288.173 582.316 288.079 582.636 287.92C582.955 287.76 583.24 287.538 583.472 287.267C583.705 286.995 583.88 286.679 583.988 286.339C584.096 285.998 584.135 285.639 584.102 285.283L583.573 279.498C583.496 278.763 583.144 278.084 582.586 277.599C582.029 277.114 581.308 276.859 580.57 276.885L394.447 285.269C393.244 285.326 392.113 285.854 391.297 286.74C390.481 287.625 390.047 288.796 390.088 289.999Z" fill="#BDD0FB"/>
</g>
<path d="M533.229 333.45C533.229 333.45 541.065 336.696 542.719 340.867C544.046 344.214 552.49 344.146 553.724 350.812C554.359 354.253 557.09 356.876 560.574 357.198C569.252 358 582.767 361.673 585.781 376.474C588.084 387.769 582.531 392.439 576.525 394.298C572.113 395.664 569.397 400.196 570.573 404.662C571.702 408.946 570.707 414.036 563.433 418.448C547.132 428.337 528.543 399.42 528.543 399.42L521.973 347.381L533.229 333.45Z" fill="url(#paint3_linear_3020_8405)"/>
<path d="M452.353 310.638C452.353 310.638 477.543 368.383 515.541 384.627C515.541 384.627 504.458 405.403 498.121 407.003C498.121 407.003 455.68 358.913 449.187 317.808L452.353 310.638Z" fill="url(#paint4_linear_3020_8405)"/>
<path d="M622.012 656.906L623.635 665.794C623.782 666.614 624.201 667.361 624.824 667.914C625.448 668.467 626.239 668.794 627.071 668.842C629.96 668.999 634.587 669.059 639.064 668.314C639.526 668.233 639.964 668.05 640.347 667.78C640.73 667.51 641.049 667.158 641.279 666.75C641.51 666.342 641.648 665.888 641.682 665.42C641.717 664.953 641.647 664.483 641.479 664.046C640.174 660.655 637.854 655.587 634.772 652.707L624.844 653.301C624.412 653.327 623.99 653.444 623.606 653.645C623.222 653.846 622.885 654.126 622.617 654.467C622.35 654.808 622.157 655.201 622.053 655.622C621.949 656.042 621.935 656.48 622.012 656.906Z" fill="url(#paint5_linear_3020_8405)"/>
<path d="M537.942 556.67L536.854 566.633C536.854 566.633 545.87 623.164 548.23 645.86C548.599 649.415 547.892 652.999 546.202 656.148L537.39 672.586L561.324 656.459L561.636 653.403L557.249 648.062L558.759 584.039C558.846 580.277 557.848 576.57 555.883 573.361L550.175 564.027L537.942 556.67Z" fill="url(#paint6_linear_3020_8405)"/>
<path d="M535.889 674.971L543.805 674.497C544.536 674.455 545.247 674.246 545.884 673.885C546.521 673.523 547.067 673.021 547.478 672.415C549.754 669.062 554.494 662.498 556.929 662.19C560.208 661.772 560.487 673.499 560.487 673.499L562.333 673.389L563.799 658.708C563.979 656.907 563.588 655.095 562.681 653.529C561.773 651.963 560.397 650.721 558.745 649.981C558.745 649.981 558.324 655.59 554.393 658.295C550.462 661.001 538.454 670.566 538.454 670.566C537.375 670.505 536.292 670.598 535.24 670.844C532.783 671.444 533.351 675.123 535.889 674.971Z" fill="url(#paint7_linear_3020_8405)"/>
<path d="M572.202 559.323C572.202 559.323 608.825 619.743 614.904 633.675C620.984 647.607 623.529 659.388 623.664 660.501C623.879 662.253 626.168 663.807 632.195 663.447C635.307 663.261 636.756 661.924 637.43 660.671C637.708 660.143 637.847 659.553 637.835 658.956C637.823 658.36 637.659 657.776 637.36 657.26C635.227 653.524 628.453 641.579 625.883 636.133C622.814 629.629 615.266 599.777 611.487 589.467C607.709 579.156 603.47 567.987 589.126 558.31C589.126 558.31 579.159 549.653 572.202 559.323Z" fill="url(#paint8_linear_3020_8405)"/>
<path d="M545.31 458.339C534.676 422.897 554.952 401.278 554.952 401.278C540.613 389.072 515.549 384.626 515.549 384.626C515.549 384.626 493.004 403.274 496.607 416.598C498.718 424.401 516.013 462.973 516.013 462.973C516.013 462.973 530.209 468.681 545.31 458.339Z" fill="url(#paint9_linear_3020_8405)"/>
<path d="M565.186 475.012C561.12 464.818 545.31 458.34 545.31 458.34C530.213 468.682 516.013 462.974 516.013 462.974C516.013 462.974 513.625 474.995 516.421 485.869C519.217 496.742 536.854 566.634 536.854 566.634C558.24 569.651 590.223 559.119 590.223 559.119C575.335 536.029 569.261 485.207 565.186 475.012Z" fill="url(#paint10_linear_3020_8405)"/>
<path d="M529.542 359.947L538.284 390.519C539.108 393.209 536.597 392.91 533.803 392.556C529.234 391.974 523.314 390.567 521.149 387.169C520.938 386.816 520.795 386.428 520.726 386.023L516.478 364.724C516.315 363.902 516.423 363.049 516.787 362.294C517.151 361.539 517.75 360.922 518.494 360.537L524.062 357.66C524.564 357.399 525.118 357.25 525.684 357.226C526.25 357.202 526.815 357.303 527.337 357.521C527.86 357.739 528.329 358.07 528.71 358.489C529.091 358.908 529.375 359.406 529.542 359.947Z" fill="url(#paint11_linear_3020_8405)"/>
<path d="M554.952 401.278C554.952 401.278 605.155 432.841 565.335 471.545C565.335 471.545 563.843 473.453 560.749 474.583C559.189 475.152 554.697 478.993 552.423 480.992C552.251 481.143 552.049 481.256 551.829 481.324C551.61 481.391 551.38 481.412 551.152 481.385C550.924 481.358 550.705 481.283 550.508 481.166C550.311 481.048 550.141 480.891 550.009 480.703C549.791 480.398 549.653 480.042 549.609 479.67C549.565 479.297 549.615 478.919 549.755 478.571L554.96 465.613C555.716 464.817 556.732 464.317 557.824 464.204C558.916 464.091 560.012 464.372 560.915 464.996C561.193 465.191 561.511 465.321 561.846 465.376C562.181 465.432 562.524 465.412 562.85 465.317C563.175 465.223 563.476 465.057 563.729 464.831C563.983 464.605 564.182 464.325 564.313 464.012C567.159 457.207 572.129 437.399 545.731 416.935C545.25 416.56 544.909 416.034 544.763 415.442C544.617 414.849 544.674 414.225 544.925 413.669C546.485 410.174 550.115 403.209 554.952 401.278Z" fill="url(#paint12_linear_3020_8405)"/>
<path d="M519.684 330.934C519.684 330.934 511.721 334.867 506.874 347.009C502.027 359.151 506.488 364.349 511.754 364.785C517.019 365.22 524.795 364.641 532.58 356.522C540.366 348.403 530.059 326.206 519.684 330.934Z" fill="url(#paint13_linear_3020_8405)"/>
<path d="M526.662 350.55C526.662 350.55 531.792 332.91 516.467 333.623L513.015 336.355C513.015 336.355 506.824 327.116 515.771 321.994C524.719 316.871 535.739 320.002 540.405 332.191C545.07 344.38 546.24 352.655 540.068 358.99C533.896 365.324 530.8 358.745 530.8 358.745C530.8 358.745 534.023 352.973 532.399 350.085C530.774 347.197 527.65 350.979 527.65 350.979L526.662 350.55Z" fill="url(#paint14_linear_3020_8405)"/>
<path d="M528.495 352.371C528.495 352.371 531.079 343.288 535.448 346.583C539.818 349.878 532.561 355.003 529.701 356.686L528.495 352.371Z" fill="url(#paint15_linear_3020_8405)"/>
<path d="M450.918 321.509C450.65 322.578 454.571 323.95 456.567 319.518C456.523 317.455 457.247 308.559 455.917 306.951C448.83 298.408 435.465 287.97 435.465 287.97C433.444 290.215 435.337 292.192 435.337 292.192L441.885 298.244C440.736 300.651 439.281 302.71 438.712 305.573C438.302 307.755 438.746 310.013 439.953 311.877C441.152 313.761 442.78 316.207 444.293 318.105C447.149 321.706 450.918 321.509 450.918 321.509Z" fill="url(#paint16_linear_3020_8405)"/>
<path d="M447.532 317.304C446.916 314.744 445.077 307.766 444.003 306.23C443.256 305.163 442.976 304.258 443.153 303.435C443.299 302.757 443.748 302.205 444.526 301.748L444.856 301.552L451.185 306.299L453.3 311.07L452.247 311.54L450.261 307.041L444.805 302.951C444.549 303.125 444.363 303.384 444.28 303.682C444.18 304.152 444.403 304.785 444.949 305.566C446.368 307.591 448.564 316.642 448.659 317.025L447.532 317.304Z" fill="url(#paint17_linear_3020_8405)"/>
<path d="M328.715 204.016L329.754 230.177L324.976 230.366L312.941 214.353L312.749 214.36L313.403 230.826L307.872 231.046L306.833 204.884L311.687 204.692L323.633 220.696L323.863 220.687L323.209 204.234L328.715 204.016ZM357.845 215.96C357.958 218.813 357.514 221.262 356.512 223.306C355.518 225.35 354.114 226.936 352.3 228.066C350.493 229.187 348.436 229.793 346.128 229.885C343.803 229.977 341.696 229.532 339.806 228.549C337.916 227.567 336.395 226.096 335.243 224.137C334.09 222.179 333.457 219.777 333.344 216.933C333.231 214.08 333.671 211.632 334.665 209.588C335.658 207.544 337.058 205.962 338.865 204.841C340.671 203.711 342.736 203.101 345.061 203.008C347.369 202.917 349.468 203.362 351.358 204.345C353.256 205.318 354.781 206.785 355.934 208.743C357.095 210.702 357.732 213.107 357.845 215.96ZM352.237 216.183C352.164 214.335 351.825 212.787 351.221 211.54C350.626 210.293 349.817 209.362 348.795 208.745C347.772 208.129 346.592 207.848 345.255 207.901C343.918 207.954 342.765 208.328 341.794 209.023C340.824 209.719 340.087 210.712 339.584 212.003C339.089 213.293 338.879 214.862 338.952 216.71C339.026 218.558 339.36 220.106 339.955 221.353C340.559 222.6 341.372 223.532 342.395 224.148C343.417 224.764 344.597 225.045 345.934 224.992C347.271 224.939 348.425 224.565 349.395 223.87C350.365 223.175 351.098 222.182 351.593 220.891C352.096 219.6 352.311 218.031 352.237 216.183ZM380.223 201.97L385.69 201.753L386.415 219.995C386.482 221.681 386.161 223.161 385.452 224.434C384.752 225.707 383.747 226.707 382.437 227.432C381.126 228.158 379.586 228.556 377.814 228.627C376.239 228.689 374.797 228.469 373.489 227.967C372.189 227.455 371.142 226.644 370.348 225.533C369.552 224.413 369.125 222.984 369.064 221.246L374.57 221.028C374.614 221.717 374.778 222.303 375.062 222.787C375.354 223.261 375.739 223.621 376.218 223.867C376.705 224.103 377.272 224.209 377.919 224.183C378.601 224.156 379.17 223.988 379.627 223.68C380.092 223.363 380.436 222.914 380.661 222.334C380.885 221.754 380.98 221.046 380.947 220.212L380.223 201.97ZM414.824 213.698C414.937 216.551 414.492 218.999 413.49 221.043C412.497 223.087 411.093 224.674 409.278 225.804C407.472 226.925 405.415 227.531 403.107 227.622C400.782 227.715 398.675 227.27 396.785 226.287C394.895 225.304 393.374 223.834 392.221 221.875C391.069 219.916 390.436 217.515 390.323 214.671C390.21 211.818 390.65 209.369 391.643 207.325C392.637 205.282 394.037 203.699 395.843 202.578C397.649 201.449 399.715 200.838 402.04 200.746C404.348 200.654 406.446 201.1 408.336 202.082C410.234 203.056 411.76 204.522 412.912 206.481C414.073 208.439 414.71 210.845 414.824 213.698ZM409.216 213.92C409.142 212.072 408.804 210.525 408.2 209.278C407.604 208.031 406.795 207.099 405.773 206.483C404.751 205.867 403.571 205.585 402.234 205.638C400.897 205.691 399.743 206.066 398.773 206.761C397.803 207.456 397.066 208.449 396.563 209.74C396.068 211.031 395.857 212.6 395.931 214.448C396.004 216.296 396.339 217.844 396.934 219.091C397.538 220.338 398.351 221.269 399.373 221.885C400.396 222.502 401.576 222.783 402.913 222.73C404.25 222.677 405.403 222.303 406.374 221.607C407.344 220.912 408.076 219.919 408.571 218.629C409.074 217.338 409.289 215.768 409.216 213.92ZM419.44 226.616L418.401 200.454L428.876 200.039C430.801 199.962 432.417 200.184 433.726 200.703C435.035 201.223 436.033 201.976 436.72 202.964C437.407 203.943 437.777 205.089 437.829 206.4C437.869 207.422 437.701 208.329 437.323 209.12C436.944 209.902 436.407 210.555 435.712 211.077C435.024 211.591 434.229 211.968 433.326 212.208L433.336 212.464C434.334 212.467 435.277 212.711 436.167 213.196C437.064 213.68 437.804 214.38 438.387 215.295C438.969 216.202 439.285 217.298 439.336 218.584C439.391 219.972 439.095 221.225 438.449 222.343C437.811 223.451 436.835 224.347 435.523 225.03C434.211 225.714 432.576 226.094 430.617 226.172L419.44 226.616ZM424.792 221.874L429.301 221.695C430.842 221.634 431.955 221.295 432.638 220.68C433.322 220.056 433.643 219.25 433.604 218.262C433.576 217.538 433.376 216.906 433.004 216.366C432.633 215.827 432.118 215.412 431.458 215.123C430.807 214.833 430.039 214.706 429.153 214.741L424.516 214.925L424.792 221.874ZM424.367 211.182L428.468 211.019C429.226 210.989 429.893 210.831 430.47 210.543C431.056 210.247 431.509 209.845 431.83 209.338C432.159 208.83 432.31 208.231 432.283 207.541C432.245 206.596 431.879 205.847 431.183 205.295C430.496 204.742 429.539 204.49 428.313 204.539L424.11 204.706L424.367 211.182ZM451.548 225.341L450.509 199.18L460.83 198.77C462.815 198.691 464.52 199.003 465.947 199.705C467.373 200.399 468.479 201.4 469.265 202.708C470.058 204.007 470.49 205.525 470.558 207.263C470.627 209 470.314 210.548 469.617 211.906C468.92 213.264 467.876 214.342 466.483 215.139C465.099 215.936 463.402 216.375 461.392 216.455L454.813 216.716L454.637 212.283L460.322 212.058C461.386 212.015 462.256 211.797 462.931 211.404C463.615 211.001 464.114 210.466 464.428 209.796C464.751 209.118 464.895 208.349 464.861 207.489C464.827 206.62 464.622 205.869 464.247 205.236C463.881 204.594 463.341 204.108 462.628 203.778C461.916 203.439 461.023 203.291 459.95 203.334L456.22 203.482L457.079 225.121L451.548 225.341ZM498.359 210.381C498.473 213.234 498.028 215.682 497.026 217.727C496.033 219.77 494.628 221.357 492.814 222.487C491.008 223.608 488.95 224.214 486.643 224.306C484.318 224.398 482.21 223.953 480.32 222.97C478.43 221.988 476.909 220.517 475.757 218.558C474.604 216.6 473.972 214.198 473.859 211.354C473.745 208.501 474.186 206.053 475.179 204.009C476.173 201.965 477.573 200.382 479.379 199.262C481.185 198.132 483.251 197.521 485.575 197.429C487.883 197.337 489.982 197.783 491.872 198.766C493.77 199.739 495.295 201.206 496.448 203.164C497.609 205.122 498.246 207.528 498.359 210.381ZM492.751 210.604C492.678 208.756 492.339 207.208 491.736 205.961C491.14 204.714 490.331 203.782 489.309 203.166C488.286 202.55 487.107 202.268 485.77 202.322C484.433 202.375 483.279 202.749 482.309 203.444C481.338 204.139 480.602 205.132 480.098 206.423C479.604 207.714 479.393 209.283 479.466 211.131C479.54 212.979 479.874 214.527 480.47 215.774C481.074 217.021 481.887 217.952 482.909 218.569C483.932 219.185 485.111 219.466 486.448 219.413C487.785 219.36 488.939 218.986 489.909 218.291C490.88 217.595 491.612 216.602 492.107 215.312C492.61 214.021 492.825 212.452 492.751 210.604ZM516.428 204.098C516.285 203.072 515.814 202.289 515.017 201.749C514.219 201.209 513.156 200.965 511.828 201.018C510.925 201.054 510.168 201.212 509.556 201.492C508.944 201.764 508.481 202.128 508.167 202.584C507.861 203.039 507.719 203.548 507.741 204.11C507.743 204.579 507.857 204.984 508.084 205.325C508.319 205.665 508.633 205.956 509.027 206.196C509.42 206.428 509.871 206.627 510.381 206.795C510.89 206.954 511.433 207.086 512.009 207.191L514.381 207.659C515.533 207.87 516.594 208.169 517.564 208.556C518.535 208.944 519.382 209.435 520.105 210.029C520.828 210.623 521.398 211.334 521.815 212.162C522.24 212.99 522.478 213.948 522.53 215.038C522.585 216.639 522.231 218.044 521.469 219.251C520.715 220.449 519.593 221.402 518.103 222.11C516.621 222.808 514.815 223.2 512.686 223.284C510.574 223.368 508.722 223.118 507.129 222.533C505.545 221.947 504.289 221.038 503.362 219.804C502.442 218.561 501.924 216.999 501.807 215.119L507.159 214.906C507.253 215.781 507.534 216.503 508 217.073C508.474 217.635 509.092 218.049 509.853 218.318C510.623 218.577 511.484 218.688 512.438 218.65C513.375 218.613 514.183 218.444 514.862 218.144C515.549 217.844 516.075 217.444 516.439 216.943C516.803 216.442 516.972 215.877 516.947 215.247C516.924 214.659 516.73 214.172 516.365 213.786C516.008 213.399 515.492 213.078 514.817 212.824C514.15 212.569 513.335 212.345 512.372 212.153L509.495 211.551C507.268 211.102 505.493 210.332 504.171 209.242C502.848 208.151 502.152 206.639 502.084 204.706C502.013 203.122 502.379 201.722 503.184 200.504C503.997 199.286 505.14 198.316 506.612 197.592C508.085 196.868 509.775 196.468 511.682 196.392C513.624 196.315 515.332 196.58 516.806 197.187C518.289 197.793 519.458 198.672 520.314 199.824C521.17 200.976 521.642 202.33 521.729 203.888L516.428 204.098ZM524.693 200.802L524.512 196.241L545.998 195.388L546.179 199.949L538.17 200.267L539.027 221.867L533.56 222.085L532.702 200.484L524.693 200.802Z" fill="white"/>
<defs>
<linearGradient id="paint0_linear_3020_8405" x1="181.095" y1="235.167" x2="652.764" y2="206.95" gradientUnits="userSpaceOnUse">
<stop stop-color="#3872FA"/>
<stop offset="1" stop-color="#B7DFED"/>
</linearGradient>
<linearGradient id="paint1_linear_3020_8405" x1="187.45" y1="481.236" x2="686.258" y2="451.396" gradientUnits="userSpaceOnUse">
<stop stop-color="#3872FA"/>
<stop offset="1" stop-color="#99DCF4"/>
</linearGradient>
<linearGradient id="paint2_linear_3020_8405" x1="613.001" y1="160.44" x2="33.9097" y2="1138.47" gradientUnits="userSpaceOnUse">
<stop stop-color="#4042E2"/>
<stop offset="1" stop-color="#4F52FF"/>
</linearGradient>
<linearGradient id="paint3_linear_3020_8405" x1="518.016" y1="303.78" x2="543.987" y2="359.075" gradientUnits="userSpaceOnUse">
<stop stop-color="#09005D"/>
<stop offset="1" stop-color="#1A0F91"/>
</linearGradient>
<linearGradient id="paint4_linear_3020_8405" x1="408.322" y1="272.292" x2="499.315" y2="386.517" gradientUnits="userSpaceOnUse">
<stop stop-color="#FF928E"/>
<stop offset="1" stop-color="#FEB3B1"/>
</linearGradient>
<linearGradient id="paint5_linear_3020_8405" x1="622.262" y1="661.499" x2="641.412" y2="660.353" gradientUnits="userSpaceOnUse">
<stop stop-color="#09005D"/>
<stop offset="1" stop-color="#1A0F91"/>
</linearGradient>
<linearGradient id="paint6_linear_3020_8405" x1="629.764" y1="820.692" x2="556.465" y2="646.106" gradientUnits="userSpaceOnUse">
<stop stop-color="#FF928E"/>
<stop offset="1" stop-color="#FEB3B1"/>
</linearGradient>
<linearGradient id="paint7_linear_3020_8405" x1="533.09" y1="663.327" x2="564.074" y2="661.474" gradientUnits="userSpaceOnUse">
<stop stop-color="#09005D"/>
<stop offset="1" stop-color="#1A0F91"/>
</linearGradient>
<linearGradient id="paint8_linear_3020_8405" x1="685.538" y1="797.278" x2="612.24" y2="622.69" gradientUnits="userSpaceOnUse">
<stop stop-color="#FF928E"/>
<stop offset="1" stop-color="#FEB3B1"/>
</linearGradient>
<linearGradient id="paint9_linear_3020_8405" x1="527.119" y1="417.027" x2="548.544" y2="544.041" gradientUnits="userSpaceOnUse">
<stop stop-color="#4042E2"/>
<stop offset="1" stop-color="#4F52FF"/>
</linearGradient>
<linearGradient id="paint10_linear_3020_8405" x1="603.394" y1="418.763" x2="541.093" y2="533.116" gradientUnits="userSpaceOnUse">
<stop stop-color="#09005D"/>
<stop offset="1" stop-color="#1A0F91"/>
</linearGradient>
<linearGradient id="paint11_linear_3020_8405" x1="522.562" y1="354.446" x2="537.11" y2="425.129" gradientUnits="userSpaceOnUse">
<stop stop-color="#FF928E"/>
<stop offset="1" stop-color="#FEB3B1"/>
</linearGradient>
<linearGradient id="paint12_linear_3020_8405" x1="560.863" y1="606.361" x2="562.612" y2="435.274" gradientUnits="userSpaceOnUse">
<stop stop-color="#FF928E"/>
<stop offset="1" stop-color="#FEB3B1"/>
</linearGradient>
<linearGradient id="paint13_linear_3020_8405" x1="530.613" y1="288.114" x2="518.507" y2="361.768" gradientUnits="userSpaceOnUse">
<stop stop-color="#FF928E"/>
<stop offset="1" stop-color="#FEB3B1"/>
</linearGradient>
<linearGradient id="paint14_linear_3020_8405" x1="513.393" y1="305.951" x2="539.363" y2="361.246" gradientUnits="userSpaceOnUse">
<stop stop-color="#09005D"/>
<stop offset="1" stop-color="#1A0F91"/>
</linearGradient>
<linearGradient id="paint15_linear_3020_8405" x1="542.632" y1="290.088" x2="530.525" y2="363.741" gradientUnits="userSpaceOnUse">
<stop stop-color="#FF928E"/>
<stop offset="1" stop-color="#FEB3B1"/>
</linearGradient>
<linearGradient id="paint16_linear_3020_8405" x1="414.271" y1="267.553" x2="505.264" y2="381.78" gradientUnits="userSpaceOnUse">
<stop stop-color="#FF928E"/>
<stop offset="1" stop-color="#FEB3B1"/>
</linearGradient>
<linearGradient id="paint17_linear_3020_8405" x1="404.702" y1="488.481" x2="431.691" y2="376.098" gradientUnits="userSpaceOnUse">
<stop stop-color="#FF928E"/>
<stop offset="1" stop-color="#FEB3B1"/>
</linearGradient>
</defs>
</svg>
